<svg width="25" height="24" viewBox="0 0 25 24" fill="none" xmlns="http://www.w3.org/2000/svg">
<path d="M10.1257 7.33815C9.63688 8.07738 8.49997 9.13887 8.49997 10C8.49997 10.9972 9.56261 13.0054 10.9427 14.3684C12.3227 15.7315 13.4903 16.5 14.5 16.5C15.1874 16.5 15.5328 14.8421 17.3689 14.8421C18.7459 14.8421 20.5 16.3421 21 18C21.2867 18.9506 20.1639 19.8088 18.9048 20.4062C17.9177 20.8747 16.811 21.0432 15.7234 20.9385C13.7369 20.7474 10.9046 19.9623 7.49998 16.7368C3.59846 12.5 3.40148 9.72438 3.49997 7.01385C3.59847 4.30332 5.99998 3 6.81156 3C7.56449 3 9.92441 5.03844 10.2616 6.64692C10.3118 6.88649 10.2607 7.13397 10.1257 7.33815Z" stroke="#FFCE18" stroke-width="1.4" stroke-linecap="round" stroke-linejoin="round"/>
</svg>
