<svg width="45" height="49" viewBox="0 0 45 49" fill="none" xmlns="http://www.w3.org/2000/svg">
<path d="M35.2038 1.02374C34.8066 0.680974 34.2067 0.725121 33.864 1.12235C33.5212 1.51957 33.5653 2.11946 33.9626 2.46223C37.3769 5.40843 40.0179 9.01211 41.8058 12.9696C42.0218 13.4478 42.5846 13.6603 43.0627 13.4443C43.5408 13.2282 43.7533 12.6655 43.5373 12.1874C41.6384 7.98426 38.8324 4.15483 35.2038 1.02374Z" fill="white"/>
<path d="M33.8189 5.69107C33.4599 5.30847 32.8587 5.28935 32.4761 5.64836C32.0935 6.00738 32.0744 6.60858 32.4334 6.99119C34.186 8.85893 35.6146 10.9664 36.6957 13.2252C36.9222 13.6985 37.4895 13.8985 37.9628 13.672C38.436 13.4455 38.6361 12.8782 38.4095 12.405C37.2457 9.97325 35.7072 7.70339 33.8189 5.69107Z" fill="white"/>
<path fill-rule="evenodd" clip-rule="evenodd" d="M31.8925 22.9408L31.8618 22.8266L26.0808 9.22552C25.2257 7.21351 22.9407 6.22819 20.8906 6.98734C19.9477 7.33646 19.2121 7.99448 18.7531 8.80268C17.7094 7.03871 15.4961 6.31454 13.5973 7.15826C11.5241 8.07943 10.6101 10.5116 11.5433 12.563C10.8297 12.5078 10.0931 12.6407 9.40921 12.9851C7.36986 14.0119 6.57928 16.5188 7.6606 18.5299L9.62998 22.1925C8.88855 22.2036 8.14176 22.4226 7.48068 22.8674C5.70342 24.0631 5.19038 26.4572 6.34438 28.2749C8.70669 31.996 14.0904 40.4725 15.4572 42.591C16.4132 44.0726 18.2904 46.5028 21.3345 47.7827C24.4929 49.1107 28.5551 49.0578 33.5099 46.1972C37.3525 43.9787 39.0136 40.7052 39.8087 37.6256C40.2001 36.1099 40.3871 34.624 40.5266 33.348C40.552 33.1158 40.5756 32.8939 40.5982 32.6818C40.7058 31.6697 40.79 30.8778 40.9348 30.2285C41.2946 28.6153 42.6674 26.4181 44.0031 24.6135C44.7847 23.5575 45.09 22.2092 44.8004 20.9744C44.4946 19.6704 43.5097 18.5211 41.9346 18.2189C40.4356 17.9313 38.4779 17.9186 36.6121 18.9959C34.3219 20.3181 33.788 22.3593 33.4788 23.6093C33.3239 24.2357 33.2537 24.5076 33.1767 24.6743C33.0158 24.6883 32.7808 24.6283 32.4223 24.087C32.2455 23.8201 32.1077 23.5256 32.0125 23.2843C31.9664 23.1674 31.9336 23.0717 31.9137 23.01C31.9088 22.9946 31.9047 22.9815 31.9014 22.9709L31.8941 22.9466L31.8925 22.9408ZM21.5156 8.67534C20.3813 9.09536 19.7821 10.3132 20.1033 11.4488C20.1273 11.5336 20.1564 11.6179 20.1908 11.7014L25.3252 24.1621C25.4007 24.3453 25.3128 24.555 25.1291 24.6296C24.9568 24.6994 24.7598 24.6256 24.6758 24.4598L17.2771 9.85269C16.7304 8.7734 15.4338 8.31193 14.3281 8.80319C13.1513 9.32608 12.644 10.7216 13.2103 11.8782L20.7324 27.2403C20.8339 27.4476 20.7575 27.6982 20.5576 27.8137C20.3451 27.9363 20.0734 27.8612 19.9542 27.6468L13.2063 15.5117C13.065 15.2575 12.8815 15.041 12.6692 14.8663C11.9983 14.3138 11.0401 14.1792 10.2187 14.5927C9.08421 15.164 8.6444 16.5587 9.24595 17.6774L16.894 31.9012C16.9709 32.0443 16.9202 32.2227 16.7795 32.304C16.6426 32.383 16.468 32.3426 16.3797 32.2115L11.487 24.9472C11.2897 24.6542 11.0332 24.4249 10.7441 24.2645C10.0559 23.8827 9.1832 23.8914 8.48544 24.3608C7.51295 25.0151 7.23582 26.3207 7.86401 27.3102C10.229 31.0355 15.6075 39.5038 16.9697 41.6151C18.7305 44.3441 23.4955 49.9005 32.6099 44.6383C37.8419 41.6176 38.3958 36.3855 38.8042 32.527C38.9115 31.5139 39.0087 30.5954 39.178 29.8366C39.6297 27.8113 41.2256 25.3405 42.5563 23.5426C43.5342 22.2214 43.2098 20.2964 41.5954 19.9867C40.3525 19.7482 38.8775 19.7664 37.5121 20.5547C35.8463 21.5165 35.4911 22.9624 35.1908 24.1852C34.9138 25.3129 34.6834 26.2509 33.5145 26.4444C31.0782 26.8479 30.156 23.415 30.156 23.415L24.4242 9.92962C23.945 8.80208 22.6645 8.24991 21.5156 8.67534Z" fill="white"/>
<path d="M7.07129 39.8484C6.70243 40.2215 6.10093 40.2249 5.72781 39.8561C3.76539 37.916 2.14287 35.7055 0.888575 33.3191C0.644465 32.8547 0.823067 32.2803 1.28749 32.0362C1.75192 31.7921 2.32629 31.9707 2.5704 32.4351C3.73555 34.6519 5.24217 36.7042 7.0636 38.5049C7.43671 38.8738 7.44016 39.4753 7.07129 39.8484Z" fill="white"/>
</svg>
