<svg width="24" height="25" viewBox="0 0 24 25" fill="none" xmlns="http://www.w3.org/2000/svg">
<path d="M5.77215 17.7943C5.80843 17.2865 5.82656 17.0326 5.86619 16.8536C6.11712 15.7195 6.97957 14.9778 8.13837 14.8994C8.32136 14.887 8.60682 14.9096 9.17775 14.9547C10.0233 15.0216 10.9433 15.0712 11.8122 15.0712C12.7806 15.0712 13.8621 15.0096 14.8467 14.9311C15.4049 14.8867 15.684 14.8644 15.8752 14.8785C17.0091 14.9622 17.8755 15.7069 18.1286 16.8153C18.1713 17.0023 18.1895 17.2573 18.2259 17.7674V17.7674C18.267 18.3422 18.2875 18.6295 18.2665 18.868C18.1458 20.2368 17.1105 21.3486 15.7538 21.5665C15.5175 21.6045 15.2293 21.6045 14.6531 21.6045H11.8122H9.31986C8.76857 21.6045 8.49293 21.6045 8.26658 21.5697C6.89315 21.3588 5.8443 20.2324 5.73178 18.8474C5.71324 18.6192 5.73288 18.3442 5.77215 17.7943V17.7943Z" stroke="#222628" stroke-width="1.4"/>
<path d="M8.5 8.10449C8.5 6.1715 10.067 4.60449 12 4.60449V4.60449C13.933 4.60449 15.5 6.1715 15.5 8.10449V8.60449C15.5 10.2613 14.1569 11.6045 12.5 11.6045V11.6045H11.5V11.6045C9.84315 11.6045 8.5 10.2613 8.5 8.60449V8.10449Z" stroke="#222628" stroke-width="1.4"/>
<path d="M20.5 14.6045C20.5 14.6045 22 15.2221 22 17.1045C22 18.9869 20.5 19.6045 20.5 19.6045" stroke="#222628" stroke-width="1.4" stroke-linecap="round" stroke-linejoin="round"/>
<path d="M3.5 14.6045C3.5 14.6045 2 15.1045 2 17.1045C2 19.1045 3.5 19.6045 3.5 19.6045" stroke="#222628" stroke-width="1.4" stroke-linecap="round" stroke-linejoin="round"/>
<path d="M18 5.10449C18 5.10449 20 5.51904 20 7.60449C20 9.68994 18 10.1045 18 10.1045" stroke="#222628" stroke-width="1.4" stroke-linecap="round" stroke-linejoin="round"/>
<path d="M6 5.10449C6 5.10449 4 5.43873 4 7.60449C4 9.77025 6 10.1045 6 10.1045" stroke="#222628" stroke-width="1.4" stroke-linecap="round" stroke-linejoin="round"/>
</svg>
