<svg width="24" height="25" viewBox="0 0 24 25" fill="none" xmlns="http://www.w3.org/2000/svg">
<path d="M4 12.5H13" stroke="#222628" stroke-width="1.4" stroke-linecap="round" stroke-linejoin="round"/>
<path d="M17.7 10.9C18.2963 11.3472 18.6931 11.6463 18.9608 11.9011C19.2217 12.1496 19.2721 12.2768 19.2863 12.3525C19.3046 12.45 19.3046 12.55 19.2863 12.6475C19.2721 12.7232 19.2217 12.8504 18.9608 13.0989C18.6931 13.3537 18.2963 13.6528 17.7 14.1L16.9 14.7C16.0552 15.3336 15.4726 15.769 15.0164 16.0328C14.5514 16.3017 14.3777 16.2938 14.3081 16.2766C14.193 16.2482 14.0856 16.1945 13.9938 16.1195C13.9383 16.0742 13.8278 15.9399 13.7639 15.4066C13.7012 14.8834 13.7 14.156 13.7 13.1L13.7 11.9C13.7 10.844 13.7012 10.1166 13.7639 9.59343C13.8278 9.06009 13.9383 8.92584 13.9938 8.8805C14.0856 8.80547 14.193 8.7518 14.3081 8.72335C14.3777 8.70617 14.5514 8.69828 15.0164 8.96717C15.4726 9.23096 16.0552 9.66643 16.9 10.3L17.7 10.9Z" stroke="#222628" stroke-width="1.4"/>
</svg>
