<svg width="18" height="12" viewBox="0 0 18 12" fill="none" xmlns="http://www.w3.org/2000/svg">
<path d="M1 6H10" stroke="#EBB900" stroke-width="1.4" stroke-linecap="round" stroke-linejoin="round"/>
<path d="M14.7 4.4C15.2963 4.84723 15.6931 5.14629 15.9608 5.40113C16.2217 5.64959 16.2721 5.77678 16.2863 5.85248C16.3046 5.94998 16.3046 6.05002 16.2863 6.14752C16.2721 6.22322 16.2217 6.35042 15.9608 6.59887C15.6931 6.85371 15.2963 7.15277 14.7 7.6L13.9 8.2C13.0552 8.83357 12.4726 9.26904 12.0164 9.53283C11.5514 9.80172 11.3777 9.79383 11.3081 9.77665C11.193 9.7482 11.0856 9.69453 10.9938 9.6195C10.9383 9.57416 10.8278 9.43991 10.7639 8.90657C10.7012 8.38336 10.7 7.65596 10.7 6.6L10.7 5.4C10.7 4.34405 10.7012 3.61664 10.7639 3.09343C10.8278 2.56009 10.9383 2.42584 10.9938 2.3805C11.0856 2.30547 11.193 2.2518 11.3081 2.22335C11.3777 2.20617 11.5514 2.19828 12.0164 2.46717C12.4726 2.73096 13.0552 3.16643 13.9 3.8L14.7 4.4Z" stroke="#EBB900" stroke-width="1.4"/>
</svg>
