<svg width="201" height="201" viewBox="0 0 201 201" fill="none" xmlns="http://www.w3.org/2000/svg">
<path fill-rule="evenodd" clip-rule="evenodd" d="M110.213 13.0966L111.997 13.4072L113.053 7.28216L119.75 8.44891L118.694 14.574L120.477 14.8845L122.736 1.78792L120.953 1.47734L120.019 6.88855L113.322 5.7218L114.256 0.310588L112.472 0L110.213 13.0966ZM123.408 15.6718L132.647 18.7465L133.142 17.2432L125.561 14.723L126.97 10.4451L133.859 12.7379L134.34 11.2776L127.451 8.98558L128.714 5.15474L136.163 7.635L136.672 6.08873L127.561 3.05696L123.408 15.6718ZM134.84 19.742L142.427 23.4276L143.112 22.0014L137.138 19.0994L142.207 8.55713L140.594 7.77362L134.84 19.742ZM144.003 24.3794L151.109 28.9352L151.957 27.6009L146.364 24.0125L152.633 14.1433L151.122 13.1745L144.003 24.3794ZM165.804 23.3505C165.096 22.6645 164.224 22.1719 163.273 21.9195C162.322 21.667 161.323 21.6631 160.369 21.908C158.795 22.3436 157.397 23.2635 156.369 24.5388C155.165 25.8441 154.451 27.5307 154.351 29.308C154.409 30.2353 154.659 31.1401 155.084 31.9654C155.509 32.7906 156.099 33.5182 156.818 34.1022C157.537 34.6862 158.369 35.1139 159.261 35.3582C160.153 35.6024 161.086 35.658 162 35.5213C163.719 35.1146 165.252 34.1377 166.351 32.7482C167.445 31.5708 168.122 30.064 168.278 28.4608C168.403 26.5829 167.579 24.8795 165.808 23.3505H165.804ZM157.882 32.9128C156.619 31.8256 156.034 30.6554 156.127 29.4022C156.25 28.0758 156.802 26.8263 157.697 25.8441C158.591 24.6282 159.91 23.7978 161.389 23.5203C162.011 23.444 162.643 23.5042 163.241 23.6968C163.838 23.8894 164.387 24.2098 164.849 24.6359C165.344 25.0239 165.746 25.5195 166.024 26.0856C166.302 26.6517 166.449 27.2736 166.454 27.9048C166.409 29.2721 165.868 30.5756 164.933 31.5696C164.058 32.6366 162.898 33.4304 161.589 33.8579C160.944 34.0511 160.259 34.0652 159.607 33.8987C158.954 33.7321 158.359 33.3912 157.884 32.9121V32.9121L157.882 32.9128ZM172.982 51.6541L173.894 53.2249L179.237 50.0938L182.661 55.9957L177.318 59.1268L178.229 60.6983L189.654 54.0025L188.743 52.431L184.023 55.1981L180.599 49.2962L185.319 46.5298L184.407 44.9583L172.982 51.6541ZM179.526 63.4736L183.136 72.557L184.599 71.9699L181.639 64.5158L185.803 62.845L188.494 69.6171L189.916 69.0471L187.224 62.2742L190.953 60.7769L193.865 68.1042L195.37 67.5001L191.81 58.5427L179.526 63.4736ZM183.791 74.8823L185.871 83.0896L187.398 82.6982L185.76 76.2359L197.048 73.345L196.606 71.6L183.791 74.8823ZM186.16 84.9116L187.262 93.3079L188.824 93.1011L187.957 86.4898L199.506 84.9583L199.272 83.1726L186.16 84.9116ZM200.984 101.111C201.057 100.125 200.878 99.1367 200.463 98.2399C200.049 97.3431 199.414 96.5675 198.618 95.9868C197.279 95.0477 195.681 94.5534 194.049 94.5732C192.28 94.4747 190.533 94.999 189.107 96.0558C188.435 96.6936 187.902 97.4648 187.542 98.3204C187.181 99.176 187.001 100.098 187.013 101.027C187.026 101.956 187.229 102.872 187.612 103.718C187.995 104.564 188.548 105.321 189.236 105.94C190.646 107.009 192.371 107.569 194.136 107.531C195.736 107.625 197.322 107.187 198.649 106.284C200.167 105.18 200.945 103.455 200.984 101.109L200.984 101.111ZM188.604 101.09C188.631 99.4196 189.154 98.22 190.172 97.4916C191.266 96.7406 192.574 96.3694 193.897 96.4345C195.398 96.3496 196.876 96.8393 198.033 97.8051C198.489 98.2382 198.847 98.7654 199.081 99.3504C199.315 99.9354 199.42 100.564 199.389 101.194C199.409 101.825 199.287 102.452 199.031 103.029C198.776 103.605 198.394 104.116 197.914 104.523C196.839 105.361 195.496 105.776 194.138 105.688C192.762 105.691 191.413 105.301 190.25 104.561C189.69 104.185 189.241 103.664 188.952 103.053C188.663 102.442 188.543 101.764 188.607 101.09V101.09H188.604ZM184.073 124.78L183.462 126.493L189.284 128.591L186.988 135.022L181.167 132.923L180.556 134.635L193.004 139.123L193.615 137.412L188.472 135.558L190.767 129.128L195.91 130.981L196.522 129.269L184.073 124.78ZM179.279 137.403L174.679 146.022L176.067 146.771L179.842 139.698L183.793 141.828L180.363 148.255L181.712 148.982L185.142 142.555L188.682 144.462L184.971 151.415L186.398 152.186L190.935 143.686L179.279 137.403ZM173.325 148.029L168.416 154.913L169.696 155.835L173.562 150.415L183.03 157.234L184.074 155.77L173.325 148.029ZM167.214 156.312L161.535 162.571L162.699 163.637L167.169 158.709L175.779 166.597L176.986 165.263L167.214 156.312ZM164.512 178.084C165.305 177.499 165.936 176.72 166.345 175.82C166.755 174.921 166.928 173.932 166.85 172.946C166.691 171.313 166.026 169.771 164.95 168.537C163.875 167.122 162.343 166.129 160.617 165.728C159.698 165.629 158.768 165.722 157.887 166.003C157.005 166.284 156.191 166.745 155.496 167.358C154.802 167.972 154.241 168.723 153.85 169.565C153.459 170.407 153.246 171.322 153.225 172.251C153.333 174.021 154.031 175.704 155.205 177.028C156.174 178.311 157.536 179.238 159.082 179.665C160.901 180.11 162.711 179.583 164.512 178.086V178.084ZM156.483 168.612C157.765 167.548 159.011 167.167 160.223 167.471C161.502 167.819 162.633 168.577 163.443 169.63C164.484 170.722 165.074 172.17 165.095 173.682C165.064 174.311 164.898 174.927 164.607 175.486C164.317 176.045 163.91 176.534 163.413 176.919C162.949 177.345 162.395 177.659 161.793 177.839C161.191 178.019 160.556 178.059 159.936 177.957C158.603 177.68 157.417 176.923 156.601 175.829C155.703 174.779 155.122 173.493 154.927 172.123C154.847 171.451 154.949 170.77 155.223 170.152C155.498 169.534 155.933 169.002 156.483 168.613V168.613V168.612ZM135.525 180.381L133.828 181.014L135.98 186.842L129.607 189.218L127.456 183.39L125.759 184.022L130.359 196.485L132.055 195.853L130.155 190.702L136.528 188.327L138.428 193.476L140.125 192.844L135.525 180.381ZM122.822 184.829L113.297 186.839L113.621 188.388L121.438 186.74L122.359 191.149L115.258 192.647L115.572 194.153L122.674 192.655L123.499 196.604L115.815 198.225L116.149 199.82L125.541 197.838L122.822 184.829ZM110.922 187.084L102.52 187.74L102.643 189.318L109.257 188.8L110.16 200.473L111.946 200.334L110.922 187.084ZM100.68 187.717L92.2593 187.391L92.1988 188.973L98.829 189.23L98.3792 200.931L100.17 201L100.68 187.717ZM82.3692 199.676C83.3254 199.909 84.3249 199.892 85.2727 199.627C86.2205 199.362 87.0852 198.858 87.7848 198.162C88.9241 196.988 89.6691 195.485 89.9154 193.863C90.2982 192.125 90.0666 190.307 89.2605 188.722C88.744 187.952 88.0739 187.297 87.2926 186.8C86.5114 186.303 85.636 185.975 84.7219 185.836C83.8078 185.696 82.8749 185.749 81.9822 185.991C81.0895 186.233 80.2564 186.658 79.5357 187.24C78.2573 188.463 77.426 190.084 77.1756 191.84C76.8242 193.412 76.9968 195.055 77.6668 196.518C78.5027 198.204 80.0696 199.256 82.3677 199.675L82.3692 199.676ZM84.4018 187.402C86.0376 187.699 87.1303 188.412 87.68 189.542C88.2397 190.749 88.3915 192.106 88.1122 193.408C87.9516 194.911 87.2306 196.297 86.0944 197.288C85.5952 197.67 85.0196 197.938 84.4072 198.075C83.7948 198.212 83.1602 198.214 82.5469 198.081C81.925 197.997 81.3299 197.773 80.8062 197.426C80.2826 197.078 79.8439 196.616 79.5231 196.074C78.8746 194.872 78.6862 193.472 78.9936 192.14C79.2136 190.774 79.8166 189.5 80.7319 188.467C81.1916 187.973 81.7758 187.613 82.4226 187.425C83.0694 187.238 83.7546 187.23 84.4055 187.402V187.402H84.4018ZM57.4258 176.442L55.9072 175.452L52.5405 180.666L46.8387 176.946L50.2062 171.732L48.6884 170.742L41.4881 181.891L43.0059 182.881L45.981 178.274L51.682 181.994L48.7069 186.601L50.2247 187.591L57.4258 176.442ZM46.2893 168.853L38.9879 162.385L37.9458 163.571L43.9366 168.879L40.9718 172.259L35.5282 167.441L34.5156 168.593L39.9592 173.411L37.3042 176.438L31.4181 171.225L30.3465 172.447L37.5461 178.822L46.2893 168.853ZM37.3565 160.609L31.8023 154.24L30.6171 155.284L34.9906 160.299L26.2297 168.017L27.4097 169.371L37.3565 160.609ZM30.7189 152.743L25.9457 145.763L24.6477 146.66L28.409 152.156L18.8066 158.789L19.8214 160.271L30.7189 152.743ZM10.2382 145.139C10.624 146.049 11.2348 146.844 12.0125 147.45C12.7902 148.056 13.709 148.452 14.6817 148.6C16.3003 148.817 17.9457 148.518 19.387 147.747C21.0027 147.018 22.3148 145.745 23.0975 144.148C23.4032 143.271 23.5246 142.34 23.454 141.414C23.3834 140.487 23.1223 139.586 22.6872 138.766C22.252 137.946 21.6524 137.226 20.9262 136.651C20.2 136.077 19.3629 135.659 18.4681 135.426C16.7283 135.128 14.9392 135.427 13.3888 136.274C11.9248 136.93 10.7162 138.051 9.94979 139.466C9.1051 141.146 9.20171 143.037 10.2396 145.139H10.2382ZM21.2456 139.445C21.9831 140.942 22.0669 142.249 21.497 143.365C20.8681 144.537 19.8755 145.471 18.6702 146.024C17.3749 146.792 15.838 147.039 14.369 146.714C13.766 146.54 13.2077 146.237 12.7325 145.826C12.2574 145.414 11.8766 144.904 11.6166 144.33C11.311 143.778 11.1335 143.164 11.0975 142.534C11.0615 141.904 11.1678 141.274 11.4086 140.691C11.9807 139.45 12.9849 138.462 14.2318 137.913C15.4527 137.275 16.8294 137 18.2004 137.12C18.8693 137.195 19.5056 137.451 20.0416 137.86C20.5776 138.27 20.9934 138.817 21.2448 139.445H21.2456ZM13.8704 111.151L13.7532 109.335L7.5809 109.739L7.13839 102.919L13.3106 102.517L13.1934 100.701L0 101.566L0.117262 103.38L5.57044 103.024L6.01295 109.844L0.559772 110.2L0.677037 112.015L13.8704 111.151ZM13.2642 97.6413L14.0445 87.8908L12.4743 87.764L11.8341 95.7644L7.36555 95.4027L7.94744 88.1331L6.42227 88.0101L5.84111 95.2782L1.83862 94.9542L2.46846 87.0894L0.853302 86.959L0.0833383 96.5732L13.2642 97.6413ZM14.4818 85.5187L16.2371 77.2351L14.6964 76.9052L13.3143 83.4283L1.92049 80.9896L1.54878 82.7508L14.4818 85.5187ZM16.7829 75.4679L19.5021 67.4512L18.0108 66.9405L15.872 73.2523L4.84546 69.4719L4.26725 71.1768L16.7829 75.4679ZM10.629 54.4161C10.133 55.27 9.86238 56.2371 9.84276 57.2256C9.82314 58.2142 10.0552 59.1914 10.5169 60.0645C11.3096 61.499 12.5292 62.6481 14.0046 63.3505C15.5513 64.219 17.351 64.5181 19.0935 64.1963C19.9763 63.92 20.7924 63.4626 21.4902 62.853C22.188 62.2434 22.7523 61.4948 23.1474 60.6547C23.5426 59.8145 23.7599 58.9011 23.7857 57.9722C23.8115 57.0433 23.6452 56.1191 23.2973 55.2582C22.4978 53.6766 21.1918 52.4115 19.5898 51.6667C18.1933 50.8767 16.5767 50.5709 14.99 50.7965C13.1437 51.1182 11.6911 52.3247 10.632 54.4161H10.629ZM21.7434 59.897C20.9896 61.3864 19.9962 62.2337 18.7631 62.4388C17.4523 62.631 16.1149 62.3873 14.9546 61.7449C13.5678 61.1591 12.4536 60.0667 11.8364 58.688C11.6156 58.0979 11.5246 57.4667 11.5698 56.8378C11.615 56.209 11.7953 55.5975 12.0982 55.0454C12.3562 54.4699 12.7406 53.9605 13.2223 53.5555C13.7041 53.1505 14.2708 52.8603 14.8801 52.7067C16.2124 52.4271 17.6006 52.6476 18.7823 53.3264C20.0206 53.9303 21.0618 54.8766 21.7839 56.0543C22.123 56.6387 22.2984 57.3046 22.2913 57.9811C22.2843 58.6577 22.0952 59.3197 21.7441 59.897H21.7434ZM39.9209 37.035L41.2971 35.8534L37.2798 31.1271L42.4483 26.6899L46.4656 31.4169L47.8418 30.2354L39.2512 20.1282L37.875 21.3098L41.4247 25.4861L36.2562 29.9233L32.7073 25.7478L31.3311 26.9293L39.9209 37.035ZM50.3147 28.4652L58.5586 23.2675L57.7215 21.9258L50.957 26.1925L48.5741 22.3758L54.7235 18.4982L53.9122 17.1951L47.7651 21.0711L45.6314 17.6524L52.2816 13.4591L51.4202 12.0796L43.2861 17.2062L50.3147 28.4652ZM60.7269 22.1956L68.3852 18.662L67.7273 17.2232L61.6974 20.0052L56.8372 9.36585L55.2095 10.1167L60.7269 22.1956ZM70.1088 18.0505L78.1292 15.4524L77.6462 13.9454L71.3308 15.9913L67.7569 4.84415L66.0517 5.39639L70.1088 18.0505ZM83.2409 0.509988C82.2636 0.620547 81.3305 0.980232 80.5303 1.55493C79.73 2.12962 79.0891 2.90028 78.6684 3.79378C77.9973 5.28972 77.809 6.9593 78.13 8.56825C78.3611 10.3331 79.1972 11.9618 80.4944 13.1737C81.2423 13.7197 82.0948 14.1037 82.9979 14.3015C83.9011 14.4992 84.8352 14.5065 85.7413 14.3228C86.6474 14.139 87.5056 13.7683 88.2618 13.2341C89.018 12.6998 89.6557 12.0137 90.1345 11.219C90.919 9.63081 91.1491 7.82357 90.7879 6.08799C90.5835 4.49125 89.862 3.00649 88.7347 1.86279C87.3747 0.566569 85.5442 0.116377 83.2432 0.512211L83.2409 0.509988ZM85.5066 12.7408C83.8678 13.0225 82.5983 12.728 81.6981 11.8572C80.7621 10.9153 80.1577 9.69204 79.9767 8.3733C79.616 6.90559 79.8221 5.35503 80.5534 4.03395C80.8924 3.50342 81.3417 3.05304 81.8705 2.7138C82.3992 2.37456 82.9949 2.15453 83.6163 2.06886C84.2298 1.93307 84.8658 1.93856 85.4768 2.0849C86.0879 2.23125 86.658 2.51466 87.1446 2.9139C88.1632 3.82123 88.8164 5.07175 88.981 6.42971C89.2386 7.78833 89.1053 9.19258 88.5968 10.4777C88.333 11.1002 87.9064 11.6393 87.3623 12.0378C86.8182 12.4362 86.177 12.6792 85.5066 12.7408V12.7408Z" fill="#40405B"/>
</svg>
