<svg width="177" height="189" viewBox="0 0 177 189" fill="none" xmlns="http://www.w3.org/2000/svg">
<path fill-rule="evenodd" clip-rule="evenodd" d="M23.9051 189C22.6872 189 21.4767 188.608 20.4636 187.843C18.7066 186.515 17.8721 184.309 18.311 182.15L24.9068 149.705C17.5728 142.146 11.5781 133.275 7.30791 123.473C2.60618 112.684 -0.000815252 100.761 4.54e-07 88.2602C-0.00244667 63.9057 9.88799 41.8049 25.8505 25.8514C41.8025 9.88961 63.8984 0 88.2488 0H88.2709C97.0103 0 105.463 1.27493 113.442 3.64701C113.834 7.95801 114.484 12.1932 115.377 16.341C106.949 13.1614 97.8195 11.4207 88.2594 11.4199C72.3254 11.4223 57.5726 16.2538 45.3019 24.5397C33.0353 32.8265 23.2843 44.5702 17.4561 58.3524C13.5701 67.5421 11.4207 77.6349 11.4199 88.2602C11.4207 99.1728 13.6892 109.525 17.7775 118.913C21.8666 128.299 27.7813 136.718 35.0737 143.714C36.6048 145.182 37.1628 147.32 36.6472 149.279L31.877 172.743L56.0333 160.263C56.8523 159.839 57.752 159.626 58.6542 159.626C59.3467 159.626 60.0409 159.751 60.7024 160.006C69.2559 163.292 78.5329 165.097 88.2594 165.098C104.193 165.096 118.946 160.264 131.217 151.979C134.809 149.552 138.185 146.83 141.31 143.846C141.826 148.223 142.828 152.453 144.261 156.48C129.033 168.994 109.509 176.518 88.27 176.518H88.2594C78.0305 176.519 68.1914 174.77 59.0433 171.562L26.5276 188.36C25.6988 188.789 24.7999 189 23.9051 189ZM151.558 149.765C150.464 145.688 149.881 141.401 149.881 136.973C149.881 135.994 149.91 135.021 149.966 134.056C153.598 129.171 156.662 123.841 159.062 118.167C161.135 113.264 162.714 108.104 163.736 102.744C163.92 102.554 164.106 102.365 164.293 102.177C167.835 98.6393 171.904 95.6391 176.376 93.307C175.141 115.209 165.904 135.01 151.558 149.765ZM165.083 89.7579C165.093 89.2595 165.098 88.7611 165.098 88.2602C165.098 87.2602 165.079 86.2658 165.041 85.2756C166.245 85.9901 167.464 86.6819 168.699 87.3507C167.462 88.1085 166.256 88.912 165.083 89.7579ZM175.958 78.2703C171.403 75.93 167.059 73.2292 162.968 70.2078C160.794 61.1796 157.028 52.7803 151.978 45.3019C145.962 36.3936 138.12 28.8124 129 23.0967C127.447 18.2947 126.267 13.3246 125.495 8.21823C134.91 12.6051 143.423 18.6022 150.667 25.8514C164.417 39.5928 173.661 57.8964 175.958 78.2703Z" fill="#FFCE18"/>
<path fill-rule="evenodd" clip-rule="evenodd" d="M88.2926 138.648H88.269C76.1288 138.648 64.8337 134.793 55.6285 128.252C46.4167 121.708 39.2556 112.478 35.2831 101.679C34.1941 98.7192 35.7114 95.4376 38.6707 94.3495C39.3209 94.1105 39.9865 93.9971 40.6415 93.9971C42.9663 93.9971 45.1515 95.4278 46.0007 97.7371C49.1607 106.334 54.8846 113.718 62.2414 118.941C69.6015 124.164 78.5564 127.226 88.2804 127.228C98.0044 127.226 106.959 124.164 114.319 118.941C121.676 113.718 127.4 106.334 130.56 97.7371C131.409 95.4278 133.594 93.9971 135.919 93.9971C136.574 93.9971 137.24 94.1105 137.89 94.3495C140.849 95.4376 142.367 98.7192 141.278 101.679C137.305 112.478 130.144 121.708 120.931 128.252C111.726 134.793 100.433 138.648 88.2926 138.648Z" fill="#FFCE18"/>
<path fill-rule="evenodd" clip-rule="evenodd" d="M107.088 74.1343C103.598 74.1343 100.768 71.3046 100.768 67.8159C100.768 64.3246 103.598 61.4966 107.088 61.4966C110.577 61.4966 113.406 64.3246 113.406 67.8159C113.406 71.3046 110.577 74.1343 107.088 74.1343Z" fill="#FFCE18"/>
<path fill-rule="evenodd" clip-rule="evenodd" d="M69.4489 74.1343C65.9593 74.1343 63.1296 71.3046 63.1296 67.8159C63.1296 64.3246 65.9593 61.4966 69.4489 61.4966C72.9385 61.4966 75.7674 64.3246 75.7674 67.8159C75.7674 71.3046 72.9385 74.1343 69.4489 74.1343Z" fill="#FFCE18"/>
</svg>
