<svg width="34" height="34" viewBox="0 0 34 34" fill="none" xmlns="http://www.w3.org/2000/svg">
<path d="M0.00682274 34L2.30522 25.5544C0.790757 22.9582 -0.00491407 20.0056 2.28348e-05 17C2.28348e-05 7.6109 7.61092 0 17 0C26.3891 0 34 7.6109 34 17C34 26.3891 26.3891 34 17 34C13.9957 34.0048 11.0443 33.2098 8.44902 31.6965L0.00682274 34ZM10.8647 9.02359C10.6452 9.03722 10.4307 9.09505 10.234 9.19359C10.0496 9.29802 9.88126 9.42858 9.73422 9.58119C9.53022 9.77329 9.41462 9.93989 9.29052 10.1014C8.66222 10.9191 8.32425 11.9228 8.33002 12.954C8.33342 13.787 8.55102 14.5979 8.89102 15.3561C9.58632 16.8895 10.7304 18.513 12.2417 20.0175C12.6055 20.3796 12.9608 20.7434 13.3433 21.0817C15.2191 22.7332 17.4543 23.9242 19.8713 24.5599L20.8386 24.7078C21.1531 24.7248 21.4676 24.701 21.7838 24.6857C22.2789 24.6601 22.7624 24.5261 23.1999 24.293C23.4821 24.1434 23.6147 24.0686 23.851 23.919C23.851 23.919 23.9241 23.8714 24.0635 23.766C24.293 23.596 24.4341 23.4753 24.6245 23.2764C24.7656 23.1302 24.888 22.9585 24.9815 22.763C25.1141 22.4859 25.2467 21.9572 25.3011 21.5169C25.3419 21.1803 25.33 20.9967 25.3249 20.8828C25.3181 20.7009 25.1668 20.5122 25.0019 20.4323L24.0125 19.9886C24.0125 19.9886 22.5335 19.3443 21.6308 18.9329C21.5356 18.8914 21.4336 18.8678 21.3299 18.8632C21.2136 18.8512 21.0961 18.8643 20.9852 18.9016C20.8744 18.9388 20.7728 18.9993 20.6873 19.0791V19.0757C20.6788 19.0757 20.5649 19.1726 19.3358 20.6618C19.2653 20.7566 19.1681 20.8282 19.0567 20.8676C18.9453 20.9069 18.8246 20.9122 18.7102 20.8828C18.5994 20.8532 18.4909 20.8157 18.3855 20.7706C18.1747 20.6822 18.1016 20.6482 17.9571 20.5853L17.9486 20.5819C16.9761 20.1573 16.0756 19.5837 15.2796 18.8819C15.0654 18.6949 14.8665 18.4909 14.6625 18.2937C13.9937 17.6532 13.4108 16.9286 12.9285 16.1381L12.8282 15.9766C12.7562 15.8681 12.6979 15.751 12.6548 15.6281C12.5902 15.3782 12.7585 15.1776 12.7585 15.1776C12.7585 15.1776 13.1716 14.7254 13.3637 14.4806C13.5237 14.2771 13.6729 14.0655 13.8108 13.8465C14.0114 13.5235 14.0743 13.192 13.9689 12.9353C13.4929 11.7725 12.9999 10.6148 12.4933 9.46559C12.393 9.23779 12.0955 9.07459 11.8252 9.04229C11.7334 9.03209 11.6416 9.02189 11.5498 9.01509C11.3215 9.00375 11.0927 9.00772 10.8647 9.02359Z" fill="#FFCE18"/>
</svg>
