<svg width="153" height="64" viewBox="0 0 153 64" fill="none" xmlns="http://www.w3.org/2000/svg">
<path d="M8.52393 4.28572C8.52393 6.65251 6.61593 8.57104 4.26214 8.57104C1.90817 8.57104 4.76837e-06 6.65251 4.76837e-06 4.28572C4.76837e-06 1.91875 1.90817 4.48227e-05 4.26214 4.48227e-05C6.61593 4.48227e-05 8.52393 1.91875 8.52393 4.28572Z" fill="white"/>
<path d="M10.6842 55.3215C10.6842 55.3215 10.8593 51.9785 10.3692 50.1837C10.3692 50.1837 13.099 52.7527 14.0438 53.8436C14.0438 53.8436 12.1891 54.3011 10.6842 55.3215ZM17.6181 17.8985C17.6116 17.8925 17.6044 17.8872 17.5979 17.8811C17.5989 17.8787 17.6002 17.8762 17.6014 17.8737C17.6068 17.882 17.6126 17.89 17.6181 17.8985ZM45.4304 50.1593C43.3623 49.3372 42.2076 49.5306 41.2938 48.9501C40.3799 48.3696 39.3218 48.0794 38.937 48.2729C38.5521 48.4665 37.4938 50.2075 37.2532 50.3044C37.0125 50.4011 33.4534 50.6429 30.3266 50.7882C27.2001 50.9333 25.3237 52.3843 25.3237 52.3843C25.3237 52.3843 24.0062 51.9203 23.1906 51.1597C22.3749 50.3992 21.7967 49.5196 21.159 49.609C20.5212 49.6985 19.8836 51.1896 19.8836 51.1896C19.8836 51.1896 17.4156 47.2018 15.5062 45.1859C15.5062 45.1859 15.6015 43.9381 14.9015 42.178C14.2015 40.418 12.5468 39.3942 11.3374 38.0501C10.128 36.7062 10.3189 35.522 10.4462 35.138C10.5736 34.7541 12.2601 31.7782 13.5332 30.0822C14.8062 28.3862 15.5188 26.9909 15.7289 26.1464C15.8564 25.6345 17.6065 25.3785 19.0705 25.2505C20.5344 25.1224 20.948 25.6345 22.9847 25.2505C25.0216 24.8664 28.6809 22.9145 29.5723 22.9145C30.4632 22.9145 30.6221 23.5865 31.0678 23.8105C31.5134 24.0345 32.0791 24.1274 32.1817 25.0584C32.2134 25.3463 32.8179 25.0264 32.7861 24.5785C32.7546 24.1304 32.5635 23.5544 32.3408 23.1065C32.1179 22.6584 32.659 22.2105 32.9772 21.9225C33.2957 21.6344 35.4958 21.1254 35.9367 19.6827C35.9613 19.6021 35.0156 20.0622 34.4118 20.2092C34.4118 20.2092 35.265 19.2521 35.2965 18.5714C35.3025 18.4427 34.2045 19.2461 33.5031 19.6756C32.801 20.1051 31.3063 20.5649 30.3546 20.8533C29.4029 21.1416 26.4852 21.5225 24.504 21.3785C22.5233 21.2346 20.4228 22.1705 20.4228 22.1705C20.4228 22.1705 19.8803 22.1891 19.0003 21.9556C19.5648 21.7258 20.0992 21.3825 20.6009 21.0179C21.4474 20.8291 22.2758 20.5705 23.0664 20.2142C23.1317 20.2062 23.1976 20.1983 23.261 20.191C23.2704 20.19 23.2709 20.1753 23.261 20.1762C23.215 20.1799 23.1693 20.1843 23.1232 20.1884C23.1705 20.1668 23.218 20.1465 23.2647 20.1242C23.2735 20.12 23.266 20.1071 23.2574 20.1111C23.196 20.1396 23.1341 20.1656 23.0724 20.1928C22.5103 20.243 21.9537 20.301 21.3984 20.3041C21.4842 20.2757 21.5703 20.2485 21.6584 20.2237C21.6675 20.2211 21.6637 20.2069 21.6543 20.2092C21.5417 20.2365 21.4311 20.2693 21.3214 20.3047C20.8696 20.3027 20.4186 20.2628 19.9659 20.1431C19.0411 19.8987 18.5155 19.2141 18.0815 18.4342C18.3385 18.7674 18.5644 19.1441 18.9119 19.3788C19.8666 20.0235 20.912 20.267 22.0493 20.1272C22.0632 20.1254 22.0606 20.1062 22.0469 20.1083C20.5541 20.354 19.1406 19.7253 18.2233 18.5541C18.1516 18.4627 18.078 18.375 18.0025 18.2896C17.9999 18.2849 17.9974 18.2803 17.9948 18.2757C17.8886 18.0768 17.7816 17.8918 17.6693 17.7226C18.5484 15.7456 17.9407 14.2988 17.9407 14.2988C17.9407 14.2988 19.9694 11.0588 20.3036 10.7468C20.6378 10.4349 21.7834 10.171 22.6187 9.69089C23.4541 9.21081 24.7204 8.80551 25.053 8.63493C25.1457 8.58739 24.747 8.37475 24.1859 8.47302C23.6246 8.57113 23.1122 8.61196 23.1122 8.61196C23.1122 8.61196 24.1449 7.85137 24.6332 7.49962C25.1214 7.14787 25.5849 6.79612 25.463 6.73072C25.3533 6.67204 24.7551 6.67345 23.8359 7.26241C23.8359 7.26241 25.1131 6.01096 25.2757 5.85559C25.4383 5.70022 24.7798 5.56924 23.9988 6.07654C23.9988 6.07654 24.519 5.4547 24.5925 5.34034C24.6656 5.2258 24.0637 5.17666 23.6652 5.43031C23.2667 5.68396 22.746 6.40354 22.0057 6.9925C21.2655 7.58146 20.6344 7.56219 20.6067 7.47522C20.5416 7.27072 20.8593 6.83271 20.9971 6.30544C21.16 5.68396 20.8426 5.21767 20.7125 5.39761C20.5824 5.57755 20.1674 6.49351 19.6061 7.22158C19.045 7.94947 18.7192 8.84103 18.8658 9.31545C18.8658 9.31545 17.2472 11.6792 16.5069 12.5217C16.5069 12.5217 15.5062 11.3708 13.5968 11.7547C11.6874 12.1388 11.2335 13.4673 10.5416 14.3948C10.3985 14.5867 9.75408 15.1628 9.61099 16.3626C9.46772 17.5626 9.63472 19.0027 9.89717 19.3626C9.89717 19.3626 8.94265 21.2106 8.2743 22.2186C7.60596 23.2265 4.52705 23.8025 3.69171 24.3784C2.85637 24.9545 2.09784 25.5834 2.66792 29.3128C2.75687 29.8943 1.85034 32.2631 1.89833 34.4881C1.94649 36.7131 2.47561 43.0492 2.66792 43.9683C2.86041 44.8871 3.14905 45.9996 3.14905 46.5315C3.14905 47.0637 2.42762 52.6261 3.38953 57.8014C4.35161 62.9767 6.08329 63.8473 6.99721 63.9926C7.91113 64.1377 10.1714 62.1548 11.9034 60.9937C14.2124 59.446 16.4732 57.076 16.81 56.6889C16.81 56.6889 18.6944 59.0219 21.7164 59.7362C22.534 59.9294 25.805 58.3815 26.9114 57.5594C28.0175 56.7373 32.2025 55.1414 34.1746 53.9322C36.1471 52.7228 37.4455 52.6742 39.6581 52.8678C41.8711 53.0613 43.7951 53.2064 45.3825 53.2549C46.9698 53.3033 47.8359 53.9804 47.9802 53.7869C48.1244 53.5935 47.4988 50.9814 45.4304 50.1593Z" fill="white"/>
<path d="M23.2243 54.4489C22.6347 54.5028 21.0182 52.7607 20.2388 51.7145C21.023 52.9118 21.9024 54.0491 23.0313 55.0313C23.8675 55.8077 24.4468 56.3899 25.4118 55.6136C26.1196 55.0313 26.6984 53.9314 27.2135 53.155C27.8437 52.3193 28.5772 51.5107 29.4231 50.8694C26.8438 51.2114 25.3261 52.384 25.3261 52.384C24.404 53.3599 23.9319 54.3844 23.2243 54.4489Z" fill="white"/>
<path d="M16.9792 54.4491C13.0544 50.7618 9.19411 47.2035 7.77867 41.7043C7.77867 41.7043 6.29889 45.3272 7.84301 47.5269C9.38712 49.7265 10.3673 50.1836 10.3673 50.1836C10.3673 50.1836 13.0971 52.7526 14.042 53.8436C14.042 53.8436 15.7828 55.6755 16.808 56.689C16.9599 56.8391 17.1641 57.0554 17.4018 57.3133C18.1816 58.0569 19.693 59.2582 21.7144 59.7361C21.9793 59.7989 22.5017 59.6783 23.1242 59.4595C22.4863 59.0546 21.9192 58.6486 21.4829 58.3309C19.8744 57.1666 18.459 55.8079 16.9792 54.4491Z" fill="white"/>
<path d="M4.49911 50.6323C4.56345 49.4031 5.01382 48.1092 4.82098 46.8799C4.6923 45.9095 4.3061 45.0038 4.11308 44.0336C3.59838 41.7044 3.59838 39.1814 3.66272 36.7875C3.72705 34.6527 4.37043 32.259 3.98441 30.2535C3.6156 28.5229 3.06504 26.7399 3.0123 24.9714C2.52731 25.5846 2.2638 26.6699 2.66794 29.3128C2.75688 29.8945 1.85017 32.2631 1.89834 34.4881C1.9465 36.7131 2.47545 43.0494 2.66794 43.9683C2.86042 44.8871 3.14889 45.9996 3.14889 46.5317C3.14889 47.0639 2.42746 52.6261 3.38954 57.8016C4.16705 61.9847 5.44748 63.3552 6.39251 63.8034C4.72834 59.6333 4.13892 55.1334 4.49911 50.6323Z" fill="white"/>
<path d="M11.8994 23.0076C14.602 20.6139 18.7196 22.9429 21.7435 22.8135C23.1589 22.7488 24.317 22.1018 25.7326 22.0372C27.0837 21.9725 28.4348 21.9078 29.7216 21.5196C31.3387 21.068 33.738 19.9855 35.2809 18.5591C35.1462 18.5577 34.1553 19.2773 33.5042 19.6757C32.8023 20.1052 31.3076 20.5651 30.3558 20.8534C29.4041 21.1417 26.4862 21.5228 24.5053 21.3787C22.5243 21.2347 20.424 22.1708 20.424 22.1708C20.424 22.1708 19.8816 22.1892 19.0016 21.9557C17.8674 21.7524 16.2748 21.0021 14.6663 21.0021C13.0577 21.0021 11.8994 23.0076 11.8994 23.0076Z" fill="white"/>
<path d="M10.4178 17.444C10.3638 16.4669 10.2209 15.3991 10.48 14.469C10.2677 14.7152 9.73855 15.2883 9.61022 16.363C9.46696 17.5628 9.63413 19.0028 9.89658 19.3629C9.89658 19.3629 8.94188 21.2109 8.27371 22.2188C8.25543 22.2463 8.23451 22.2734 8.21289 22.3004C8.89565 21.9572 9.54061 21.5278 9.96742 21.1315C11.19 19.8377 10.5465 19.0613 10.4178 17.444Z" fill="white"/>
<path d="M79.1963 18.3203L90.9971 44H84.6885L81.5342 37.1348H71.7559L68.4531 44H64.2598L76.5244 18.3203H79.1963ZM72.9248 34.7969H80.4951L76.7656 26.6699L72.9248 34.7969ZM115.879 18.8398V20.9922H107.177V44H101.017V20.9922H92.2959V18.8398H115.879ZM119.924 18.8398H125.936L134.638 36.0215L143.21 18.8398H149.092V44H142.932V27.5977L134.712 44H132.337L123.839 27.4121V44H119.924V18.8398Z" fill="#FFCE18"/>
</svg>
