<svg width="554" height="417" viewBox="0 0 554 417" fill="none" xmlns="http://www.w3.org/2000/svg">
<path d="M144.254 154.908L111.637 337.908L111.558 344.422H136.431L142.717 304.68H169.421L175.696 344.422H201.97L168.528 154.908H144.254ZM146.402 280.32L156.08 220.798L165.69 280.32H146.402Z" fill="white"/>
<path d="M204.672 179.721H232.53V344.422H258.703V179.721H286.323V155.372H204.672V179.721Z" fill="white"/>
<path d="M381.1 155.373L355.662 257.351L330.235 155.373H306.334V344.423H331.591V257.656L350.099 327.639H361.224L379.743 257.667V344.423H405V155.373H381.1Z" fill="white"/>
<path d="M120.1 222.21C101.976 222.211 84.1496 217.598 68.3001 208.805C52.4506 200.012 39.0993 187.328 29.5034 171.947C19.9075 156.567 14.3829 138.997 13.4498 120.891C12.5168 102.785 16.2059 84.7392 24.1699 68.4534C32.1339 52.1676 44.1106 38.1774 58.9721 27.8005C73.8337 17.4235 91.0911 11.0011 109.119 9.1382C127.147 7.2753 145.352 10.0331 162.021 17.152C178.689 24.2709 193.272 35.5166 204.396 49.83C193.357 33.2051 178.062 19.8473 160.104 11.1497C142.147 2.45207 122.186 -1.26684 102.303 0.380812C82.4201 2.02846 63.3429 8.98231 47.0614 20.5172C30.7798 32.052 17.8902 47.7454 9.73669 65.9606C1.58322 84.1759 -1.53544 104.246 0.70596 124.077C2.94736 143.909 10.4667 162.776 22.4798 178.71C34.493 194.645 50.5598 207.063 69.0049 214.671C87.45 222.278 107.598 224.796 127.347 221.961C124.95 222.119 122.53 222.21 120.1 222.21Z" fill="#FFCE1B"/>
<path d="M99.3987 193.336C99.3987 193.02 99.3987 192.726 99.3987 192.42C99.2351 191.352 99.2351 190.265 99.3987 189.197C100.762 180.267 103.262 171.548 106.838 163.253C107.604 161.033 108.593 158.896 109.789 156.874C114.481 147.951 119.455 139.164 124.746 130.602C125.945 128.669 128.816 127.21 131.191 126.644C146.589 122.72 162.191 119.587 177.443 115.188C188.081 112.123 197.284 106.004 205.967 98.8792C218.403 88.7007 218.573 142.353 218.573 142.353C218.573 142.353 224.169 120.627 222.609 103.527C221.365 89.8655 219.737 82.0393 218.087 76.984C216.312 71.3292 214.876 64.159 209.291 56.2762C209.913 58.5381 210.568 60.6078 211.066 62.7227C214.322 76.5542 209.856 86.4727 197.375 93.134C190.976 96.6739 188.714 95.8596 185.243 89.1757C171.247 61.8405 151.858 39.4816 124.599 24.7113C109.902 16.7947 94.3111 12.4405 77.4089 16.2971C78.2246 16.6186 79.0998 16.7613 79.9753 16.7155C91.0785 16.1584 102.097 18.9139 111.632 24.6322C138.958 40.3185 156.549 64.2155 167.821 93.0888C169.574 97.6126 167.098 101.718 162.372 101.933C152.14 102.419 141.863 102.781 131.643 102.43C128.828 102.34 125.538 100.089 123.435 97.9066C114.944 89.0173 107.234 79.3477 98.4716 70.7637C88.0929 60.4834 76.4366 51.7977 62.0896 47.7262C45.4475 43.0102 28.8167 51.2774 23.9778 66.6697C25.6623 64.8715 27.1886 63.0959 28.8845 61.4899C39.3876 51.5262 51.4169 50.6328 63.2541 58.9C67.7764 62.0554 68.4095 65.1316 65.5152 69.7459C63.7402 72.5506 61.8635 75.2876 60.2354 78.1602C44.3056 106.321 35.7132 136.155 40.6086 168.829C42.2379 180.414 47.181 191.282 54.8426 200.122C54.7302 199.352 54.5446 198.595 54.2886 197.86C47.1773 186.257 44.7917 173.466 45.6397 160.154C47.4599 131.666 58.4152 106.717 76.1653 84.6405C80.2128 79.6304 84.4977 79.7661 87.9685 85.2513C93.3614 93.7673 98.5507 102.43 103.367 111.263C104.498 113.242 104.328 116.443 103.616 118.727C101.355 125.943 98.3246 132.91 96.0974 140.125C90.5236 158.22 86.5101 176.474 89.8453 195.542C93.1805 214.61 108.568 224.46 126.182 221.701C123.819 221.18 121.501 220.785 119.263 220.14C105.753 216.272 99.2404 207.451 99.3987 193.336Z" fill="#FFCE1B"/>
<path d="M269.493 406.015C269.485 406.451 269.398 406.876 269.233 407.289C269.097 407.669 268.915 408.052 268.686 408.438C268.456 408.792 268.195 409.148 267.902 409.506C267.639 409.831 267.374 410.125 267.108 410.388C267.222 410.786 267.239 411.097 267.157 411.319C267.105 411.508 267.105 411.804 267.157 412.206C266.756 413.472 266.086 414.331 265.145 414.785C264.236 415.269 263.348 415.237 262.479 414.692C262.125 414.461 261.813 414.166 261.546 413.807C261.307 413.415 260.984 413.183 260.576 413.111C260.641 412.578 260.567 412.053 260.353 411.535C260.139 411.018 259.923 410.749 259.704 410.729C259.577 410.082 259.4 409.391 259.175 408.656C258.95 407.921 258.74 407.185 258.546 406.449C258.35 405.681 258.171 404.943 258.01 404.236C257.878 403.496 257.811 402.815 257.809 402.193C257.824 401.881 257.747 401.605 257.579 401.364C257.442 401.123 257.334 400.833 257.254 400.495C257.092 399.787 257.006 399.045 256.997 398.267C257.017 397.457 257.008 396.695 256.97 395.981C256.935 395.299 256.85 394.572 256.716 393.801C256.612 392.997 256.51 392.24 256.41 391.529C256.309 390.788 256.243 390.122 256.212 389.533C256.18 388.912 256.232 388.427 256.369 388.077C256.536 387.695 256.769 387.387 257.068 387.154C257.396 386.887 257.693 386.607 257.957 386.313C258.643 386.34 259.201 386.591 259.631 387.066C260.06 387.541 260.24 387.999 260.169 388.438C260.842 388.807 261.382 389.308 261.789 389.94C262.225 390.54 262.572 391.238 262.832 392.033C263.121 392.796 263.335 393.625 263.476 394.52C263.614 395.384 263.737 396.249 263.845 397.115C263.951 397.95 264.055 398.753 264.158 399.526C264.261 400.298 264.42 400.959 264.636 401.508C265.698 399.803 266.583 398.294 267.292 396.981C268 395.637 268.726 394.354 269.471 393.132C270.217 391.911 271.054 390.669 271.984 389.406C272.913 388.144 274.13 386.711 275.633 385.107C275.945 385.122 276.196 385.171 276.387 385.254C276.61 385.336 276.8 385.404 276.958 385.458C277.117 385.512 277.306 385.564 277.527 385.615C277.746 385.634 278.04 385.603 278.409 385.522C278.549 385.826 278.654 386.053 278.725 386.205C278.793 386.326 278.847 386.463 278.886 386.617C278.955 386.738 279.026 386.905 279.099 387.119C279.204 387.332 279.36 387.635 279.567 388.028C279.665 388.117 279.703 388.239 279.68 388.396C279.657 388.553 279.634 388.71 279.611 388.866C279.617 388.991 279.622 389.084 279.626 389.146C279.629 389.208 279.706 389.204 279.858 389.134C279.788 389.573 279.638 389.985 279.41 390.371C279.21 390.723 279.139 391.147 279.196 391.642C278.531 392.611 277.79 393.614 276.973 394.653C276.187 395.69 275.388 396.759 274.574 397.86C273.791 398.959 273.043 400.118 272.329 401.338C271.613 402.527 271.009 403.773 270.517 405.074C270.362 405.082 270.241 405.135 270.152 405.233C270.095 405.33 270.039 405.442 269.983 405.569C269.926 405.665 269.853 405.763 269.765 405.861C269.708 405.957 269.617 406.008 269.493 406.015Z" fill="white"/>
<path d="M307.766 398.221C307.754 398.595 307.804 398.95 307.915 399.287C308.026 399.623 308.153 399.959 308.295 400.294C308.466 400.596 308.623 400.914 308.765 401.249C308.907 401.584 309.018 401.921 309.098 402.259C309.183 402.69 309.208 403.171 309.174 403.702C309.137 404.202 309.055 404.704 308.926 405.209C308.795 405.682 308.616 406.127 308.389 406.544C308.16 406.929 307.88 407.224 307.548 407.428C307.143 408.01 306.638 408.472 306.034 408.815C305.429 409.158 304.875 409.56 304.37 410.022C304.04 410.257 303.66 410.433 303.23 410.549C302.832 410.663 302.418 410.778 301.988 410.894C301.657 411.098 301.264 411.321 300.81 411.562C300.354 411.773 299.882 411.985 299.396 412.197C298.907 412.378 298.417 412.528 297.926 412.647C297.432 412.735 296.999 412.774 296.624 412.762C295.711 413.152 294.807 413.418 293.912 413.558C293.05 413.727 292.022 413.719 290.83 413.533C289.721 413.746 288.679 413.754 287.703 413.556C286.759 413.357 285.901 413.013 285.129 412.524C284.386 412.003 283.715 411.385 283.117 410.669C282.549 409.921 282.072 409.137 281.687 408.317C281.346 406.561 281.324 404.959 281.622 403.512C281.918 402.034 282.376 400.672 282.995 399.426C283.644 398.147 284.391 396.972 285.238 395.9C286.082 394.798 286.898 393.728 287.684 392.691C287.873 392.744 288.013 392.736 288.103 392.669C288.222 392.57 288.325 392.455 288.411 392.326C288.496 392.166 288.582 392.022 288.669 391.893C288.786 391.762 288.922 391.677 289.076 391.638C289.268 391.161 289.561 390.803 289.953 390.565C290.374 390.294 290.698 389.935 290.923 389.487C291.199 389.411 291.427 389.305 291.607 389.171C291.787 389.037 291.95 388.889 292.097 388.726C292.275 388.561 292.454 388.411 292.634 388.277C292.812 388.112 293.023 387.992 293.268 387.917L293.242 387.405C293.787 387.128 294.176 386.827 294.408 386.504C294.67 386.148 294.974 385.727 295.322 385.242C295.6 385.196 295.816 385.17 295.972 385.161C296.158 385.152 296.42 385.107 296.758 385.027C296.984 384.579 297.184 384.242 297.359 384.015C297.564 383.786 297.863 383.537 298.253 383.268C298.635 383.435 299.045 383.538 299.483 383.577C299.952 383.615 300.366 383.795 300.725 384.119C300.772 384.427 300.878 384.671 301.043 384.849C301.207 384.996 301.386 385.142 301.58 385.288C301.773 385.402 301.951 385.533 302.114 385.68C302.308 385.825 302.444 386.036 302.52 386.312C302.646 386.337 302.723 386.317 302.751 386.253C302.81 386.188 302.902 386.168 303.028 386.192C303.144 386.622 303.268 386.911 303.4 387.06C303.531 387.177 303.668 387.434 303.814 387.831C303.675 388.15 303.568 388.482 303.493 388.829C303.447 389.142 303.273 389.385 302.971 389.556C302.951 389.775 303.019 389.896 303.176 389.919C303.331 389.911 303.429 389.983 303.468 390.137C303.513 390.415 303.477 390.619 303.36 390.749C304.168 391.921 304.903 393.174 305.564 394.508C306.224 395.812 306.958 397.049 307.766 398.221ZM302.179 402.948C302.285 402.6 302.425 402.313 302.6 402.086C302.806 401.857 302.913 401.525 302.921 401.089C302.753 400.849 302.65 400.667 302.613 400.545C302.574 400.391 302.546 400.159 302.53 399.849C301.796 398.923 301.153 397.929 300.6 396.869C300.045 395.778 299.431 394.767 298.76 393.838C298.705 393.965 298.603 394.095 298.454 394.227C298.305 394.36 298.133 394.338 297.937 394.161C297.888 394.413 297.789 394.605 297.64 394.737C297.49 394.838 297.322 394.894 297.136 394.903C296.948 394.882 296.744 394.846 296.523 394.795C296.332 394.712 296.156 394.612 295.994 394.496C295.131 395.257 294.268 396.003 293.404 396.733C292.539 397.463 291.774 398.296 291.107 399.234C290.987 399.302 290.911 399.337 290.88 399.339C290.847 399.31 290.755 399.33 290.603 399.4C290.385 400.003 290.103 400.562 289.757 401.078C289.44 401.562 289.124 402.061 288.808 402.575C288.493 403.09 288.226 403.633 288.007 404.204C287.788 404.776 287.682 405.435 287.69 406.182C288.241 406.588 288.875 406.82 289.594 406.875C290.313 406.931 291.043 406.908 291.784 406.807C292.557 406.705 293.297 406.572 294.004 406.411C294.741 406.217 295.42 406.103 296.04 406.071C297.328 405.692 298.424 405.23 299.329 404.685C300.232 404.108 301.182 403.529 302.179 402.948Z" fill="white"/>
<path d="M328.844 410.607C327.99 410.932 327.058 411.261 326.049 411.594C325.039 411.926 324.022 412.12 322.998 412.173C321.446 412.255 320.2 411.931 319.259 411.202C319.086 410.869 318.934 410.644 318.804 410.526C318.704 410.407 318.605 410.288 318.505 410.168C318.435 410.016 318.378 409.817 318.334 409.57C317.938 409.155 317.618 408.674 317.371 408.127C317.123 407.549 316.937 406.967 316.813 406.383C316.718 405.765 316.67 405.145 316.669 404.523C316.698 403.899 316.776 403.304 316.902 402.737C316.957 402.609 316.982 402.484 316.975 402.359C317 402.234 317.024 402.092 317.047 401.936C317.145 401.433 317.244 400.945 317.343 400.473C317.474 399.999 317.655 399.585 317.885 399.231C317.746 398.958 317.73 398.648 317.836 398.3C317.943 397.952 318.066 397.634 318.206 397.347C318.579 396.145 318.884 395.133 319.121 394.311C319.387 393.457 319.655 392.618 319.923 391.795C320.377 390.371 320.801 388.964 321.195 387.574C321.589 386.184 321.931 384.688 322.22 383.086C322.461 382.917 322.641 382.799 322.762 382.73C322.945 382.659 323.098 382.604 323.22 382.566C323.793 382.816 324.46 383.062 325.219 383.302C325.977 383.511 326.604 383.603 327.101 383.577C327.357 383.719 327.519 383.835 327.586 383.925C327.651 383.984 327.717 384.042 327.782 384.101C328.145 384.487 328.461 384.89 328.732 385.312C329.002 385.702 329.108 386.241 329.051 386.929C328.879 387.218 328.747 387.365 328.654 387.37C328.531 387.999 328.388 388.535 328.224 388.979C328.092 389.422 327.944 389.866 327.781 390.31C327.588 390.787 327.41 391.263 327.249 391.738C327.087 392.213 326.962 392.796 326.873 393.485C326.757 393.647 326.672 393.791 326.616 393.919C326.591 394.044 326.552 394.186 326.498 394.345C326.444 394.503 326.376 394.678 326.292 394.869C326.238 395.028 326.137 395.173 325.988 395.305C325.938 396.117 325.817 396.777 325.625 397.285C325.465 397.791 325.29 398.298 325.098 398.806C324.773 399.726 324.479 400.644 324.216 401.56C323.983 402.475 323.866 403.508 323.865 404.659C324.016 404.589 324.155 404.551 324.279 404.544C324.434 404.536 324.574 404.529 324.698 404.522C324.977 404.508 325.305 404.537 325.683 404.611C326.588 404.065 327.581 403.718 328.662 403.568C329.775 403.416 330.873 403.296 331.958 403.208C332.392 403.185 332.827 403.163 333.261 403.14C333.696 403.117 334.097 403.065 334.467 402.983C334.754 403.124 334.93 403.208 334.993 403.236C335.086 403.231 335.211 403.224 335.366 403.216C335.583 403.205 335.77 403.211 335.927 403.233C336.317 403.555 336.687 403.785 337.037 403.922C337.386 404.059 337.75 404.18 338.129 404.285C338.477 404.391 338.81 404.514 339.129 404.653C339.477 404.759 339.812 404.928 340.136 405.16L340.566 407.145C340.798 407.413 340.901 407.594 340.875 407.689C340.888 407.937 340.836 408.127 340.718 408.257L340.838 408.764C340.377 408.882 340.057 409.008 339.878 409.142C339.729 409.274 339.581 409.422 339.434 409.585C339.187 409.629 339.002 409.654 338.878 409.661C338.785 409.666 338.692 409.671 338.598 409.675C338.164 409.698 337.64 409.803 337.028 409.991C336.175 409.756 335.299 409.662 334.399 409.709C334.058 409.727 333.701 409.761 333.331 409.811C332.96 409.862 332.589 409.913 332.218 409.963C331.849 410.045 331.464 410.112 331.062 410.164C330.691 410.214 330.304 410.25 329.9 410.271L328.844 410.607Z" fill="white"/>
<path d="M359.506 409C358.651 409.325 357.719 409.654 356.71 409.987C355.7 410.32 354.684 410.513 353.659 410.567C352.108 410.648 350.861 410.324 349.921 409.596C349.748 409.262 349.596 409.037 349.465 408.919C349.366 408.8 349.266 408.681 349.166 408.561C349.096 408.409 349.039 408.21 348.995 407.964C348.6 407.549 348.279 407.067 348.032 406.52C347.784 405.942 347.598 405.36 347.474 404.776C347.38 404.158 347.332 403.538 347.33 402.916C347.36 402.292 347.437 401.697 347.563 401.13C347.619 401.002 347.643 400.877 347.637 400.753C347.661 400.627 347.685 400.486 347.708 400.329C347.806 399.826 347.905 399.338 348.005 398.866C348.136 398.392 348.316 397.978 348.547 397.624C348.408 397.351 348.391 397.041 348.498 396.693C348.604 396.345 348.727 396.027 348.868 395.74C349.241 394.538 349.545 393.526 349.782 392.704C350.049 391.85 350.316 391.012 350.584 390.188C351.039 388.764 351.463 387.357 351.857 385.967C352.251 384.577 352.592 383.081 352.882 381.479C353.122 381.311 353.303 381.192 353.423 381.124C353.606 381.052 353.759 380.997 353.882 380.96C354.455 381.21 355.121 381.455 355.881 381.695C356.639 381.904 357.266 381.996 357.762 381.97C358.019 382.112 358.181 382.228 358.247 382.318C358.313 382.377 358.378 382.435 358.443 382.494C358.806 382.88 359.123 383.283 359.394 383.705C359.663 384.095 359.769 384.634 359.712 385.322C359.54 385.611 359.408 385.758 359.315 385.763C359.192 386.392 359.049 386.928 358.886 387.373C358.753 387.815 358.605 388.259 358.442 388.703C358.249 389.18 358.072 389.656 357.91 390.131C357.748 390.606 357.623 391.189 357.535 391.878C357.419 392.04 357.333 392.184 357.277 392.312C357.253 392.437 357.214 392.579 357.16 392.738C357.106 392.896 357.037 393.071 356.954 393.262C356.9 393.421 356.799 393.566 356.65 393.698C356.599 394.51 356.478 395.17 356.287 395.678C356.127 396.184 355.951 396.691 355.76 397.199C355.434 398.119 355.14 399.037 354.877 399.953C354.645 400.868 354.528 401.901 354.526 403.052C354.678 402.982 354.816 402.944 354.94 402.937C355.095 402.929 355.235 402.922 355.359 402.915C355.638 402.901 355.967 402.93 356.344 403.004C357.249 402.458 358.242 402.111 359.324 401.961C360.436 401.809 361.534 401.689 362.619 401.601C363.054 401.578 363.488 401.556 363.923 401.533C364.357 401.51 364.759 401.458 365.128 401.376C365.415 401.517 365.591 401.601 365.655 401.629C365.748 401.624 365.872 401.617 366.027 401.609C366.244 401.598 366.431 401.604 366.588 401.627C366.979 401.948 367.348 402.178 367.698 402.315C368.047 402.453 368.412 402.574 368.791 402.678C369.139 402.784 369.472 402.907 369.79 403.046C370.138 403.152 370.474 403.321 370.797 403.553L371.228 405.538C371.46 405.806 371.563 405.987 371.536 406.082C371.549 406.33 371.497 406.52 371.38 406.65L371.499 407.158C371.039 407.275 370.719 407.401 370.539 407.535C370.39 407.667 370.242 407.815 370.095 407.978C369.849 408.022 369.663 408.047 369.539 408.054C369.446 408.059 369.353 408.064 369.26 408.069C368.825 408.091 368.302 408.197 367.689 408.384C366.837 408.149 365.96 408.055 365.06 408.102C364.719 408.12 364.363 408.154 363.992 408.205C363.621 408.255 363.251 408.306 362.88 408.356C362.511 408.438 362.125 408.505 361.723 408.557C361.352 408.607 360.965 408.643 360.562 408.664L359.506 409Z" fill="white"/>
<path d="M402.507 380.979C402.549 381.194 402.558 381.365 402.534 381.491C402.539 381.584 402.528 381.678 402.502 381.772C402.507 381.866 402.512 381.974 402.519 382.098C402.524 382.191 402.563 382.345 402.636 382.559C402.04 383.648 401.318 384.417 400.47 384.866C399.652 385.283 398.751 385.61 397.767 385.848C396.782 386.056 395.767 386.28 394.722 386.521C393.707 386.761 392.704 387.218 391.713 387.893C391.301 387.759 390.929 387.778 390.595 387.951C390.293 388.123 389.83 388.194 389.206 388.164C389.03 388.36 388.804 388.512 388.53 388.62C388.254 388.697 387.979 388.789 387.704 388.896C387.843 389.169 387.905 389.462 387.89 389.774C387.905 390.053 387.963 390.283 388.066 390.465C389.157 390.501 390.351 390.423 391.648 390.23C392.976 390.036 394.276 389.89 395.547 389.793C395.586 389.946 395.576 390.056 395.517 390.121C395.457 390.155 395.445 390.234 395.483 390.356C395.708 390.5 395.936 390.69 396.166 390.927C396.395 391.133 396.624 391.339 396.852 391.545C397.081 391.751 397.308 391.925 397.533 392.069C397.788 392.18 398.07 392.212 398.378 392.165C398.516 392.407 398.608 392.682 398.655 392.991C398.732 393.267 398.716 393.563 398.608 393.88C398.13 394.247 397.652 394.63 397.175 395.029C396.696 395.396 396.185 395.734 395.641 396.043C395.128 396.35 394.566 396.613 393.955 396.831C393.373 397.017 392.709 397.114 391.963 397.122C391.808 397.131 391.684 397.137 391.591 397.142C391.528 397.145 391.433 397.104 391.304 397.017C391.064 397.185 390.709 397.25 390.241 397.213C389.803 397.173 389.464 397.238 389.224 397.406C388.874 397.269 388.452 397.229 387.957 397.286C387.491 397.31 387.069 397.27 386.69 397.165C386.228 397.843 385.815 398.565 385.45 399.331C385.086 400.097 384.77 400.907 384.504 401.761C385.567 401.861 386.439 401.878 387.121 401.811C387.833 401.742 388.498 401.661 389.115 401.566C389.731 401.441 390.363 401.33 391.011 401.234C391.658 401.106 392.479 401.032 393.474 401.011C394.077 400.637 394.795 400.382 395.628 400.245C396.49 400.075 397.272 399.847 397.973 399.562C398.226 399.642 398.452 399.801 398.651 400.04C398.849 400.247 399.031 400.455 399.197 400.664C399.393 400.841 399.588 401.002 399.783 401.147C399.977 401.293 400.213 401.343 400.491 401.297C400.622 401.415 400.707 401.566 400.748 401.75C400.818 401.902 400.873 402.055 400.912 402.208C400.951 402.362 401.005 402.499 401.074 402.62C401.172 402.708 401.313 402.732 401.498 402.691C401.086 403.74 400.584 404.56 399.993 405.151C399.431 405.709 398.769 406.149 398.008 406.469C397.247 406.789 396.389 407.051 395.435 407.257C394.512 407.461 393.482 407.702 392.345 407.979C392.069 408.056 391.836 408.052 391.644 407.969C391.455 407.917 391.236 407.897 390.988 407.91C390.282 408.103 389.436 408.287 388.449 408.463C387.463 408.639 386.457 408.739 385.431 408.761C384.405 408.784 383.42 408.696 382.476 408.496C381.534 408.328 380.752 407.964 380.132 407.405C379.872 407.201 379.688 406.962 379.58 406.687C379.502 406.38 379.288 406.158 378.939 406.021C378.886 405.619 378.801 405.172 378.682 404.681C378.563 404.189 378.443 403.682 378.322 403.159C378.199 402.605 378.093 402.066 378.004 401.542C377.945 401.016 377.951 400.533 378.021 400.094C378.09 399.623 378.254 399.195 378.514 398.808C378.805 398.419 378.892 398.01 378.776 397.58C378.93 397.541 379.019 397.459 379.043 397.333C379.066 397.176 379.187 397.107 379.406 397.127C379.563 396.559 379.737 396.02 379.928 395.513C380.12 395.005 380.312 394.512 380.504 394.035C380.728 393.557 380.937 393.079 381.13 392.602C381.352 392.092 381.556 391.537 381.742 390.936C381.287 390.555 380.938 390.138 380.697 389.684C380.484 389.197 380.319 388.723 380.202 388.263C380.083 387.771 379.979 387.279 379.891 386.785C379.801 386.261 379.665 385.739 379.482 385.219C379.768 384.738 380.121 384.346 380.541 384.044C380.99 383.709 381.474 383.435 381.992 383.221C382.51 383.007 383.076 382.822 383.69 382.665C384.304 382.508 384.948 382.334 385.623 382.144C386.843 381.675 387.929 381.307 388.879 381.039C389.861 380.77 390.814 380.549 391.739 380.376C392.693 380.17 393.679 379.979 394.696 379.801C395.714 379.623 396.868 379.376 398.158 379.059C398.452 379.324 398.724 379.45 398.972 379.437C399.081 379.151 399.217 379.066 399.379 379.182C399.57 379.265 399.642 379.168 399.597 378.89C399.935 379.402 400.346 379.831 400.831 380.179C401.346 380.495 401.904 380.761 402.507 380.979Z" fill="white"/>
<path d="M422.265 393.994C422.057 394.192 421.883 394.434 421.743 394.722C421.6 394.978 421.459 395.25 421.318 395.537C421.181 395.887 421.028 396.222 420.858 396.542C420.688 396.862 420.47 397.153 420.203 397.416C420.073 397.89 419.937 398.271 419.796 398.558C419.654 398.814 419.421 399.122 419.098 399.482C418.853 400.739 418.194 402.127 417.122 403.646C417.106 403.927 417.027 404.211 416.887 404.499C416.776 404.754 416.649 405.009 416.507 405.266C416.45 405.362 416.393 405.474 416.338 405.601C416.28 405.698 416.238 405.778 416.21 405.841L416.141 406.312C415.999 406.568 415.84 406.794 415.664 406.99C415.487 407.186 415.325 407.366 415.178 407.529C415.121 407.626 415.019 407.755 414.872 407.919L414.188 408.235C411.906 408.043 410.462 406.905 409.855 404.821L409.877 404.353C409.931 404.194 409.969 404.037 409.992 403.88C410.045 403.69 410.097 403.501 410.149 403.311C410.251 402.87 410.367 402.429 410.5 401.986C410.663 401.542 410.907 401.14 411.23 400.781C411.281 400.56 411.403 400.212 411.596 399.735C411.787 399.227 412.121 398.478 412.598 397.488C412.994 396.721 413.304 396.113 413.53 395.665C413.755 395.218 413.939 394.866 414.081 394.61C413.745 394.129 413.349 393.699 412.893 393.318C412.449 392.563 412.053 391.837 411.705 391.14C411.389 390.441 411.138 389.816 410.953 389.265C410.901 388.863 410.837 388.524 410.76 388.248C410.683 387.972 410.606 387.681 410.528 387.374C410.417 387.037 410.321 386.7 410.241 386.362C410.161 386.024 410.111 385.668 410.092 385.296C409.925 385.087 409.821 384.874 409.778 384.659L409.847 384.188C409.929 383.966 409.93 383.686 409.85 383.348C409.768 382.979 409.671 382.61 409.558 382.243C409.48 381.936 409.385 381.598 409.272 381.231C409.19 380.862 409.155 380.49 409.167 380.116C409.178 379.742 409.254 379.396 409.393 379.077C409.561 378.726 409.84 378.416 410.231 378.146L411.02 378.058C411.307 378.199 411.579 378.34 411.835 378.482C412.121 378.592 412.392 378.718 412.649 378.86C412.998 378.997 413.332 379.135 413.651 379.274C413.969 379.413 414.306 379.598 414.66 379.828L415.02 380.463L415.652 380.943L415.679 381.455C415.717 381.578 415.741 381.748 415.752 381.965C415.774 382.368 415.849 382.613 415.978 382.7L416.193 383.249C416.216 383.683 416.284 384.1 416.399 384.498C416.511 384.866 416.623 385.218 416.734 385.555C416.845 385.891 416.957 386.243 417.07 386.611C417.182 386.978 417.219 387.381 417.18 387.819C417.361 387.716 417.51 387.599 417.628 387.468C417.687 387.403 417.746 387.353 417.807 387.319C417.867 387.285 417.927 387.235 417.986 387.169L420.537 383.301L420.42 382.841L421.349 381.858C421.584 381.597 421.804 381.352 422.01 381.123C422.247 380.893 422.437 380.65 422.579 380.393L423.071 379.994C423.983 378.39 425.345 377.354 427.156 376.886L427.803 376.759L428.021 377.354C428.163 377.689 428.428 377.986 428.815 378.246C429.233 378.504 429.666 378.746 430.113 378.972L430.547 379.229C430.718 379.531 430.808 379.76 430.816 379.915C430.824 380.07 430.816 380.211 430.792 380.337L431.002 380.792C430.793 381.55 430.511 382.11 430.157 382.47C429.833 382.83 429.508 383.158 429.181 383.455C428.915 383.718 428.663 383.965 428.426 384.195C428.219 384.393 428.061 384.65 427.953 384.967L427.647 385.356C427.015 385.763 426.622 386.281 426.468 386.912L426.358 387.478L425.799 387.507C425.768 387.508 425.694 387.575 425.576 387.705C425.488 387.803 425.347 388.075 425.152 388.521C424.951 388.843 424.806 389.053 424.718 389.151C424.63 389.249 424.556 389.33 424.498 389.396C424.473 389.521 424.433 389.648 424.378 389.775C424.351 389.87 424.311 389.997 424.257 390.155C423.875 390.58 423.643 390.903 423.561 391.125C423.478 391.316 423.381 391.539 423.27 391.794C423.158 392.049 423.047 392.304 422.936 392.558C422.855 392.78 422.696 393.022 422.461 393.283L422.265 393.994Z" fill="white"/>
<path d="M457.497 396.769C457.688 396.852 457.805 397.002 457.847 397.217C457.89 397.433 457.899 397.604 457.874 397.729C457.353 398.473 456.991 398.989 456.788 399.28C456.586 399.571 456.442 399.796 456.357 399.956C456.27 400.085 456.167 400.2 456.048 400.299C455.96 400.397 455.738 400.611 455.382 400.941C454.029 401.852 452.625 402.673 451.169 403.402C449.745 404.131 448.232 404.661 446.631 404.994C446.401 405.348 445.932 405.606 445.225 405.768C444.55 405.959 443.921 406.132 443.338 406.287C443.211 406.231 443.128 406.142 443.091 406.02C443.086 405.927 443.02 405.852 442.892 405.797C442.878 406.109 442.746 406.271 442.498 406.284C442.251 406.328 441.937 406.282 441.557 406.147C441.209 406.041 440.827 405.874 440.41 405.647C440.027 405.449 439.69 405.264 439.401 405.093C439.259 405.349 439.101 405.606 438.928 405.864C438.786 406.121 438.593 406.302 438.35 406.408C438.005 406.364 437.739 406.331 437.551 406.31C437.394 406.287 437.242 406.357 437.095 406.521C436.904 406.437 436.743 406.337 436.613 406.219C436.513 406.1 436.398 405.982 436.267 405.864C436.169 405.776 436.04 405.689 435.88 405.604C435.751 405.517 435.561 405.45 435.309 405.401C435.365 405.273 435.324 405.089 435.187 404.847C435.048 404.574 434.853 404.413 434.601 404.364C434.714 404.14 434.638 403.88 434.374 403.582C434.139 403.252 433.948 402.889 433.803 402.492C433.847 402.147 433.874 401.772 433.884 401.367C433.894 400.962 434.068 400.72 434.406 400.64C434.364 400.424 434.308 400.24 434.237 400.089C434.167 399.937 434.097 399.785 434.027 399.633C434.234 399.435 434.378 399.21 434.458 398.957C434.537 398.672 434.599 398.389 434.647 398.106C434.694 397.824 434.757 397.541 434.836 397.256C434.914 396.972 435.073 396.73 435.311 396.531C435.542 395.585 435.723 394.891 435.856 394.449C435.986 393.975 436.071 393.519 436.111 393.082C436.181 392.642 436.25 392.172 436.317 391.67C436.415 391.167 436.584 390.536 436.824 389.777C436.769 389.313 436.794 388.907 436.901 388.559C437.005 388.18 437.111 387.817 437.217 387.469C437.353 387.088 437.457 386.709 437.531 386.332C437.603 385.924 437.563 385.459 437.411 384.938C436.978 384.992 436.676 385.163 436.504 385.452C436.331 385.71 436.225 386.058 436.186 386.496C435.95 386.757 435.647 386.897 435.274 386.917C434.931 386.904 434.622 386.951 434.348 387.059C433.239 386.681 432.306 386.108 431.55 385.338C430.794 384.569 430.171 383.652 429.679 382.589C429.921 381.86 430.309 381.249 430.843 380.754C431.376 380.228 431.991 379.791 432.689 379.444C433.384 379.065 434.131 378.761 434.928 378.533C435.724 378.273 436.489 378.031 437.224 377.805C438.423 377.525 439.62 377.213 440.816 376.87C442.012 376.528 443.31 376.366 444.712 376.386C444.893 376.283 445.108 376.225 445.356 376.212C445.634 376.167 445.913 376.136 446.192 376.122C446.471 376.107 446.735 376.093 446.983 376.08C447.261 376.035 447.49 375.96 447.672 375.857C447.837 376.036 448.06 376.148 448.343 376.196C448.655 376.21 448.988 376.333 449.343 376.563C449.7 376.265 450.007 376.186 450.264 376.328C450.551 376.469 450.809 376.627 451.036 376.801C451.263 376.976 451.473 377.136 451.668 377.282C451.893 377.426 452.114 377.492 452.332 377.48C452.563 377.748 452.841 377.998 453.164 378.23C453.519 378.461 453.843 378.708 454.137 378.973C454.46 379.205 454.723 379.471 454.926 379.772C455.159 380.071 455.287 380.422 455.308 380.826C455.285 380.982 455.336 381.073 455.462 381.098C455.588 381.122 455.684 381.179 455.751 381.269C455.832 382.23 455.721 383.076 455.417 383.807C455.143 384.506 454.773 385.164 454.307 385.779C453.872 386.393 453.374 386.98 452.812 387.538C452.281 388.095 451.798 388.681 451.364 389.295C451.695 389.682 452.071 390.02 452.49 390.309C452.91 390.598 453.33 390.888 453.75 391.177C454.2 391.464 454.621 391.769 455.011 392.091C455.401 392.413 455.733 392.8 456.006 393.253C456.071 393.311 456.152 393.369 456.248 393.427C456.343 393.453 456.438 393.494 456.535 393.552C456.644 393.857 456.785 394.177 456.958 394.51C457.13 394.812 457.27 395.116 457.38 395.421C457.518 395.694 457.61 395.954 457.654 396.201C457.696 396.416 457.644 396.606 457.497 396.769ZM448.489 381.65C446.903 381.671 445.327 381.893 443.762 382.318C442.229 382.74 440.95 383.29 439.928 383.966C440.478 384.372 441.026 384.733 441.571 385.046C442.148 385.359 442.607 385.801 442.948 386.375C444.132 385.815 445.171 385.138 446.063 384.344C446.953 383.52 447.762 382.621 448.489 381.65ZM449.872 396.468C449.949 396.153 450.107 395.896 450.345 395.697C450.584 395.497 450.823 395.314 451.063 395.145C451.302 394.946 451.509 394.749 451.686 394.553C451.861 394.326 451.923 394.027 451.872 393.656C450.851 393.18 449.92 392.918 449.077 392.869C448.263 392.787 447.487 392.828 446.749 392.991C446.04 393.121 445.35 393.313 444.679 393.566C444.038 393.818 443.379 394.008 442.701 394.137C442.407 395.055 442.101 396.051 441.784 397.126C441.467 398.2 441.164 399.243 440.875 400.254C441.799 400.081 442.643 399.85 443.406 399.561C444.167 399.241 444.896 398.907 445.594 398.56C446.322 398.21 447.02 397.863 447.687 397.516C448.382 397.138 449.111 396.788 449.872 396.468Z" fill="white"/>
<path d="M489.329 398.788C489.17 399.326 488.919 399.884 488.576 400.462C488.262 401.007 487.869 401.51 487.395 401.971C486.95 402.399 486.441 402.768 485.866 403.078C485.291 403.388 484.678 403.576 484.028 403.641C483.62 403.569 483.335 403.475 483.173 403.359C483.044 403.272 482.899 403.187 482.739 403.102C482.643 403.044 482.548 403.003 482.453 402.977C482.387 402.918 482.323 402.874 482.259 402.847L481.688 402.643L481.843 402.028C481.892 401.777 481.867 401.591 481.767 401.472C481.666 401.322 481.469 401.13 481.177 400.896C481.079 400.808 480.981 400.72 480.883 400.631C480.785 400.543 480.702 400.454 480.635 400.364L479.798 399.521L481.037 399.13C481.802 398.872 482.299 398.566 482.53 398.211C482.791 397.855 482.87 397.275 482.765 396.472C482.138 396.38 481.61 396.392 481.18 396.508C480.782 396.622 480.368 396.753 479.94 396.9C479.39 397.084 478.823 397.254 478.24 397.409C477.686 397.531 477.068 397.61 476.385 397.646C476.137 397.659 475.904 397.671 475.687 397.683C475.468 397.663 475.233 397.644 474.984 397.626L474.513 397.558C474.433 397.219 474.361 397.037 474.298 397.009C474.232 396.95 474.167 396.891 474.102 396.832C473.938 396.685 473.757 396.492 473.558 396.254C473.388 395.983 473.339 395.643 473.411 395.235C473.241 394.963 473.134 394.689 473.088 394.411C472.921 394.794 472.802 395.189 472.73 395.597L472.568 396.072L472.107 396.19C472.047 396.224 472.005 396.304 471.98 396.43C471.954 396.525 471.942 396.603 471.946 396.665L471.754 397.469C471.696 397.534 471.637 397.599 471.578 397.665C471.517 397.699 471.458 397.749 471.399 397.814C471.352 398.097 471.289 398.38 471.21 398.664C471.132 398.949 471.052 399.217 470.972 399.47C470.838 399.882 470.72 400.293 470.617 400.703C470.543 401.08 470.532 401.454 470.582 401.825L470.423 402.347C470.277 402.541 470.115 402.705 469.935 402.839C469.754 402.942 469.573 403.045 469.391 403.148C469.332 403.213 469.243 403.28 469.122 403.348C469.03 403.384 468.954 403.419 468.894 403.454L468.781 403.973L468.227 404.096C467.889 404.176 467.643 404.235 467.49 404.274C467.367 404.312 467.213 404.335 467.027 404.345L466.559 404.323C466.203 404.062 465.927 403.858 465.733 403.713C465.537 403.536 465.311 403.377 465.055 403.235C464.756 402.877 464.586 402.606 464.545 402.421C464.504 402.237 464.464 402.068 464.425 401.914C464.353 401.731 464.314 401.578 464.308 401.453C464.27 401.331 464.219 401.24 464.153 401.181L463.519 400.655L464.009 400.209L464.014 399.415C464.552 397.8 465.124 396.245 465.73 394.75C466.368 393.254 467.019 391.726 467.684 390.167C467.906 389.657 468.113 389.148 468.304 388.64C468.526 388.131 468.749 387.621 468.971 387.112C468.935 387.02 468.914 386.912 468.907 386.788C468.901 386.664 468.925 386.523 468.978 386.364C469.292 385.819 469.547 385.339 469.743 384.924C469.938 384.478 470.132 384.032 470.327 383.586C470.547 383.046 470.769 382.52 470.991 382.011C471.244 381.5 471.559 380.97 471.935 380.421L472.662 380.056C472.754 380.02 472.861 379.983 472.983 379.946C473.104 379.877 473.242 379.839 473.397 379.831L474.101 379.887C474.948 379.438 475.68 378.84 476.294 378.092C476.907 377.313 477.527 376.393 478.157 375.333L478.588 374.657L479.213 374.998C479.373 375.083 479.595 375.165 479.879 375.243C480.162 375.291 480.46 375.353 480.776 375.43C481.341 375.524 481.876 375.636 482.38 375.766C482.885 375.895 483.301 376.106 483.627 376.4C483.84 376.887 483.968 377.254 484.012 377.501C484.056 377.747 484.115 377.993 484.191 378.238C484.311 378.761 484.417 379.284 484.506 379.809C484.627 380.332 484.72 380.918 484.785 381.568C484.968 382.087 485.12 382.609 485.241 383.131C485.391 383.621 485.526 384.128 485.647 384.65C485.841 385.387 486.035 386.108 486.227 386.814C486.418 387.489 486.654 388.13 486.935 388.738C487.183 388.725 487.339 388.732 487.403 388.76C487.555 388.689 487.707 388.635 487.861 388.596C488.046 388.555 488.246 388.513 488.461 388.471L488.971 388.397L489.182 388.853C489.221 389.007 489.384 389.154 489.671 389.294C490.076 389.304 490.376 389.382 490.571 389.527C490.763 389.642 490.941 389.772 491.105 389.919C491.235 390.037 491.364 390.124 491.492 390.179L492.205 390.422L491.869 391.14C491.588 391.715 491.166 392.281 490.604 392.84C490.072 393.366 489.457 393.818 488.761 394.197C488.802 394.381 488.827 394.567 488.837 394.753C488.876 394.907 488.932 395.075 489.004 395.258C489.124 395.78 489.23 396.32 489.322 396.875C489.413 397.43 489.443 398.004 489.412 398.597L489.329 398.788ZM475.453 391.44C476.381 391.329 477.215 391.223 477.957 391.122C478.728 390.988 479.574 390.804 480.495 390.569C480.229 389.649 479.946 388.699 479.646 387.719C479.344 386.708 479.027 385.713 478.696 384.735L478.441 385.215C477.854 385.899 477.288 386.66 476.74 387.498C476.224 388.334 475.783 389.12 475.417 389.855C475.245 390.144 475.073 390.433 474.902 390.722C474.73 391.011 474.574 391.299 474.434 391.587C474.618 391.546 474.788 391.521 474.943 391.513C475.13 391.504 475.299 391.479 475.453 391.44Z" fill="white"/>
<path d="M510.113 401.107C509.259 401.432 508.327 401.761 507.317 402.094C506.308 402.427 505.291 402.62 504.267 402.674C502.715 402.755 501.469 402.431 500.528 401.703C500.355 401.369 500.203 401.144 500.072 401.026C499.973 400.907 499.873 400.788 499.774 400.668C499.703 400.516 499.646 400.317 499.602 400.071C499.207 399.656 498.886 399.174 498.64 398.627C498.391 398.049 498.205 397.467 498.081 396.883C497.987 396.265 497.939 395.645 497.937 395.023C497.967 394.399 498.044 393.804 498.17 393.237C498.226 393.109 498.25 392.984 498.244 392.86C498.268 392.734 498.292 392.593 498.315 392.436C498.413 391.933 498.512 391.445 498.612 390.973C498.743 390.499 498.923 390.085 499.154 389.731C499.015 389.458 498.999 389.148 499.105 388.8C499.211 388.452 499.334 388.134 499.475 387.847C499.848 386.645 500.153 385.633 500.39 384.811C500.656 383.957 500.923 383.119 501.191 382.295C501.646 380.871 502.07 379.464 502.464 378.074C502.858 376.684 503.2 375.188 503.489 373.586C503.729 373.418 503.91 373.299 504.031 373.231C504.214 373.159 504.366 373.104 504.489 373.067C505.062 373.317 505.728 373.562 506.488 373.802C507.246 374.011 507.873 374.103 508.37 374.077C508.626 374.219 508.788 374.335 508.855 374.425C508.92 374.484 508.985 374.542 509.051 374.601C509.413 374.987 509.73 375.39 510.001 375.812C510.27 376.202 510.376 376.741 510.319 377.429C510.148 377.718 510.015 377.865 509.922 377.87C509.799 378.499 509.656 379.035 509.493 379.48C509.361 379.922 509.213 380.366 509.049 380.81C508.856 381.287 508.679 381.763 508.517 382.238C508.355 382.713 508.23 383.296 508.142 383.985C508.026 384.147 507.94 384.291 507.885 384.419C507.86 384.544 507.821 384.687 507.767 384.845C507.713 385.003 507.644 385.178 507.561 385.369C507.507 385.528 507.406 385.673 507.257 385.805C507.206 386.617 507.085 387.277 506.894 387.785C506.734 388.291 506.558 388.798 506.367 389.306C506.042 390.226 505.747 391.144 505.484 392.06C505.252 392.975 505.135 394.008 505.133 395.159C505.285 395.089 505.423 395.051 505.547 395.044C505.702 395.036 505.842 395.029 505.966 395.022C506.246 395.008 506.574 395.037 506.951 395.111C507.856 394.565 508.849 394.218 509.931 394.068C511.043 393.916 512.142 393.796 513.226 393.708C513.661 393.685 514.095 393.663 514.53 393.64C514.964 393.617 515.366 393.565 515.735 393.483C516.023 393.624 516.198 393.708 516.262 393.736C516.355 393.731 516.479 393.724 516.634 393.716C516.852 393.705 517.039 393.711 517.195 393.734C517.586 394.055 517.956 394.285 518.305 394.422C518.655 394.56 519.019 394.681 519.398 394.785C519.746 394.891 520.079 395.014 520.397 395.153C520.745 395.259 521.081 395.428 521.404 395.66L521.835 397.645C522.067 397.913 522.17 398.094 522.144 398.189C522.157 398.437 522.104 398.627 521.987 398.757L522.107 399.265C521.646 399.382 521.326 399.508 521.146 399.642C520.997 399.774 520.85 399.922 520.703 400.085C520.456 400.129 520.27 400.154 520.146 400.161C520.053 400.166 519.96 400.171 519.867 400.176C519.433 400.198 518.909 400.304 518.296 400.491C517.444 400.256 516.568 400.162 515.668 400.209C515.326 400.227 514.97 400.261 514.599 400.312C514.228 400.362 513.858 400.413 513.487 400.463C513.118 400.545 512.732 400.612 512.33 400.664C511.96 400.714 511.572 400.75 511.169 400.771L510.113 401.107Z" fill="white"/>
<path d="M540.774 399.5C539.92 399.825 538.988 400.154 537.979 400.487C536.969 400.82 535.952 401.013 534.928 401.067C533.376 401.148 532.13 400.824 531.189 400.096C531.016 399.762 530.864 399.537 530.734 399.419C530.634 399.3 530.535 399.181 530.435 399.062C530.365 398.91 530.308 398.71 530.264 398.464C529.868 398.049 529.548 397.568 529.301 397.02C529.053 396.442 528.867 395.861 528.743 395.276C528.648 394.658 528.6 394.038 528.599 393.416C528.628 392.792 528.706 392.197 528.832 391.63C528.887 391.503 528.912 391.377 528.905 391.253C528.93 391.127 528.954 390.986 528.977 390.829C529.075 390.326 529.174 389.838 529.273 389.366C529.404 388.893 529.585 388.478 529.815 388.124C529.676 387.851 529.66 387.541 529.766 387.193C529.873 386.845 529.996 386.527 530.136 386.24C530.509 385.038 530.814 384.026 531.051 383.205C531.317 382.35 531.585 381.512 531.853 380.688C532.307 379.264 532.731 377.857 533.125 376.467C533.519 375.077 533.861 373.581 534.15 371.979C534.391 371.811 534.571 371.692 534.692 371.624C534.875 371.552 535.028 371.497 535.15 371.46C535.724 371.71 536.39 371.955 537.149 372.195C537.907 372.404 538.534 372.496 539.031 372.47C539.287 372.612 539.449 372.728 539.516 372.818C539.581 372.877 539.647 372.936 539.712 372.994C540.075 373.38 540.391 373.783 540.662 374.205C540.932 374.595 541.038 375.134 540.981 375.822C540.809 376.111 540.677 376.258 540.584 376.263C540.461 376.892 540.318 377.428 540.154 377.873C540.022 378.315 539.874 378.759 539.711 379.203C539.518 379.68 539.34 380.156 539.179 380.631C539.017 381.107 538.892 381.689 538.803 382.378C538.687 382.54 538.602 382.684 538.546 382.812C538.521 382.938 538.482 383.08 538.428 383.238C538.374 383.396 538.306 383.571 538.222 383.762C538.168 383.921 538.067 384.066 537.918 384.198C537.868 385.01 537.747 385.67 537.555 386.178C537.395 386.684 537.22 387.191 537.028 387.699C536.703 388.619 536.409 389.537 536.146 390.453C535.914 391.368 535.796 392.401 535.795 393.552C535.947 393.482 536.085 393.444 536.209 393.437C536.364 393.429 536.504 393.422 536.628 393.415C536.907 393.401 537.235 393.43 537.613 393.504C538.518 392.958 539.511 392.611 540.592 392.461C541.705 392.309 542.803 392.189 543.888 392.101C544.322 392.079 544.757 392.056 545.191 392.033C545.626 392.01 546.027 391.958 546.397 391.876C546.684 392.017 546.86 392.101 546.923 392.129C547.016 392.124 547.141 392.118 547.296 392.109C547.513 392.098 547.7 392.104 547.857 392.127C548.247 392.449 548.617 392.678 548.967 392.815C549.316 392.953 549.68 393.074 550.059 393.178C550.407 393.285 550.74 393.407 551.059 393.546C551.407 393.652 551.742 393.821 552.066 394.053L552.496 396.038C552.728 396.306 552.831 396.487 552.805 396.582C552.818 396.83 552.766 397.02 552.648 397.15L552.768 397.658C552.307 397.775 551.987 397.901 551.808 398.035C551.659 398.167 551.511 398.315 551.364 398.478C551.117 398.522 550.932 398.547 550.808 398.554C550.715 398.559 550.622 398.564 550.528 398.569C550.094 398.591 549.57 398.697 548.958 398.884C548.105 398.649 547.229 398.555 546.329 398.602C545.988 398.62 545.631 398.654 545.261 398.705C544.89 398.755 544.519 398.806 544.148 398.856C543.779 398.938 543.394 399.005 542.992 399.057C542.621 399.108 542.234 399.143 541.83 399.165L540.774 399.5Z" fill="white"/>
</svg>
