<svg width="136" height="75" viewBox="0 0 136 75" fill="none" xmlns="http://www.w3.org/2000/svg">
<g clip-path="url(#clip0_491_347)">
<path d="M29.3221 29.3911L23.6312 61.3091L23.6174 62.4453H27.9571L29.0538 55.5137H33.713L34.8078 62.4453H39.392L33.5572 29.3911H29.3221ZM29.6969 51.2648L31.3854 40.8832L33.062 51.2648H29.6969Z" fill="white"/>
<path d="M39.8634 33.7188H44.7238V62.4452H49.2903V33.7188H54.1092V29.4719H39.8634V33.7188Z" fill="white"/>
<path d="M70.6451 29.4719L66.2069 47.2585L61.7706 29.4719H57.6006V62.4452H62.0073V47.3117L65.2364 59.5179H67.1774L70.4084 47.3137V62.4452H74.8151V29.4719H70.6451Z" fill="white"/>
<path d="M85.0172 60.5043C85.0651 60.4284 85.1171 60.3553 85.1731 60.2853L85.3072 60.1768L85.3822 60.0624C85.4534 59.9586 85.5192 59.8513 85.5794 59.7409C85.6376 59.6156 85.7249 59.5061 85.8339 59.4213L85.8556 59.4075L85.9345 59.1905C86.039 59.0564 86.0588 59.0071 86.0627 58.9775C86.0666 58.9479 86.0627 58.9518 86.1396 58.8907C86.2297 58.8018 86.3061 58.7001 86.3665 58.5889C86.4395 58.4666 86.5243 58.3344 86.615 58.1944H86.6998L86.7531 58.1273L86.7669 58.0977C86.7989 57.9609 86.8831 57.8419 87.0016 57.7663C87.1478 57.6636 87.2741 57.5353 87.3745 57.3876C87.4632 57.2589 87.5621 57.1375 87.6703 57.0247C87.7615 56.9378 87.8428 56.8412 87.913 56.7367C87.9429 56.6858 87.9772 56.6376 88.0155 56.5927L88.0392 56.569V56.5118H88.1122L88.1871 56.4467C88.2752 56.349 88.3875 56.2762 88.5126 56.2356C88.6294 56.2037 88.742 56.158 88.848 56.0995L88.9505 56.1094C89.0728 56.1094 89.201 55.9831 89.345 55.7366C89.4773 55.5456 89.5462 55.3179 89.5423 55.0856L89.5028 54.77C89.4841 54.6206 89.4373 54.476 89.3648 54.344C89.274 54.1585 89.1675 54.0579 89.059 54.0362C88.9999 54.0293 88.9422 54.014 88.8874 53.9909C88.8304 53.9685 88.7689 53.9597 88.7079 53.9652C88.6188 53.9754 88.5321 54.0008 88.4515 54.0402L88.27 54.0165C88.195 54.0165 88.055 54.0639 87.6782 54.3893C87.6346 54.4504 87.5797 54.5026 87.5165 54.5432C87.4395 54.5945 87.2837 54.7168 87.0391 54.9199L87.0076 54.9476L87.0391 55.1448L86.9937 55.1843H86.7827H86.7669C86.69 55.2198 86.6505 55.3164 86.6387 55.494C86.4663 55.609 86.3165 55.7548 86.1968 55.924C86.1258 56.0463 86.0528 56.1607 85.9877 56.2554C85.6287 56.6361 85.5932 56.7564 85.5932 56.8274C85.5909 56.8633 85.5811 56.8984 85.5645 56.9303C85.5479 56.9623 85.5247 56.9904 85.4966 57.0128C85.392 57.1174 85.3447 57.2002 85.3506 57.2771C85.3558 57.3137 85.3711 57.348 85.3948 57.3762C85.4185 57.4045 85.4497 57.4255 85.4847 57.4369C85.4847 57.4507 85.4847 57.4566 85.4847 57.4566H85.2382L85.2145 57.4862C85.1807 57.523 85.1438 57.5566 85.104 57.5868H85.0153L85.0764 57.7841C85.0566 57.7997 85.0355 57.8136 85.0133 57.8255C84.9687 57.853 84.9325 57.8922 84.9085 57.9388C84.8845 57.9853 84.8737 58.0376 84.8772 58.0898C84.7766 58.222 84.7569 58.2713 84.7608 58.3127V58.3936C84.7404 58.3841 84.7182 58.3794 84.6957 58.3798C84.6484 58.3798 84.6227 58.3798 84.2913 58.8887C83.96 59.3976 83.9718 59.4312 83.9738 59.4667C83.976 59.5038 83.9898 59.5393 84.0131 59.5683C84.0364 59.5973 84.0682 59.6183 84.1039 59.6284C83.9903 59.6603 83.8908 59.7299 83.8219 59.8257C83.7509 59.8257 83.6522 59.875 83.599 60.0624C83.5274 60.2554 83.4313 60.4384 83.313 60.6068C83.1843 60.7953 83.079 60.9986 82.9993 61.2124C82.9448 61.3769 82.8714 61.5344 82.7804 61.6819C82.6696 61.8539 82.6132 62.0553 82.6186 62.2598C82.6186 62.2756 82.6217 62.2913 82.6278 62.3058C82.6339 62.3204 82.6428 62.3336 82.6541 62.3446L82.6877 62.3683C82.7062 62.3824 82.7216 62.4002 82.7328 62.4206C82.744 62.441 82.7508 62.4635 82.7527 62.4867C82.7302 62.4612 82.7015 62.4421 82.6693 62.431C82.6372 62.4199 82.6027 62.4174 82.5693 62.4235C82.4766 62.4235 82.4312 62.536 82.4056 62.6208C82.3617 62.7467 82.3089 62.8693 82.2478 62.9877C82.0866 63.118 81.9831 63.3065 81.9598 63.5124L81.6915 63.9799L81.2497 64.9484C81.1748 65.1171 81.0728 65.2723 80.9479 65.408C80.8998 65.438 80.8591 65.4784 80.8287 65.5262C80.7983 65.574 80.7791 65.628 80.7723 65.6842C80.7427 65.8203 80.7052 65.8637 80.6855 65.8814C80.6149 65.9359 80.5547 66.0027 80.508 66.0787C80.4808 66.125 80.4437 66.1647 80.3995 66.1951C80.3929 66.1229 80.3823 66.0511 80.3679 65.9801C80.384 65.9304 80.3914 65.8784 80.3896 65.8262L80.362 65.6802V65.552C80.3633 65.4843 80.3774 65.4173 80.4034 65.3548C80.4446 65.2269 80.4698 65.0944 80.4784 64.9603C80.4795 64.8692 80.4941 64.7788 80.5218 64.692L80.5829 64.5539L80.5632 64.2699L80.7112 63.8931L80.7427 63.6505C80.8236 63.4256 80.8808 63.256 80.9124 63.1416L81.2201 61.9363C81.2863 61.7934 81.3148 61.6358 81.3029 61.4787C81.3029 61.4787 81.3029 61.4531 81.3877 61.3998C81.4726 61.3465 81.5515 61.1591 81.585 60.8514L81.6955 60.6108C81.8099 60.4411 81.8138 60.4135 81.8118 60.3977C81.8379 60.1675 81.9161 59.9462 82.0407 59.7507L82.1985 59.3898C82.2527 59.2984 82.2851 59.1958 82.2931 59.0899L82.3622 58.9223V58.9045C82.3707 58.8201 82.3962 58.7382 82.4371 58.6639C82.4825 58.5889 82.5831 58.3877 82.735 58.0603C82.948 57.6085 82.9697 57.4783 82.9638 57.4152C82.966 57.3956 82.966 57.3757 82.9638 57.356C83.1078 57.2397 83.1611 56.9911 83.1354 56.6006C83.135 56.475 83.1009 56.3519 83.0367 56.244C82.9725 56.1361 82.8806 56.0474 82.7705 55.9871C82.5318 55.8608 82.4036 55.8273 82.3247 55.8727L80.4784 56.9181C80.3571 56.9614 80.25 57.0372 80.1687 57.1371L80.0858 57.2042C79.9242 57.2815 79.7845 57.3982 79.6795 57.5434C79.5789 57.6874 79.5059 57.7407 79.4625 57.7407C79.3454 57.7873 79.2512 57.8779 79.2002 57.9932C79.1311 58.1155 79.0779 58.153 79.0443 58.1609H79.0226L79.0088 58.1766C78.8946 58.2859 78.7981 58.4124 78.7228 58.5514C78.6067 58.6225 78.5034 58.7125 78.4171 58.8177L78.204 59.0584C77.8924 59.3898 77.7464 59.6403 77.7582 59.8198C77.7571 60.016 77.8272 60.2059 77.9555 60.3543C78.0229 60.4162 78.103 60.4624 78.1903 60.4897C78.2776 60.5169 78.3699 60.5246 78.4605 60.5121C78.5973 60.5087 78.7277 60.453 78.8249 60.3566C78.9221 60.2602 78.9787 60.1302 78.9832 59.9934C78.999 59.8268 79.0287 59.6618 79.072 59.5002L79.1883 59.2655C79.2657 59.1256 79.3635 58.998 79.4783 58.8868C79.6262 58.7309 79.8255 58.5356 80.0839 58.295L80.3226 58.0524L80.3344 58.0366C80.4981 57.7466 80.5889 57.719 80.6125 57.717L80.8098 57.7032L80.865 57.6145C80.8949 57.5518 80.9381 57.4963 80.9915 57.452C81.045 57.4077 81.1075 57.3757 81.1747 57.358C81.19 57.3772 81.1989 57.4006 81.2003 57.4251C81.2003 57.435 81.1885 57.4823 81.1333 57.6776V57.6953L81.1609 57.8157C81.1511 57.853 81.1336 57.888 81.1096 57.9182L81.0248 58.0721V58.0977C80.9891 58.3437 80.9228 58.5842 80.8275 58.8138C80.7478 58.9661 80.7008 59.1334 80.6895 59.3049L80.7269 59.4055C80.709 59.4167 80.6931 59.4307 80.6796 59.447C80.6251 59.5259 80.6013 59.622 80.6125 59.7172C80.5408 59.7823 80.4828 59.861 80.4418 59.9487C80.4009 60.0364 80.3778 60.1314 80.3738 60.2281L80.4094 60.3326L80.433 60.3445C80.4674 60.3649 80.4992 60.3894 80.5277 60.4175C80.5277 60.4175 80.504 60.4392 80.3936 60.447C80.3147 60.447 80.293 60.5437 80.2752 60.6542C80.2358 60.8002 80.1767 60.9402 80.0997 61.0704C80.0082 61.2284 79.9454 61.4014 79.9142 61.5813C79.9138 61.6577 79.8912 61.7324 79.8491 61.7963C79.7922 61.8684 79.7641 61.9591 79.7702 62.0507C79.7718 62.1179 79.7611 62.1847 79.7387 62.248C79.7095 62.3192 79.6974 62.3962 79.7032 62.4729C79.7055 62.5067 79.7101 62.5403 79.717 62.5735C79.662 62.5941 79.6157 62.6329 79.5859 62.6835C79.5561 62.7342 79.5446 62.7935 79.5533 62.8516L79.5888 63.1199C79.5888 63.1317 79.573 63.1633 79.5039 63.2067L79.4803 63.2205V63.2441C79.4404 63.3347 79.4215 63.4332 79.425 63.5321L79.4665 63.6584C79.4674 63.7394 79.4582 63.8203 79.4389 63.899C79.3728 64.0292 79.3493 64.1769 79.3718 64.3211C79.3718 64.3409 79.3521 64.3665 79.3382 64.3784C79.3102 64.4025 79.2882 64.433 79.2741 64.4673C79.2601 64.5016 79.2543 64.5387 79.2574 64.5756C79.263 64.634 79.2841 64.6899 79.3185 64.7374C79.3481 64.7808 79.3521 64.7946 79.3521 64.7867C79.3206 64.9681 79.3001 65.1512 79.2909 65.335C79.3294 65.6756 79.4199 66.0082 79.5592 66.3213C79.7268 66.7356 79.8728 66.9545 80.0168 67.0137H80.0286L80.0543 67.0393C80.1139 67.0946 80.1802 67.1423 80.2515 67.1814L80.5731 67.3905L80.6106 67.3727C80.6496 67.3575 80.691 67.3495 80.7328 67.349C80.8663 67.3368 80.9949 67.2933 81.1084 67.222C81.2218 67.1507 81.3169 67.0536 81.3858 66.9387C81.5554 66.9131 81.583 66.8105 81.5949 66.7415C81.6017 66.6737 81.6292 66.6096 81.6738 66.558L81.871 66.2405V66.2148C81.8591 66.142 81.8731 66.0673 81.9105 66.0037C81.9206 65.9924 81.9331 65.9833 81.947 65.9772C81.961 65.9711 81.9761 65.968 81.9913 65.9682H82.0308L82.6502 64.8971L82.9125 64.3054C83.1512 63.901 83.2005 63.83 83.2084 63.8201L83.2341 63.7945V63.6465L83.2617 63.5558C83.2998 63.5369 83.3327 63.5091 83.3578 63.4748C83.3829 63.4405 83.3993 63.4006 83.4057 63.3585C83.4117 63.3051 83.4314 63.2542 83.4629 63.2106C83.5031 63.1721 83.537 63.1275 83.5635 63.0784L83.5832 63.037L83.5733 63.0252C83.5892 63.0002 83.607 62.9764 83.6266 62.9542C83.715 62.8494 83.796 62.7387 83.8692 62.6228L83.885 62.605V62.5794C83.8885 62.5422 83.8944 62.5053 83.9028 62.4689L83.958 62.4137C83.9935 62.392 84.0172 62.3249 84.0823 62.0961C84.1311 62.0683 84.1737 62.0309 84.2076 61.9862C84.2415 61.9414 84.266 61.8902 84.2795 61.8357C84.2918 61.7649 84.3194 61.6976 84.3604 61.6385L84.4097 61.5418C84.4353 61.4807 84.4531 61.4452 84.463 61.4254H84.5912C84.6918 61.4254 84.7292 61.2893 84.7569 61.098C84.7616 60.9923 84.792 60.8894 84.8456 60.7982C84.9 60.7715 84.9452 60.7294 84.9758 60.6771C85.0063 60.6248 85.0207 60.5647 85.0172 60.5043ZM84.2085 59.66C84.2203 59.66 84.2223 59.6758 84.2243 59.6758L84.2085 59.66Z" fill="white"/>
<path d="M90.4476 62.2836V62.2678C90.3451 62.1179 90.2662 61.9975 90.2129 61.9068L90.1991 61.8812H90.1715C90.1215 61.8674 90.0727 61.8496 90.0255 61.8279C90.0413 61.7944 90.0729 61.7293 90.136 61.6109L90.1458 61.5912V61.5695C90.1495 61.4804 90.1293 61.3919 90.0874 61.3132C90.0454 61.2344 89.9832 61.1683 89.9072 61.1217C89.7927 61.059 89.6725 61.0075 89.5482 60.9679C89.416 60.9284 89.3884 60.9126 89.3923 60.9166L89.3746 60.9028C89.2576 60.8525 89.1351 60.8161 89.0097 60.7943L88.7335 60.7114H88.7197C88.639 60.7235 88.5632 60.7576 88.5007 60.8101C88.4404 60.8569 88.3741 60.8954 88.3035 60.9245L88.0766 61.0191C88.0253 61.0453 87.97 61.0627 87.9129 61.0704C87.6425 61.1268 87.3883 61.2435 87.1693 61.4117C86.9474 61.536 86.7475 61.696 86.5775 61.8851C86.5148 61.9744 86.4269 62.0431 86.325 62.0824C86.2009 62.1316 86.0877 62.2046 85.9916 62.2974L85.9759 62.3191C85.9594 62.3704 85.9322 62.4177 85.8962 62.4578C85.8602 62.4979 85.816 62.5299 85.7668 62.5518L85.7411 62.5656C85.5957 62.6798 85.4738 62.8212 85.3821 62.9818C85.3562 63.0526 85.3039 63.1105 85.2361 63.1436C85.1071 63.2122 85.007 63.3249 84.9541 63.4612C84.8337 63.69 84.8219 63.7709 84.8298 63.834L84.8969 64.0628V64.2344C84.8972 64.2621 84.9033 64.2894 84.9149 64.3145C84.9264 64.3397 84.9431 64.3621 84.9639 64.3804C84.9892 64.4007 85.0183 64.4155 85.0495 64.424C85.0808 64.4325 85.1134 64.4344 85.1454 64.4297C85.2119 64.4246 85.2747 64.397 85.3235 64.3515C85.3722 64.3059 85.404 64.2452 85.4137 64.1792C85.4237 64.1338 85.4362 64.089 85.4512 64.045L85.5064 64.0608H85.5202C85.5675 64.0608 85.6524 64.0312 85.6839 63.8892C85.6852 63.8695 85.6917 63.8506 85.7028 63.8343C85.7139 63.818 85.7292 63.8049 85.747 63.7965C85.8012 63.773 85.8477 63.7347 85.8812 63.686L85.7332 64.4435V64.4534L85.753 64.7591C85.7398 64.8067 85.7205 64.8525 85.6958 64.8952L85.6741 64.9209L85.7115 65.1536V65.3509V65.3884C85.7379 65.5686 85.8003 65.7417 85.895 65.8973C85.9736 66.0653 86.0897 66.2131 86.2343 66.3293L86.3566 66.4318C86.4002 66.492 86.4577 66.5407 86.5242 66.5739C86.5895 66.6113 86.6471 66.6608 86.6939 66.7198C86.7236 66.7605 86.7613 66.7946 86.8047 66.8201C86.8482 66.8455 86.8964 66.8618 86.9464 66.8678C86.9956 66.8721 87.0417 66.8938 87.0765 66.9289C87.1285 66.9833 87.1988 67.0164 87.2738 67.0216H87.2876C87.3452 67.0114 87.3998 66.9885 87.4474 66.9546H87.5756C87.7181 66.9646 87.8591 66.9202 87.9701 66.8303C88.003 66.7913 88.0496 66.7666 88.1003 66.7613C88.1971 66.7413 88.2886 66.701 88.3686 66.6429C88.435 66.5979 88.5057 66.5596 88.5796 66.5285C88.6926 66.4701 88.7947 66.3927 88.8814 66.2997L88.9485 66.3095C89.0136 66.3095 89.0767 66.2425 89.1753 66.0866C89.274 65.9308 89.3154 65.9308 89.3174 65.9288C89.3246 65.9324 89.3313 65.937 89.3371 65.9426L89.3923 65.9979L89.8223 65.5166C89.8703 65.486 89.9091 65.4431 89.9348 65.3923C89.9539 65.3599 89.9794 65.3317 90.0097 65.3095C90.0407 65.2826 90.0658 65.2497 90.0835 65.2127C90.1011 65.1757 90.1109 65.1354 90.1123 65.0945C90.1175 65.0389 90.1387 64.9862 90.1735 64.9426C90.2286 64.8669 90.27 64.7821 90.2958 64.692C90.3372 64.5658 90.351 64.5362 90.353 64.5303L90.4003 64.4475V64.4277C90.4076 64.4036 90.4229 64.3828 90.4437 64.3686C90.4752 64.341 90.5008 64.3074 90.5191 64.2698C90.5374 64.2322 90.548 64.1913 90.5502 64.1496L90.6035 63.8557L90.564 63.6683C90.5837 63.6368 90.6062 63.6071 90.6311 63.5795L90.6449 63.5637L90.6627 63.4434L90.5877 62.6544L90.4476 62.2836ZM89.2858 64.1082C89.2858 64.1851 89.2858 64.2048 89.27 64.2186L89.2069 64.3409V64.3607C89.197 64.4348 89.1639 64.5038 89.1122 64.5579C89.0351 64.6383 88.9766 64.7346 88.9406 64.84C88.8993 64.9399 88.8266 65.0236 88.7335 65.0787C88.6735 65.1151 88.6238 65.1664 88.5893 65.2275C88.5548 65.2886 88.5365 65.3576 88.5362 65.4278H88.4514C88.3942 65.4278 88.3686 65.4752 88.3133 65.6251C88.2995 65.6665 88.268 65.7316 88.2265 65.7355C88.1065 65.7628 88.0006 65.8329 87.9287 65.9328C87.8297 66.0319 87.6959 66.0885 87.5559 66.0906C87.4766 66.092 87.3974 66.086 87.3192 66.0728L87.26 66.0531H87.1535L87.1121 65.8756L87.0055 65.5738V65.2365L87.0332 65.0984V65.0945C87.0213 65.0337 86.9902 64.9783 86.9444 64.9366C86.9108 64.8992 86.897 64.8814 86.8951 64.8814C86.8947 64.8621 86.8994 64.8429 86.9088 64.826C86.9181 64.809 86.9318 64.7948 86.9483 64.7848C87.0064 64.7432 87.0521 64.6866 87.0805 64.621V64.6053V64.5895C87.0824 64.4662 87.105 64.3442 87.1476 64.2285L87.2699 63.7926C87.3567 63.6782 87.4237 63.5953 87.4671 63.5085L87.546 63.3862C87.5982 63.3406 87.6406 63.285 87.6708 63.2226C87.701 63.1603 87.7182 63.0925 87.7216 63.0233L87.7827 62.9463C87.8358 62.938 87.8865 62.9181 87.9311 62.8881C87.9758 62.8582 88.0133 62.8188 88.0411 62.7728C88.0632 62.737 88.0876 62.7027 88.1141 62.6702H88.2325L88.2522 62.6504C88.3002 62.592 88.337 62.5251 88.3607 62.4532C88.369 62.4279 88.3809 62.404 88.3962 62.3822C88.4179 62.3822 88.4652 62.4098 88.5658 62.4552L88.5974 62.469L88.6289 62.4532C89.0787 62.2362 89.2069 62.1159 89.2503 62.037L89.3272 61.9975C89.3016 62.0291 89.2621 62.0725 89.201 62.1356C89.135 62.1979 89.0833 62.2736 89.0492 62.3577C89.0152 62.4418 88.9997 62.5322 89.0037 62.6228C88.9984 62.7223 89.0195 62.8215 89.0649 62.9102C89.1102 62.9989 89.1783 63.074 89.2621 63.1278C89.311 63.1493 89.3528 63.1839 89.3831 63.2278C89.4134 63.2717 89.431 63.3231 89.4338 63.3764C89.4376 63.4944 89.431 63.6126 89.414 63.7294L89.2661 64.1082H89.2858Z" fill="white"/>
<path d="M113.422 64.9525C113.202 64.8433 112.957 64.793 112.712 64.8065L112.446 64.844C112.293 64.8471 112.142 64.8717 111.996 64.917L111.686 65.0255C111.588 65.0448 111.495 65.0852 111.414 65.1438C111.385 65.1651 111.356 65.1848 111.325 65.203H111.313C111.279 65.1856 111.241 65.1774 111.203 65.1793C111.181 65.1818 111.16 65.1871 111.14 65.1951L111.278 64.7158C111.323 64.5323 111.363 64.3607 111.392 64.2029C111.402 64.1001 111.438 64.0015 111.497 63.9169C111.528 63.8824 111.552 63.8419 111.567 63.7978C111.583 63.7537 111.589 63.707 111.586 63.6605L111.67 63.4967V63.4612C111.661 63.3187 111.697 63.1768 111.775 63.0569L111.787 63.0411V63.0214C111.805 62.8241 111.807 62.7985 111.807 62.7807V62.7255L111.787 62.6643V62.5973C111.939 62.4671 111.968 62.4 111.964 62.3428L111.933 62.1455C111.982 61.9728 112.01 61.7945 112.016 61.6149C112.152 61.3705 112.21 61.0905 112.183 60.8121L112.167 60.3407C112.155 60.2564 112.125 60.1757 112.079 60.1039C112.033 60.0322 111.973 59.971 111.901 59.9244C111.764 59.807 111.588 59.7449 111.407 59.7504C111.227 59.7559 111.055 59.8285 110.925 59.954C110.843 60.0419 110.75 60.1188 110.649 60.1829C110.579 60.222 110.513 60.2676 110.451 60.319C110.318 60.4607 110.174 60.5925 110.021 60.7135C109.804 60.8989 109.562 61.0922 109.291 61.3052C109 61.6702 108.832 61.755 108.743 61.7609H108.71L108.688 61.7865C108.642 61.8504 108.587 61.9081 108.526 61.9582C108.463 62.004 108.412 62.065 108.378 62.1357C108.327 62.2066 108.26 62.2635 108.181 62.3014L107.885 62.4769L107.737 62.5795C107.689 62.6009 107.645 62.6318 107.609 62.6705C107.572 62.7091 107.544 62.7546 107.526 62.8044L107.329 62.9188C107.278 62.9586 107.224 62.9942 107.167 63.0253L107.078 63.0786C106.992 63.1705 106.88 63.2344 106.757 63.262H106.729C106.729 63.262 106.729 63.262 106.729 63.2443C106.726 63.0994 106.76 62.9562 106.828 62.8281C106.892 62.6935 106.944 62.5535 106.984 62.4099C107.035 62.2564 107.105 62.1099 107.193 61.9739C107.296 61.8147 107.367 61.6363 107.4 61.4492C107.418 61.3115 107.46 61.1779 107.524 61.0547C107.611 60.8439 107.642 60.6143 107.615 60.388C107.587 59.9935 107.394 59.9264 107.22 59.9402C107.104 59.942 106.989 59.9678 106.883 60.016C106.777 60.0642 106.683 60.1337 106.605 60.2203L106.169 60.7036C106.052 60.7888 105.949 60.8905 105.861 61.0054C105.749 61.1415 105.664 61.2441 105.585 61.3171L105.534 61.4551C105.451 61.4946 105.313 61.611 105.027 61.9818L104.942 62.0923C104.755 62.2442 104.674 62.3566 104.68 62.4572C104.683 62.5108 104.697 62.5631 104.721 62.6111V62.6209C104.705 62.6493 104.684 62.6742 104.658 62.6939C104.632 62.7135 104.603 62.7277 104.571 62.7353C104.524 62.7436 104.479 62.7639 104.441 62.7942C104.404 62.8246 104.374 62.8641 104.356 62.9089C104.335 62.9391 104.309 62.9647 104.278 62.9844C104.247 63.0041 104.213 63.0173 104.177 63.0233C104.101 63.0504 104.033 63.0954 103.978 63.1545C103.924 63.2136 103.884 63.285 103.863 63.3626H103.762C103.727 63.368 103.692 63.3808 103.662 63.4001C103.631 63.4195 103.605 63.445 103.585 63.4751L103.526 63.5421C103.469 63.5867 103.43 63.6495 103.415 63.7196L103.368 63.7552C103.266 63.7817 103.173 63.8333 103.096 63.9051C103.014 63.9712 102.946 64.0539 102.898 64.1477L102.847 64.128L102.82 64.1398C102.778 64.1606 102.735 64.1758 102.689 64.1852C102.563 64.1935 102.442 64.2403 102.342 64.3193C102.263 64.3821 102.167 64.4193 102.066 64.4258L101.662 64.5205C101.267 64.5442 101.267 64.3982 101.267 64.343C101.267 64.3252 101.267 64.2621 101.287 64.1457C101.307 64.0293 101.311 63.9485 101.316 63.8755C101.374 63.8309 101.442 63.8029 101.514 63.7946H101.547L101.701 63.5855L101.788 63.5973L101.904 63.4593C101.955 63.451 102 63.4236 102.03 63.3828C102.061 63.3419 102.074 63.2909 102.068 63.2403C102.066 63.2005 102.073 63.1608 102.088 63.1239C102.118 63.1346 102.149 63.1406 102.18 63.1417C102.251 63.1417 102.362 63.0845 102.628 62.7472C102.679 62.7402 102.726 62.7174 102.764 62.682C102.801 62.6466 102.826 62.6004 102.835 62.5499C102.858 62.4728 102.904 62.4042 102.966 62.3527H103.151L103.169 62.3014C103.287 61.972 103.366 61.9503 103.376 61.9424C103.389 61.9602 103.407 61.9741 103.427 61.9824C103.448 61.9908 103.47 61.9933 103.492 61.9897C103.53 61.982 103.567 61.9665 103.599 61.9441C103.63 61.9216 103.657 61.8929 103.678 61.8595C103.715 61.8082 103.76 61.7635 103.812 61.7274C103.895 61.6634 103.968 61.5876 104.029 61.5025C104.204 61.409 104.354 61.2735 104.465 61.108C104.632 60.9189 104.722 60.6739 104.717 60.4215C104.699 60.2711 104.63 60.1316 104.52 60.027C104.469 59.9624 104.403 59.9108 104.329 59.8765C104.254 59.8422 104.172 59.8262 104.09 59.8298C104.01 59.8374 103.93 59.8259 103.855 59.7962C103.795 59.7608 103.727 59.7424 103.658 59.743L103.295 59.7864C103.167 59.7972 103.042 59.8313 102.926 59.887C102.847 59.9273 102.762 59.9546 102.674 59.9678L102.53 59.9382C102.511 59.9411 102.492 59.9481 102.476 59.9586C102.46 59.9692 102.447 59.9831 102.437 59.9994C102.394 60.0616 102.341 60.1157 102.279 60.1592C102.009 60.2631 101.762 60.42 101.553 60.6208L101.468 60.7786C101.388 60.8278 101.321 60.8953 101.273 60.9755C101.224 61.0558 101.195 61.1465 101.188 61.2401C101.188 61.3545 101.143 61.4098 101.04 61.4256H101.015L100.817 61.6228L100.802 61.6485L100.774 61.7195C100.738 61.7002 100.698 61.6913 100.658 61.6938C100.622 61.6938 100.591 61.7195 100.533 61.7826C100.5 61.8187 100.463 61.8499 100.421 61.8753C100.384 61.9005 100.354 61.9348 100.335 61.9749C100.315 62.015 100.306 62.0595 100.308 62.1041C100.297 62.1865 100.26 62.2631 100.202 62.3231H100.182C100.088 62.3231 99.9593 62.4099 99.7364 62.9444C99.6825 62.9689 99.6254 62.9855 99.5668 62.9937H99.5392L99.5234 63.0154C99.4729 63.0955 99.4343 63.1826 99.409 63.2738C99.3926 63.3283 99.3672 63.3796 99.334 63.4257H99.1959L99.1742 63.4514C99.157 63.477 99.1357 63.4996 99.1111 63.5184L99.0737 63.5441V63.5875C99.0844 63.6645 99.0804 63.7428 99.0618 63.8183C99.0618 63.836 99.048 63.8577 99.0362 63.8597H98.9494C98.902 63.8597 98.8567 63.8932 98.8034 63.9623C98.7796 63.9961 98.7458 64.0217 98.7068 64.0353C98.6699 64.0503 98.6365 64.0727 98.6086 64.1013C98.5808 64.1298 98.5591 64.1637 98.545 64.201V64.2187L98.5549 64.3647C98.5549 64.4278 98.5549 64.4475 98.5549 64.4475C98.5266 64.4464 98.4987 64.4411 98.472 64.4317L98.4602 64.4199L98.4247 64.3962H98.3734L98.04 64.631C97.9296 64.7217 97.8822 64.7592 97.8625 64.773L97.6652 64.7513C97.5844 64.7513 97.539 64.6172 97.5153 64.5008L97.4049 64.3055V64.0846C97.3926 64.01 97.3651 63.9389 97.324 63.8755C97.3721 63.67 97.4031 63.4608 97.4167 63.2502L97.3674 63.0135C97.4025 62.9415 97.4303 62.8662 97.4502 62.7886C97.5805 62.8476 97.7215 62.8791 97.8645 62.8813C97.9054 62.8806 97.9457 62.8712 97.9827 62.8537C98.0196 62.8362 98.0525 62.8111 98.079 62.7799C98.1055 62.7487 98.125 62.7123 98.1363 62.673C98.1477 62.6337 98.1505 62.5924 98.1446 62.5519C98.1492 62.475 98.1702 62.4 98.2063 62.3319C98.2424 62.2639 98.2926 62.2044 98.3537 62.1574L98.6377 61.7944L98.6495 61.7688C98.6623 61.7139 98.6836 61.6613 98.7127 61.613L98.7265 61.5952V61.5735C98.7423 61.394 98.8113 61.3762 98.835 61.3605L98.8724 61.3486L98.8823 61.3092C98.8904 61.2641 98.9077 61.2213 98.9332 61.1832C98.9586 61.1452 98.9917 61.1129 99.0303 61.0883L99.0539 61.0744L99.192 60.6898C99.239 60.631 99.2751 60.5641 99.2985 60.4925C99.3211 60.4359 99.3631 60.3891 99.4169 60.3604C99.4823 60.3274 99.5345 60.2732 99.5648 60.2065C99.5996 60.0719 99.6233 59.9347 99.6358 59.7962C99.7364 59.7509 99.8331 59.599 99.9672 59.2774L100.164 58.7804C100.181 58.6694 100.219 58.5628 100.277 58.4667C100.329 58.3963 100.374 58.321 100.411 58.2419L100.478 58.0919C100.58 57.9778 100.648 57.8379 100.675 57.6876C100.689 57.5962 100.727 57.5103 100.786 57.439C100.867 57.3447 100.908 57.2221 100.9 57.0978L100.884 57.0386C100.997 57.0386 101.04 56.8729 101.068 56.719C101.086 56.587 101.131 56.4601 101.2 56.3462C101.254 56.2756 101.296 56.1962 101.324 56.1115V56.0898C101.305 55.8334 101.348 55.7288 101.395 55.717L101.433 55.7071L101.447 55.6716C101.471 55.5529 101.476 55.431 101.462 55.3106L101.484 55.2909C101.555 55.2909 101.6 55.2515 101.681 54.6991L101.707 54.6301C101.787 54.5367 101.829 54.4174 101.827 54.2948C101.818 54.1711 101.784 54.0506 101.727 53.9405C101.67 53.8304 101.591 53.7328 101.496 53.6537C101.409 53.5687 101.305 53.5028 101.191 53.4604C101.076 53.4179 100.955 53.3998 100.833 53.4071C100.742 53.4126 100.653 53.4332 100.569 53.4683L100.516 53.488C100.451 53.5165 100.39 53.5522 100.334 53.5945L100.241 53.6754C100.164 53.7309 100.102 53.806 100.063 53.8929C100.024 53.9799 100.009 54.0756 100.019 54.1705L99.9475 54.1981L99.9218 54.2159C99.8504 54.288 99.7686 54.3492 99.6792 54.3973L99.6595 54.4072L99.6496 54.4269C99.5489 54.578 99.4817 54.7488 99.4524 54.928L99.3044 55.0818L99.2906 55.1015C99.2559 55.1839 99.1957 55.253 99.119 55.2988L99.0934 55.3106V55.3363C99.0578 55.4292 99.0169 55.5201 98.9711 55.6085L98.9178 55.7387L98.7028 56.0563L98.6929 56.078C98.6456 56.2535 98.6101 56.3679 98.5864 56.4271C98.5827 56.4395 98.5774 56.4515 98.5706 56.4626L98.5963 56.4882H98.5411V56.6658C98.5158 56.7189 98.496 56.7744 98.4819 56.8315L98.328 56.8611L98.3103 56.8907C98.2362 57.0183 98.1804 57.1558 98.1446 57.299C98.0217 57.4273 97.9294 57.5817 97.8743 57.7507C97.7863 57.8156 97.718 57.9037 97.6771 58.0051L97.5252 58.4312L97.2451 59.0467L97.255 59.0743C97.2714 59.1188 97.2852 59.1642 97.2964 59.2104L97.2017 59.238L97.1879 59.2715C97.1386 59.3919 97.0991 59.4846 97.0715 59.5497C97.0439 59.6148 97.0084 59.6877 96.965 59.7726C96.9346 59.8289 96.9089 59.8876 96.8881 59.9481L96.6553 60.7549L96.5231 61.3624C96.4949 61.5018 96.4429 61.6353 96.3693 61.7569C96.3169 61.8417 96.2858 61.9377 96.2785 62.0371C96.2398 62.0541 96.2059 62.0805 96.1799 62.114C96.1467 62.1503 96.1089 62.1821 96.0675 62.2087C96.0308 62.2337 96.0013 62.2676 95.9816 62.3074C95.9619 62.3471 95.9527 62.3912 95.955 62.4355C95.9439 62.5186 95.9066 62.596 95.8485 62.6564H95.8288C95.7341 62.6564 95.6059 62.7413 95.383 63.2758C95.3293 63.3013 95.2722 63.3186 95.2134 63.3271H95.1877L95.17 63.3488C95.1189 63.4286 95.0804 63.5158 95.0556 63.6072C95.0391 63.6616 95.0138 63.713 94.9806 63.7591L94.8425 63.769L94.8208 63.7946C94.8035 63.8202 94.7822 63.8429 94.7577 63.8617L94.7202 63.8853V63.9307C94.7295 64.0078 94.7249 64.086 94.7064 64.1615C94.7064 64.1792 94.6926 64.201 94.6808 64.201H94.594C94.5637 64.2072 94.535 64.2197 94.5099 64.2377C94.4847 64.2557 94.4637 64.2788 94.448 64.3055C94.4242 64.3394 94.3904 64.3649 94.3513 64.3785C94.3141 64.393 94.2804 64.4153 94.2525 64.4438C94.2246 64.4724 94.2032 64.5066 94.1896 64.5442V64.56L94.1995 64.7059C94.2069 64.733 94.2069 64.7617 94.1995 64.7888C94.1704 64.7895 94.1415 64.7841 94.1146 64.773L94.1048 64.7631L94.0693 64.7395H94.018L93.6846 64.9722C93.5742 65.0649 93.5268 65.1004 93.5071 65.1162L93.3098 65.0925C93.227 65.0925 93.1836 64.9584 93.1599 64.842L93.0988 64.5994V64.3785C93.0861 64.3047 93.0586 64.2342 93.0179 64.1714C93.067 63.9654 93.0981 63.7555 93.1106 63.5441L93.0613 63.3074C93.0965 63.2361 93.1242 63.1614 93.1441 63.0845C93.2739 63.1451 93.4152 63.1767 93.5584 63.1772C93.5992 63.1762 93.6393 63.1666 93.6761 63.149C93.713 63.1314 93.7457 63.1062 93.7721 63.0752C93.7986 63.0441 93.8181 63.0077 93.8296 62.9685C93.841 62.9294 93.844 62.8882 93.8385 62.8478C93.8432 62.7709 93.8643 62.696 93.9004 62.6279C93.9364 62.5599 93.9866 62.5003 94.0476 62.4533L94.3316 62.0883L94.3435 62.0647C94.3571 62.0094 94.3783 61.9563 94.4066 61.9069L94.4204 61.8911V61.8674C94.4362 61.6899 94.5052 61.6702 94.5289 61.6564L94.5664 61.6425L94.5762 61.6051C94.5836 61.5595 94.6005 61.5161 94.6261 61.4776C94.6516 61.4392 94.685 61.4066 94.7242 61.3822L94.7478 61.3684L94.8859 60.9837C94.9328 60.9248 94.9689 60.858 94.9924 60.7865C95.0089 60.728 95.0461 60.6775 95.097 60.6444C95.1629 60.6113 95.2152 60.5562 95.2449 60.4886C95.2802 60.3548 95.304 60.2182 95.3159 60.0803C95.4165 60.0349 95.5132 59.883 95.6473 59.5615L95.8446 59.0644C95.8609 58.9535 95.8992 58.8469 95.957 58.7508C96.0086 58.6794 96.0535 58.6035 96.0911 58.5239L96.1582 58.376C96.2597 58.2618 96.328 58.1219 96.3555 57.9716C96.3689 57.8796 96.4071 57.793 96.4659 57.7211C96.5064 57.6748 96.5373 57.6211 96.5569 57.5628C96.5765 57.5046 96.5845 57.4431 96.5803 57.3818L96.5646 57.3226C96.677 57.3226 96.7184 57.1648 96.748 57.0031C96.7656 56.8703 96.8106 56.7427 96.8802 56.6283C96.9335 56.5577 96.9754 56.4791 97.0044 56.3955V56.3738C96.9867 56.1174 97.0301 56.0129 97.0774 56.001L97.1149 55.9912L97.1287 55.9537C97.1511 55.8354 97.1558 55.7144 97.1425 55.5947L97.1662 55.573C97.2372 55.573 97.2826 55.5355 97.3634 54.9812L97.3891 54.9102C97.4688 54.8176 97.5116 54.699 97.5094 54.5768C97.4995 54.453 97.4652 54.3324 97.4083 54.222C97.3514 54.1116 97.2731 54.0137 97.178 53.9338C97.0902 53.8497 96.9861 53.7846 96.8721 53.7425C96.7581 53.7005 96.6366 53.6823 96.5152 53.6892C96.4241 53.6927 96.3344 53.7135 96.2509 53.7503L96.1977 53.7701C96.1331 53.7973 96.0721 53.8324 96.0162 53.8746L95.9235 53.9555C95.8459 54.0115 95.7845 54.0869 95.7454 54.1741C95.7063 54.2614 95.6908 54.3574 95.7006 54.4526L95.6296 54.4802L95.6039 54.496C95.5329 54.5686 95.451 54.6298 95.3613 54.6774L95.3416 54.6893L95.3317 54.709C95.2307 54.8599 95.1635 55.0308 95.1345 55.21L94.9865 55.3639L94.9727 55.3836C94.9383 55.4662 94.8781 55.5354 94.8011 55.5809L94.7754 55.5947L94.7656 55.6203C94.6985 55.7821 94.665 55.8531 94.6453 55.8906L94.59 56.0208L94.375 56.3403L94.3632 56.362C94.3178 56.5316 94.2823 56.65 94.2586 56.7111C94.2549 56.7236 94.2496 56.7355 94.2429 56.7467L94.2685 56.7723H94.2133V56.9518C94.1877 57.0048 94.1679 57.0603 94.1541 57.1175L94.0002 57.1451L93.9825 57.1767C93.9084 57.3044 93.8526 57.4418 93.8168 57.585C93.6935 57.713 93.6011 57.8675 93.5465 58.0367C93.4578 58.1009 93.3893 58.1892 93.3493 58.2912L93.1974 58.7172L92.9173 59.3307V59.3583C92.9334 59.4029 92.9473 59.4484 92.9587 59.4944C92.9596 59.4983 92.9596 59.5024 92.9587 59.5063L92.864 59.5339L92.8502 59.5674C92.8009 59.6877 92.7615 59.7804 92.7338 59.8436C92.7062 59.9067 92.6707 59.9816 92.6273 60.0684C92.5959 60.1236 92.5701 60.1817 92.5504 60.242L92.3137 61.0488L92.1815 61.6564C92.153 61.7956 92.101 61.929 92.0277 62.0509C91.9467 62.1766 91.9112 62.3263 91.9271 62.475C91.938 62.5342 91.958 62.5914 91.9862 62.6446C91.9764 62.6742 91.9606 62.7255 91.935 62.8182L91.8797 63.12C91.8421 63.2181 91.8182 63.321 91.8087 63.4257C91.8175 63.5233 91.8408 63.6191 91.8778 63.7098C91.8718 63.78 91.8718 63.8506 91.8778 63.9208V64.0116L91.9606 64.1201H91.933L91.8856 64.1299L91.86 64.2463L91.8738 64.4317L91.8639 64.5619V64.6606C91.8725 64.7861 91.9209 64.9056 92.002 65.0018L92.0987 65.1221C92.1278 65.3617 92.2282 65.5871 92.3867 65.7691C92.5839 66.0019 92.726 66.1124 92.8522 66.0966C92.9112 66.0894 92.969 66.0741 93.0238 66.0512C93.104 66.0877 93.189 66.1122 93.2763 66.1242C93.3233 66.1261 93.3693 66.1389 93.4104 66.1617L93.4578 66.1913L93.4992 66.1538C93.5349 66.1306 93.5771 66.1195 93.6195 66.1222C93.7199 66.1048 93.8123 66.0566 93.8839 65.9841C93.928 65.9932 93.973 65.9972 94.018 65.996C94.0484 65.9907 94.0775 65.9794 94.1036 65.9628C94.1296 65.9462 94.1522 65.9246 94.1699 65.8993C94.1899 65.8702 94.2202 65.8498 94.2547 65.8421C94.2905 65.8333 94.3235 65.8155 94.3505 65.7903C94.3774 65.765 94.3974 65.7333 94.4085 65.6981C94.4372 65.6487 94.4817 65.6105 94.5348 65.5896C94.6222 65.5513 94.6953 65.4864 94.7439 65.4042C94.763 65.3657 94.7942 65.3346 94.8327 65.3154C94.9063 65.2741 94.9634 65.2086 94.9944 65.13L95.17 65.1419V65.1044L95.1857 65.0689C95.233 64.9204 95.3148 64.7852 95.4244 64.6744C95.5405 64.5675 95.6181 64.4254 95.6453 64.27L95.6986 64.2286L95.8702 64.1714L95.882 64.1359C95.9087 64.0391 95.9636 63.9526 96.0399 63.8873C96.1012 63.8371 96.1539 63.7771 96.1957 63.7098L96.2746 63.8143H96.247L96.1996 63.8242L96.174 63.9425L96.1878 64.128V64.2582V64.3548C96.1965 64.4813 96.2456 64.6016 96.3278 64.698C96.387 64.771 96.4127 64.8046 96.4225 64.8184C96.4517 65.0574 96.5521 65.2821 96.7105 65.4634C96.9078 65.6981 97.0538 65.8046 97.1761 65.7928C97.2346 65.7824 97.292 65.7665 97.3477 65.7455C97.4278 65.7825 97.5128 65.8077 97.6001 65.8204C97.6475 65.8225 97.6939 65.8346 97.7363 65.8559L97.7816 65.8855L97.825 65.85C97.8604 65.8261 97.9027 65.8143 97.9453 65.8165C98.0447 65.799 98.1362 65.7515 98.2077 65.6804C98.2519 65.6884 98.2969 65.6917 98.3418 65.6902C98.3724 65.6853 98.4016 65.6742 98.4278 65.6576C98.4539 65.641 98.4763 65.6192 98.4937 65.5936C98.515 65.5657 98.5448 65.5456 98.5785 65.5364C98.6149 65.5295 98.6487 65.5126 98.6759 65.4875C98.7031 65.4623 98.7227 65.4301 98.7324 65.3943C98.7324 65.3687 98.7699 65.3312 98.8586 65.2859C98.9457 65.2462 99.0192 65.1817 99.0697 65.1004C99.088 65.0615 99.1185 65.0297 99.1565 65.0097C99.231 64.9694 99.2885 64.9036 99.3182 64.8243L99.4938 64.8361V64.8006L99.5096 64.7651C99.5563 64.6163 99.6382 64.481 99.7483 64.3706C99.8593 64.269 99.9341 64.134 99.9613 63.9859C99.9623 64.0024 99.9623 64.0188 99.9613 64.0353C99.9579 64.0921 99.9746 64.1484 100.008 64.1942C100.042 64.24 100.091 64.2724 100.147 64.2858C100.195 64.293 100.239 64.3159 100.273 64.3509C100.539 65.0689 100.565 65.0689 100.644 65.061L100.681 65.0511C100.778 65.3174 100.918 65.4456 101.099 65.4456C101.137 65.4614 101.188 65.4871 101.249 65.5206C101.316 65.5604 101.391 65.5828 101.468 65.5857H101.49C101.612 65.5753 101.732 65.5454 101.845 65.4969L101.958 65.4456L101.985 65.4772C102.007 65.5093 102.036 65.5353 102.071 65.5526C102.105 65.5699 102.144 65.5779 102.182 65.5758L102.413 65.5206C102.464 65.5117 102.511 65.4899 102.551 65.4575L103.269 65.1123L103.287 65.1024C103.351 65.04 103.423 64.9857 103.5 64.9407C103.54 64.929 103.576 64.9065 103.605 64.8756C103.673 64.814 103.759 64.7747 103.851 64.7631C103.926 64.7518 103.995 64.7164 104.048 64.6623C104.101 64.6082 104.135 64.5384 104.145 64.4633C104.155 64.4021 104.175 64.3292 104.22 64.3252L104.378 64.3154L104.476 64.2739L104.49 64.2542C104.568 64.1482 104.67 64.0624 104.788 64.0037L104.812 63.982C104.862 63.9091 104.893 63.8251 104.903 63.7374C104.903 63.7019 104.914 63.6881 104.922 63.6822L105.013 63.769H105.047C105.098 63.769 105.143 63.7295 105.194 63.6526C105.246 63.5757 105.275 63.5382 105.333 63.4652L105.553 63.1377V63.1969V63.2186C105.567 63.2581 105.571 63.2738 105.571 63.2738C105.563 63.3207 105.545 63.3656 105.52 63.406C105.455 63.5362 105.451 63.5618 105.453 63.6033L105.536 64.0293C105.536 64.1595 105.646 64.2897 105.847 64.4337C105.969 64.5461 106.124 64.6154 106.289 64.631L106.577 64.5343L106.682 64.5442H106.735C106.784 64.5361 106.83 64.5158 106.868 64.4851C106.907 64.4544 106.937 64.4143 106.956 64.3686C106.991 64.3055 107.029 64.27 107.053 64.266H107.333L107.356 64.2325C107.386 64.1795 107.426 64.133 107.473 64.0957C107.521 64.0585 107.576 64.0312 107.635 64.0155H107.67L107.688 63.982C107.712 63.9453 107.747 63.916 107.786 63.8972L108.266 63.4731C108.386 63.4499 108.497 63.3939 108.587 63.3113C108.642 63.2899 108.691 63.2556 108.731 63.2113C108.77 63.1671 108.798 63.1141 108.812 63.0569C108.852 62.9464 108.889 62.9148 108.899 62.9148C108.93 62.916 108.961 62.9193 108.992 62.9247H109.019L109.333 62.7274V62.6959C109.353 62.613 109.366 62.5637 109.376 62.5341L109.483 62.6052L109.52 62.619H109.572L109.791 62.4395C109.864 62.3931 109.92 62.3238 109.95 62.2422L110.006 62.2264C110.041 62.2264 110.071 62.2047 110.161 62.0943C110.221 62.0213 110.246 62.0134 110.246 62.0134H110.272L110.414 62.043C110.505 62.022 110.585 61.9696 110.641 61.895C110.66 61.8733 110.678 61.8575 110.692 61.8437C110.692 61.899 110.664 61.9897 110.627 62.1377L110.57 62.2402L110.56 62.2698C110.554 62.3527 110.543 62.4351 110.526 62.5164L110.225 63.7591C110.193 63.7819 110.165 63.8092 110.142 63.84L110.128 63.8558V63.8774C110.122 63.9904 110.1 64.102 110.063 64.2088L110.031 64.2838V64.412L110.069 64.5028L110.096 64.629L110.106 64.7434C110.097 64.7544 110.087 64.7638 110.075 64.771C109.986 64.8567 109.929 64.9701 109.913 65.0925C109.892 65.1803 109.866 65.2666 109.834 65.3509L109.818 65.3766L109.862 65.5561L109.69 65.5167V65.6251C109.664 65.7451 109.624 65.8616 109.572 65.9723L109.374 66.1794C109.36 66.1908 109.343 66.1971 109.325 66.1972C109.272 66.1971 109.219 66.2079 109.169 66.229C109.12 66.25 109.076 66.2808 109.039 66.3195C108.986 66.3885 108.959 66.475 108.966 66.5621C108.94 66.5748 108.913 66.5847 108.885 66.5917C108.788 66.6154 108.712 66.714 108.645 66.9014H108.615L108.506 66.9546L108.497 66.9724C108.455 67.0484 108.399 67.1155 108.331 67.1696C108.277 67.2049 108.226 67.2459 108.181 67.292L107.899 67.6588V67.6805C107.899 67.7062 107.883 67.7456 107.812 67.7831C107.747 67.8129 107.689 67.8551 107.64 67.9074L107.615 67.9843C107.561 68.0697 107.516 68.1602 107.481 68.2546C107.441 68.3498 107.379 68.4338 107.299 68.4992C107.248 68.5413 107.207 68.5947 107.179 68.6553C107.152 68.7158 107.139 68.7819 107.141 68.8483C107.115 68.8865 107.093 68.9275 107.076 68.9706C107.076 68.9706 107.076 68.9824 107.047 68.9824H106.962L106.942 69.0081C106.904 69.0661 106.889 69.1367 106.901 69.2053L106.195 70.5585C106.121 70.7159 106.061 70.8796 106.017 71.0477C105.991 71.173 105.946 71.2935 105.883 71.4047C105.832 71.4383 105.784 71.5231 105.725 71.8249C105.693 71.9469 105.671 72.0717 105.662 72.1977L105.674 72.3654V72.4305C105.63 72.4878 105.603 72.556 105.595 72.6277C105.605 72.8612 105.642 73.0927 105.703 73.3181C105.81 73.5502 105.997 73.7358 106.23 73.8408C106.413 73.9593 106.608 74.0572 106.812 74.1328H106.828L107.185 74.0677L107.321 73.971C107.413 73.8962 107.492 73.8069 107.556 73.7067C107.611 73.6223 107.677 73.5459 107.753 73.4799C107.82 73.4334 107.866 73.3626 107.881 73.2826V73.2629L107.852 73.1603H107.883C107.959 73.1461 108.028 73.1073 108.08 73.0498C108.163 72.9729 108.197 72.9197 108.189 72.8526L108.136 72.6731C108.136 72.6731 108.153 72.6435 108.287 72.6336H108.321L108.343 72.604C108.425 72.5091 108.473 72.3886 108.477 72.2628C108.47 72.2265 108.457 72.1918 108.437 72.1602C108.516 72.0771 108.582 71.9835 108.635 71.8821C108.717 71.7569 108.789 71.6249 108.85 71.4876C108.873 71.4264 108.909 71.3712 108.956 71.3258L108.97 71.3101L109.027 71.0911V71.0793C109.033 71.0152 109.055 70.9535 109.09 70.8998L109.416 70.3356C109.466 70.2366 109.501 70.131 109.52 70.022C109.591 69.9556 109.634 69.8658 109.643 69.7695C109.642 69.7446 109.633 69.7206 109.619 69.7004C109.611 69.691 109.602 69.683 109.591 69.6768L109.552 69.6038C109.652 69.528 109.73 69.4255 109.775 69.3079C109.808 69.2129 109.854 69.1227 109.911 69.0396C109.996 68.9154 110.011 68.8641 110.008 68.8108L109.968 68.655C110.037 68.5867 110.079 68.4954 110.084 68.3986V68.3335C110.166 68.2626 110.23 68.1749 110.274 68.0764C110.318 67.9779 110.339 67.8711 110.337 67.7634V67.6746V67.6549C110.329 67.6365 110.323 67.6173 110.319 67.5977C110.321 67.5745 110.328 67.552 110.341 67.5326L110.404 67.3886C110.444 67.2678 110.499 67.1525 110.568 67.0454C110.625 66.9722 110.66 66.8837 110.668 66.7909C110.677 66.7156 110.699 66.6426 110.735 66.5759C110.81 66.5023 110.867 66.4133 110.904 66.3152C110.94 66.217 110.955 66.1122 110.946 66.0078C110.966 65.983 110.991 65.9628 111.019 65.9486C111.091 65.9071 111.169 65.8778 111.25 65.8618C111.349 65.841 111.446 65.8113 111.54 65.7731L111.684 65.6745L112.025 65.6508L112.294 65.5541C112.35 65.5818 112.411 65.5973 112.473 65.5995H112.509L112.627 65.5561L112.84 65.6153H112.83C112.907 65.6153 112.976 65.6823 113.028 65.8303C113.092 66.0209 113.212 66.1882 113.371 66.3116C113.476 66.4173 113.616 66.4805 113.765 66.4891C113.811 66.4879 113.856 66.4739 113.895 66.4489C113.933 66.4238 113.964 66.3886 113.984 66.3471C114.028 66.2486 114.043 66.1402 114.03 66.0335C114.025 65.7982 113.978 65.5658 113.892 65.347C113.782 65.1679 113.617 65.0294 113.422 64.9525ZM101.691 62.4256C101.705 62.3744 101.737 62.2639 101.817 62.0311C101.86 61.8514 101.955 61.6882 102.09 61.5617C102.208 61.481 102.318 61.3885 102.417 61.2855C102.474 61.223 102.536 61.1644 102.601 61.1099L102.693 61.0488L102.831 61.0034L102.855 60.9877C102.969 60.891 103.003 60.8752 102.997 60.8752L103.222 60.8594L103.242 60.8456C103.286 60.8002 103.342 60.7669 103.403 60.749C103.498 60.749 103.498 60.7687 103.5 60.7726C103.502 60.7766 103.486 60.7983 103.396 60.8397C103.257 60.9215 103.149 61.0471 103.09 61.1967L103.009 61.2401L102.997 61.2579C102.947 61.3333 102.885 61.4 102.814 61.4551C102.746 61.5015 102.688 61.5604 102.642 61.6287L102.597 61.6919C102.458 61.8063 102.326 61.9288 102.202 62.0587C102.12 62.1487 102.027 62.227 101.924 62.2915L101.691 62.4256ZM98.3911 59.1394C98.3911 59.1196 98.4089 59.0901 98.4444 59.0585L98.5687 59.0684L98.5923 59.0486C98.6279 59.019 98.6693 58.9579 98.7166 58.731C98.7358 58.6198 98.7731 58.5126 98.8271 58.4135C98.8731 58.3502 98.9078 58.2795 98.9297 58.2044C98.9404 58.1648 98.9592 58.1279 98.9849 58.0959C99.0063 58.0729 99.0228 58.0459 99.0337 58.0164C99.0445 57.987 99.0494 57.9556 99.048 57.9243C99.0425 57.8962 99.0352 57.8686 99.0263 57.8414H99.0973L99.1979 57.6856C99.2078 57.6698 99.2433 57.6264 99.6398 56.9104C99.6873 56.7633 99.7668 56.6286 99.8725 56.5159C99.9605 56.4479 100.022 56.3518 100.048 56.2437L100.09 56.147C100.201 56.038 100.271 55.8936 100.287 55.7387C100.299 55.6282 100.376 55.5513 100.52 55.5039L100.563 55.4882V55.4428C100.567 55.3362 100.595 55.2318 100.644 55.137C100.685 55.1166 100.724 55.0921 100.76 55.0641C100.77 55.0989 100.776 55.1346 100.778 55.1706L100.729 55.5138C100.741 55.5824 100.726 55.653 100.687 55.7111C100.642 55.7622 100.613 55.8264 100.606 55.8945L100.498 56.2456C100.397 56.4605 100.306 56.6804 100.228 56.9045L100.218 56.9952C100.208 57.0352 100.205 57.0765 100.208 57.1175L100.078 57.1451V57.1984C100.073 57.272 100.043 57.3418 99.9929 57.3956C99.9222 57.4577 99.8691 57.5373 99.839 57.6264C99.8042 57.7182 99.7563 57.8046 99.697 57.8828C99.5786 58.0466 99.5727 58.0801 99.5747 58.1038L99.5845 58.2399L99.5707 58.2675C99.5106 58.346 99.467 58.436 99.4425 58.5318H99.4208C99.3478 58.5456 99.2906 58.6324 99.2117 58.8514C99.03 58.9544 98.8955 59.1242 98.8369 59.3248L98.7837 59.4925C98.5726 59.7627 98.5588 59.8278 98.5608 59.8732C98.5674 59.9266 98.5641 59.9807 98.5509 60.0329C98.5412 60.0616 98.5353 60.0915 98.5332 60.1217C98.476 60.1217 98.3951 60.1611 98.2215 60.39C98.1244 60.5053 98.0525 60.6397 98.0104 60.7845L97.8566 60.8989C97.8671 60.8581 97.877 60.8147 97.8862 60.7687C97.9342 60.5351 98.0097 60.308 98.111 60.0921C98.1937 59.9309 98.2598 59.7617 98.3083 59.5871C98.3171 59.5218 98.3386 59.4589 98.3714 59.4017C98.3912 59.38 98.4063 59.3544 98.4158 59.3266C98.4253 59.2987 98.429 59.2693 98.4267 59.24L98.3911 59.1394ZM94.0712 59.4431C94.0712 59.4214 94.089 59.3919 94.1245 59.3603L94.2488 59.3721L94.2724 59.3504C94.306 59.3208 94.3474 59.2597 94.3967 59.0328C94.4153 58.9221 94.4527 58.8154 94.5072 58.7172C94.5526 58.6529 94.5872 58.5816 94.6098 58.5062C94.6201 58.467 94.6389 58.4306 94.665 58.3997C94.6864 58.3767 94.7029 58.3497 94.7138 58.3202C94.7246 58.2907 94.7295 58.2594 94.7281 58.228C94.7226 58.2 94.7153 58.1723 94.7064 58.1452H94.7774L94.88 57.9933C94.8997 57.9677 94.9668 57.8552 95.3218 57.2181C95.37 57.0713 95.4494 56.9367 95.5546 56.8236C95.6428 56.7567 95.7049 56.6611 95.7302 56.5533L95.7716 56.4547C95.8821 56.346 95.9517 56.2025 95.9688 56.0484C95.9807 55.9379 96.0576 55.8511 96.2016 55.8117L96.245 55.7979V55.7525C96.2484 55.646 96.2754 55.5416 96.3239 55.4467C96.3663 55.4268 96.4061 55.4016 96.4423 55.3718C96.4516 55.4073 96.4576 55.4436 96.46 55.4803L96.4107 55.8215C96.4218 55.8901 96.4071 55.9604 96.3693 56.0188C96.3238 56.0692 96.2955 56.1327 96.2884 56.2003L96.1799 56.5514C96.0777 56.7658 95.9875 56.9858 95.9097 57.2102V57.3009C95.9002 57.3416 95.8969 57.3835 95.8998 57.4252L95.7696 57.4509V57.5041C95.7653 57.5778 95.7352 57.6476 95.6848 57.7014C95.6134 57.7636 95.5603 57.8441 95.5309 57.9341C95.4964 58.0261 95.4486 58.1125 95.3889 58.1906C95.2686 58.3543 95.2646 58.378 95.2666 58.4095L95.2765 58.5456L95.2627 58.5752C95.2006 58.6526 95.1568 58.7429 95.1345 58.8395H95.1128C95.0398 58.8533 94.9826 58.9421 94.9056 59.1591C94.7233 59.2619 94.5881 59.4317 94.5289 59.6325L94.4756 59.8021C94.2646 60.0724 94.2507 60.1375 94.2527 60.1809C94.2585 60.2343 94.2551 60.2883 94.2429 60.3407C94.2334 60.3701 94.2274 60.4006 94.2251 60.4314C94.1699 60.4314 94.091 60.4708 93.9154 60.6997C93.8183 60.815 93.7464 60.9494 93.7043 61.0942L93.5505 61.2066C93.5597 61.1672 93.5696 61.1238 93.5801 61.0764C93.6284 60.8435 93.7039 60.6171 93.8049 60.4018C93.888 60.2401 93.9541 60.0702 94.0022 59.8949C94.0098 59.8299 94.0313 59.7673 94.0653 59.7114C94.1043 59.6669 94.1242 59.6087 94.1206 59.5497L94.0712 59.4431ZM108.353 69.1974C108.339 69.2231 108.329 69.2586 108.341 69.4499C108.228 69.6129 108.16 69.8027 108.143 70.0003C108.086 70.0408 108.045 70.1002 108.027 70.1679L107.994 70.308C107.91 70.5331 107.812 70.7526 107.7 70.9649C107.437 71.5073 107.406 71.6375 107.41 71.6986C107.41 71.7125 107.41 71.7499 107.339 71.7933C107.291 71.826 107.251 71.8681 107.22 71.9169C107.189 71.9657 107.168 72.0203 107.159 72.0774C107.106 72.1008 107.063 72.142 107.037 72.1938L106.917 72.5074C106.855 72.661 106.741 72.788 106.595 72.8664L106.417 72.9828C106.428 72.8197 106.453 72.658 106.492 72.4995L106.502 72.4601L106.421 72.3851C106.384 72.3614 106.37 72.3417 106.36 72.3417C106.469 72.2825 106.53 72.1326 106.558 71.8663C106.589 71.8041 106.611 71.7377 106.623 71.6691C106.644 71.5691 106.673 71.4708 106.709 71.3751C106.898 71.0966 106.992 70.7646 106.978 70.4283L107.126 70.3277V70.304C107.16 70.1905 107.203 70.0797 107.254 69.9727C107.316 69.9365 107.363 69.878 107.384 69.8089C107.41 69.7482 107.442 69.6907 107.481 69.6373C107.506 69.6111 107.525 69.58 107.537 69.5461C107.55 69.5122 107.555 69.4762 107.554 69.4401L107.493 69.2428C107.511 69.2559 107.533 69.2622 107.556 69.2606H107.591C107.68 69.2606 107.751 69.1639 107.828 68.9588C107.905 68.7536 107.952 68.7063 107.966 68.6984C108.05 68.6292 108.123 68.5481 108.183 68.4577L108.341 68.2447C108.4 68.1349 108.466 68.0288 108.538 67.9271L109.049 67.3728C109.089 67.3481 109.127 67.3197 109.161 67.288V67.3432C108.94 67.7022 108.909 67.8423 108.911 67.9133C108.892 67.9896 108.867 68.0642 108.836 68.1362C108.802 68.221 108.769 68.3098 108.741 68.4025L108.449 69.0594L108.353 69.1974ZM98.6476 56.4251C98.6594 56.4251 98.6476 56.435 98.6653 56.4409C98.6613 56.452 98.656 56.4626 98.6495 56.4725H98.6377L98.6476 56.4251ZM94.3277 56.7269C94.3395 56.7269 94.3375 56.7368 94.3454 56.7427C94.3423 56.7542 94.3369 56.7649 94.3296 56.7743H94.3178L94.3277 56.7269Z" fill="white"/>
<path d="M125.693 60.3071C125.565 60.3071 125.457 60.4136 125.36 60.6069C125.308 60.7316 125.221 60.8385 125.11 60.9147C125.055 60.9405 125.007 60.9794 124.971 61.0278C124.934 61.0763 124.91 61.1329 124.9 61.1928C124.9 61.246 124.873 61.2658 124.822 61.2697H124.79L124.64 61.4394C124.572 61.515 124.515 61.6 124.47 61.6918L124.413 61.7234C124.376 61.7392 124.326 61.7806 124.216 61.966C124.145 62.0752 124.039 62.1577 123.916 62.2008C123.899 62.1544 123.889 62.1059 123.887 62.0568L123.902 61.7648L123.869 61.5281C123.871 61.4769 123.888 61.4274 123.918 61.3861C123.965 61.3253 123.991 61.2515 123.993 61.175L124.088 60.7687C124.092 60.717 124.103 60.6661 124.119 60.6168C124.42 60.2617 124.575 59.8056 124.553 59.3405C124.553 59.1836 124.504 59.0306 124.413 58.9026C124.371 58.8508 124.316 58.8106 124.254 58.7857C124.192 58.7609 124.125 58.7522 124.058 58.7606C123.675 58.7882 123.431 58.9401 123.328 59.2143C123.295 59.3272 123.242 59.4334 123.172 59.5279C123.159 59.4977 123.151 59.4659 123.147 59.4333C123.066 58.8415 122.815 58.5397 122.409 58.5713C122.366 58.5745 122.325 58.588 122.289 58.6107L122.18 58.6797C122.066 58.6245 122.024 58.6166 121.999 58.6206H121.926L121.91 58.6304C121.571 58.8553 121.498 58.8928 121.496 58.8948H121.425C121.298 58.9165 121.18 58.9732 121.084 59.0585C120.964 59.1462 120.837 59.2234 120.705 59.2893C120.558 59.3609 120.429 59.4647 120.328 59.593C120.196 59.7568 120.158 59.7804 120.143 59.7903C120.056 59.8508 119.974 59.9167 119.896 59.9875C119.889 59.9739 119.88 59.9618 119.868 59.952C119.852 59.9373 119.832 59.9266 119.81 59.9204C119.789 59.9143 119.766 59.913 119.744 59.9165C119.671 59.9141 119.599 59.9298 119.533 59.9621C119.468 59.9945 119.412 60.0425 119.369 60.102C119.336 60.1592 119.316 60.1888 119.306 60.2026H119.2C119.158 60.2026 119.113 60.2321 118.979 60.3801C118.877 60.4902 118.762 60.587 118.636 60.6681C118.475 60.7761 118.331 60.9055 118.206 61.0527C118.15 61.1186 118.082 61.1723 118.005 61.2103C117.928 61.2483 117.844 61.2699 117.758 61.2737H117.691V61.2598C117.663 61.1476 117.597 61.0488 117.503 60.9812C117.41 60.9136 117.295 60.8816 117.18 60.891C117.16 60.891 117.154 60.891 116.894 61.0231L116.752 60.9758C116.698 60.9556 116.64 60.9475 116.582 60.9521L116.132 61.1612C115.951 61.1809 115.793 61.3249 115.663 61.5912C115.607 61.6977 115.541 61.7988 115.466 61.893C115.376 61.9979 115.33 62.1339 115.339 62.2718C115.359 62.5637 115.45 62.7235 115.625 62.7472C115.908 62.7274 115.917 62.8261 115.919 62.8576C115.919 63.0119 115.883 63.1639 115.813 63.3014C115.766 63.4374 115.678 63.5558 115.562 63.6407L115.462 63.7078L115.44 63.7295C115.334 63.8893 115.292 63.9051 115.29 63.907C115.288 63.909 115.276 63.907 115.27 63.907C115.264 63.907 115.221 63.8478 115.209 63.6802C115.2 63.5905 115.17 63.5041 115.122 63.4277V63.2304L115.097 62.8556L115.047 62.6584V62.615C115.084 62.3855 115.098 62.1529 115.089 61.9207V61.8911L114.988 61.7056C114.989 61.6643 115.003 61.6243 115.028 61.5912C115.059 61.5459 115.101 61.4413 115.158 61.0192C115.383 61.2007 115.466 61.2263 115.521 61.2165C115.536 61.2167 115.551 61.2136 115.565 61.2075C115.579 61.2014 115.592 61.1923 115.602 61.1809C115.712 61.1542 115.812 61.0935 115.886 61.0074C116.057 60.717 116.213 60.4181 116.353 60.1118C116.414 60.0742 116.463 60.0197 116.493 59.9549C116.524 59.8901 116.535 59.8178 116.525 59.7469C116.514 59.6565 116.514 59.5651 116.525 59.4747L116.693 59.4431C116.72 59.4293 116.75 59.4056 116.858 59.2044C116.892 59.1433 116.961 59.0171 116.973 59.0072L116.996 58.9776L116.945 58.7803C116.956 58.758 116.971 58.7384 116.99 58.7231C117.049 58.7081 117.103 58.6775 117.146 58.6344C117.188 58.5913 117.219 58.5374 117.233 58.4785C117.248 58.4099 117.283 58.3473 117.334 58.299C117.365 58.2837 117.392 58.2603 117.411 58.2312C117.431 58.202 117.442 58.1683 117.444 58.1333L117.415 57.9223H117.543L117.566 57.8927C117.604 57.8216 117.621 57.742 117.618 57.6619C117.616 57.5979 117.638 57.5353 117.679 57.4863C117.746 57.4194 117.793 57.3345 117.813 57.2417C117.83 57.1685 117.866 57.1007 117.916 57.0445L117.931 57.0287V57.009C117.985 56.8249 118.057 56.647 118.148 56.4784L118.196 56.3245V56.3107C118.209 56.2232 118.235 56.1381 118.273 56.0582C118.328 55.9182 118.399 55.7663 118.486 55.5887C118.516 55.4516 118.563 55.319 118.628 55.1942H118.701L118.624 54.926C118.635 54.8899 118.653 54.856 118.675 54.8254C118.704 54.8047 118.728 54.7779 118.746 54.7469C118.764 54.7159 118.775 54.6814 118.778 54.6459L118.975 54.1291C119.012 54.0738 119.056 53.9318 119.105 53.4446C119.143 53.0501 119.162 52.8291 119.162 52.7423C119.162 52.6704 119.177 52.5992 119.206 52.5333C119.237 52.4679 119.255 52.3967 119.257 52.3242C119.221 52.1053 119.125 51.9005 118.981 51.7324C118.799 51.4878 118.659 51.3813 118.533 51.3872C118.376 51.4147 118.236 51.4999 118.138 51.6259C118.073 51.7031 118.001 51.7738 117.922 51.8369C117.738 51.9506 117.598 52.124 117.527 52.3281C117.427 52.3924 117.356 52.4938 117.33 52.6102L117.075 53.0205C116.932 53.1447 116.809 53.2904 116.71 53.4525C116.635 53.6587 116.539 53.857 116.424 54.0442C116.317 54.2221 116.224 54.4089 116.148 54.6025C116.08 54.6503 116.021 54.7113 115.977 54.782L115.89 54.997C115.82 55.0944 115.778 55.2089 115.767 55.3284L115.801 55.4053H115.779C115.696 55.429 115.633 55.5118 115.596 55.6459C115.572 55.7367 115.554 55.7978 115.543 55.8294C115.423 55.9331 115.337 56.0706 115.296 56.2239C115.272 56.3293 115.234 56.4309 115.182 56.5257C115.104 56.6749 115.043 56.8324 115 56.9952C114.961 57.0151 114.927 57.043 114.9 57.077C114.873 57.111 114.853 57.1503 114.842 57.1924C114.829 57.2516 114.805 57.3502 114.767 57.4903V57.508L114.795 57.6264C114.795 57.6264 114.795 57.6382 114.76 57.6501C114.72 57.666 114.685 57.6931 114.66 57.728C114.636 57.763 114.621 57.8045 114.619 57.8473L114.552 58.2024L114.446 58.4983C114.44 58.5605 114.418 58.6203 114.383 58.6719C114.315 58.7755 114.281 58.8973 114.284 59.021C114.279 59.1402 114.238 59.2551 114.166 59.3504C114.117 59.417 114.082 59.4926 114.062 59.5728C114.043 59.6531 114.04 59.7364 114.053 59.8179L114.079 59.9323V60.0112C114.031 60.0175 113.987 60.041 113.956 60.0773C113.924 60.1137 113.907 60.1603 113.907 60.2085V60.3643C113.887 60.4283 113.874 60.4945 113.87 60.5616C113.861 60.6464 113.847 60.7307 113.828 60.814C113.807 60.8744 113.795 60.9376 113.793 61.0014C113.824 61.1364 113.867 61.2683 113.921 61.396C113.772 61.6949 113.715 62.0312 113.757 62.3625C113.757 62.3842 113.757 62.4 113.864 62.5598C113.901 62.6249 113.923 62.6663 113.937 62.6939C113.826 62.7669 113.779 62.9267 113.797 63.1732C113.838 63.3975 113.904 63.6165 113.994 63.8261C114.17 64.3114 114.251 64.4317 114.296 64.481C114.392 64.5732 114.501 64.6509 114.619 64.7118C114.744 64.7858 114.885 64.8253 115.03 64.8262H115.087L115.316 64.7907C115.48 64.7703 115.639 64.7173 115.783 64.6349C115.981 64.5284 116.038 64.5067 116.036 64.5047C116.088 64.5071 116.139 64.4919 116.181 64.4614C116.224 64.431 116.254 64.3872 116.269 64.337L116.312 64.2187L116.416 64.1516V64.126C116.439 64.0493 116.479 63.9787 116.533 63.9196C116.587 63.8605 116.654 63.8144 116.728 63.7847C116.764 63.767 116.807 63.7492 117.016 63.2265C117.069 63.067 117.143 62.9151 117.235 62.7748H117.432L117.783 62.6801C117.85 62.6708 117.912 62.6382 117.957 62.588C118.002 62.5379 118.028 62.4733 118.03 62.4059C118.03 62.327 118.064 62.3014 118.087 62.2915C118.168 62.3822 118.221 62.4177 118.269 62.4118H118.284L118.308 62.5716C118.267 62.5815 118.229 62.6035 118.2 62.6347C118.169 62.6739 118.154 62.7232 118.158 62.7728L118.198 63.0884V63.1338C118.189 63.1906 118.189 63.2485 118.198 63.3054C118.202 63.4441 118.241 63.5796 118.31 63.6999L118.421 64.0767C118.452 64.2364 118.592 64.3647 118.835 64.4593C119.005 64.5282 119.186 64.5663 119.369 64.5718H119.431C119.644 64.558 119.969 64.3587 120.44 63.9563L120.482 63.9031C120.585 63.8361 120.684 63.763 120.778 63.6841L121.401 63.0352C121.486 62.9536 121.553 62.8556 121.598 62.7472C121.628 62.6801 121.646 62.6406 121.658 62.617H121.817L121.93 62.471C121.959 62.4299 121.999 62.3983 122.046 62.3803C122.084 62.3671 122.118 62.3455 122.147 62.3171C122.175 62.2888 122.197 62.2544 122.21 62.2165L122.23 62.1771C122.294 62.1201 122.35 62.0536 122.395 61.9798L122.407 61.9522C122.413 61.8828 122.434 61.8154 122.468 61.755C122.559 61.7402 122.641 61.6916 122.697 61.6189L122.721 61.5912L122.705 62.0074C122.708 62.0481 122.717 62.088 122.733 62.1258C122.744 62.1556 122.752 62.1867 122.756 62.2185C122.744 62.2344 122.735 62.2525 122.73 62.2718C122.725 62.2911 122.724 62.3112 122.727 62.3309C122.735 62.3831 122.759 62.4313 122.796 62.469C122.808 62.4814 122.819 62.4953 122.827 62.5104L122.806 62.7077C122.808 62.8317 122.849 62.9518 122.924 63.0509C122.962 63.0918 122.991 63.1401 123.009 63.193C123.022 63.2548 123.054 63.3112 123.099 63.3547L123.119 63.3725H123.147C123.241 63.3793 123.333 63.402 123.419 63.4395C123.528 63.4872 123.648 63.5069 123.766 63.4967C123.825 63.4859 123.88 63.4601 123.926 63.4218C124.008 63.3723 124.095 63.3307 124.184 63.2975C124.3 63.2597 124.402 63.1916 124.482 63.1002L124.496 63.0845V63.0075C124.557 62.9819 124.616 62.9509 124.672 62.9148L124.691 62.8951C124.786 62.761 124.853 62.7215 124.889 62.7117C124.944 62.696 124.994 62.6658 125.034 62.6242C125.074 62.5825 125.102 62.531 125.115 62.4749C125.132 62.4297 125.158 62.3886 125.192 62.3545C125.226 62.3205 125.267 62.2943 125.313 62.2777L125.336 62.2678L125.421 62.114C125.506 62.0469 125.574 61.9603 125.618 61.8615C125.649 61.8033 125.695 61.7543 125.751 61.7195L125.77 61.7076L125.831 61.5557L125.851 61.2697C125.949 61.0506 125.994 60.8112 125.981 60.5714C125.97 60.4968 125.936 60.4277 125.883 60.3742C125.82 60.3406 125.76 60.3012 125.693 60.3071ZM119.395 62.8044C119.463 62.7047 119.501 62.5877 119.505 62.4671C119.505 62.3467 119.557 62.325 119.573 62.3171C119.646 62.282 119.713 62.2339 119.77 62.1751L119.837 61.9779C119.896 61.9004 119.962 61.8285 120.034 61.7628L120.05 61.7471V61.7234C120.055 61.6588 120.076 61.5966 120.113 61.5429C120.149 61.4893 120.199 61.4461 120.257 61.4177L120.275 61.4058C120.431 61.2839 120.564 61.1357 120.669 60.9679C120.791 60.9167 120.9 60.84 120.989 60.743C121.122 60.6144 121.282 60.5161 121.456 60.455C121.595 60.412 121.727 60.3517 121.851 60.2755C121.905 60.2377 121.968 60.2146 122.034 60.2085L122.232 60.2381L122.334 60.2124L122.46 60.2716L122.63 60.2361L122.79 60.246C122.752 60.3051 122.687 60.4018 122.575 60.5478C122.442 60.7292 122.295 60.9006 122.137 61.0606L122.121 61.0764V61.1001C122.087 61.1825 122.028 61.2517 121.951 61.2973C121.892 61.3385 121.842 61.3917 121.804 61.4536C121.766 61.5154 121.742 61.5845 121.732 61.6563C121.666 61.694 121.61 61.7475 121.569 61.8122C121.569 61.8279 121.523 61.8753 121.358 61.9779L121.194 62.1396C120.979 62.2935 120.825 62.4039 120.728 62.4769L120.707 62.5045C120.676 62.5668 120.629 62.6194 120.571 62.6564C120.505 62.6941 120.447 62.7444 120.401 62.8044C120.39 62.8223 120.374 62.8366 120.356 62.8458C120.315 62.859 120.278 62.8836 120.251 62.9168L120.111 63.0135C120.049 63.0367 119.993 63.0738 119.947 63.1219C119.879 63.1779 119.803 63.2249 119.722 63.262C119.643 63.3135 119.557 63.3527 119.466 63.3784C119.431 63.3784 119.369 63.2936 119.348 62.9839C119.32 62.9562 119.328 62.9089 119.395 62.8044ZM118.383 53.3361L118.186 54.1606L118.109 54.3224V54.3539C118.117 54.469 118.09 54.5838 118.032 54.6833C117.95 54.8068 117.89 54.9436 117.854 55.0877C117.793 55.2916 117.713 55.4897 117.616 55.6795C117.532 55.8326 117.472 55.9976 117.438 56.1687C117.278 56.3482 117.253 56.4192 117.251 56.4646C117.247 56.4967 117.232 56.5267 117.209 56.5494C117.15 56.6181 117.096 56.692 117.05 56.7703L117.024 56.8413C116.969 56.9347 116.939 57.0407 116.937 57.149C116.94 57.1982 116.925 57.2468 116.894 57.2851C116.821 57.3584 116.755 57.4383 116.697 57.5238C116.62 57.6323 116.564 57.7073 116.533 57.7487L116.456 57.9223V57.94C116.456 57.94 116.456 57.9716 116.389 58.0584C116.339 58.1213 116.293 58.1871 116.251 58.2556L115.773 59.0841C115.747 59.1361 115.707 59.1798 115.657 59.2104C115.561 59.2866 115.496 59.3953 115.474 59.5161C115.462 59.5941 115.428 59.6669 115.375 59.7252C115.339 59.7548 115.308 59.7804 115.282 59.8061C115.282 59.7568 115.282 59.7232 115.282 59.7094C115.287 59.596 115.315 59.4847 115.363 59.382L115.379 59.309C115.381 59.2421 115.391 59.1758 115.41 59.1117L115.576 58.6521C115.729 58.4416 115.826 58.196 115.858 57.9381C115.895 57.8944 115.922 57.8432 115.937 57.7881L116.054 57.4134C116.054 57.3897 116.079 57.3562 116.156 57.3384L116.209 57.3266V57.2713C116.223 57.1037 116.225 57.0346 116.227 57.0011L116.501 56.5691C116.532 56.5464 116.557 56.5166 116.574 56.4823C116.59 56.4479 116.599 56.4101 116.598 56.3718L116.641 56.2752C116.675 56.0988 116.729 55.9268 116.801 55.7623L116.998 55.4625C117.081 55.3426 117.141 55.209 117.176 55.068C117.188 54.9874 117.228 54.9134 117.288 54.8589C117.395 54.7642 117.422 54.7208 117.436 54.6774L117.456 54.5058L117.63 54.2218L117.663 54.0916C117.773 53.9216 117.866 53.742 117.943 53.555C117.989 53.4279 118.068 53.3155 118.172 53.2296L118.237 53.1467L118.253 53.1132C118.265 53.0012 118.305 52.894 118.369 52.8015L118.334 53.129L118.383 53.3361Z" fill="white"/>
<path d="M135.669 51.2412C135.581 51.157 135.477 51.0918 135.363 51.0494C135.249 51.007 135.127 50.9883 135.006 50.9946C134.915 50.9996 134.825 51.0203 134.741 51.0557L134.688 51.0774C134.623 51.1041 134.562 51.1392 134.507 51.182L134.414 51.2629C134.337 51.3185 134.275 51.3936 134.236 51.4805C134.197 51.5674 134.181 51.6631 134.191 51.758L134.12 51.7856L134.094 51.8033C134.023 51.8755 133.941 51.9367 133.852 51.9848H133.832L133.822 52.0065C133.721 52.1574 133.654 52.3283 133.625 52.5076L133.475 52.6594L133.461 52.6811C133.428 52.7645 133.368 52.8341 133.29 52.8784L133.266 52.8902V52.9159C133.23 53.0086 133.189 53.0995 133.144 53.1881L133.09 53.3183L132.873 53.6536L132.862 53.6773C132.833 53.7947 132.798 53.9106 132.757 54.0244C132.753 54.0376 132.748 54.0502 132.741 54.0619L132.767 54.0856H132.71V54.2651C132.684 54.3181 132.664 54.3736 132.651 54.4308L132.497 54.4584L132.479 54.49C132.405 54.6174 132.349 54.754 132.311 54.8963C132.19 55.0265 132.099 55.1812 132.043 55.35C131.954 55.4133 131.886 55.501 131.846 55.6025L131.694 56.0305L131.414 56.644V56.6716C131.437 56.7485 131.453 56.7939 131.455 56.8077C131.456 56.8116 131.456 56.8157 131.455 56.8196L131.36 56.8472L131.347 56.8787C131.297 56.9991 131.258 57.0937 131.23 57.1569C131.203 57.22 131.167 57.2949 131.124 57.3817C131.092 57.4365 131.066 57.4948 131.047 57.5553L130.81 58.3601L130.676 58.9677C130.65 59.1076 130.597 59.2413 130.522 59.3622C130.471 59.4473 130.441 59.5433 130.433 59.6423C130.394 59.6596 130.36 59.6868 130.335 59.7212C130.301 59.7568 130.264 59.788 130.222 59.8139C130.185 59.8391 130.156 59.8734 130.136 59.9135C130.116 59.9536 130.107 59.9981 130.11 60.0427C130.098 60.1251 130.061 60.2017 130.003 60.2617H129.992C129.895 60.2617 129.769 60.3485 129.546 60.883C129.492 60.9071 129.435 60.9237 129.376 60.9323H129.348L129.331 60.954C129.282 61.0348 129.244 61.1217 129.218 61.2125C129.204 61.2681 129.178 61.3199 129.141 61.3643L129.003 61.3742L128.984 61.3998C128.965 61.4256 128.943 61.4488 128.918 61.4689L128.883 61.4926V61.5438C128.894 61.6208 128.89 61.6992 128.871 61.7746C128.871 61.7924 128.857 61.8141 128.845 61.8141H128.757C128.709 61.8141 128.666 61.8516 128.613 61.9186C128.588 61.952 128.555 61.9775 128.516 61.9916C128.479 62.0063 128.445 62.0287 128.418 62.0572C128.39 62.0858 128.368 62.1199 128.354 62.1573V62.1751V62.321C128.361 62.3482 128.361 62.3767 128.354 62.4039C128.325 62.4022 128.297 62.3969 128.269 62.3881V62.3763L128.234 62.3526H128.183L127.849 62.5873C127.739 62.6781 127.692 62.7136 127.672 62.7293L127.475 62.7076C127.398 62.7076 127.344 62.5755 127.319 62.4571L127.26 62.2145V61.9936C127.248 61.919 127.22 61.8477 127.179 61.7845C127.226 61.5789 127.257 61.3698 127.271 61.1592L127.222 60.9225C127.256 60.8502 127.284 60.7749 127.305 60.6976C127.434 60.759 127.575 60.7907 127.717 60.7903C127.758 60.7896 127.798 60.7802 127.836 60.7627C127.873 60.7452 127.906 60.7201 127.932 60.689C127.959 60.6579 127.979 60.6215 127.99 60.5821C128.002 60.5428 128.005 60.5015 127.999 60.4609C128.003 60.3839 128.024 60.3086 128.06 60.2405C128.096 60.1723 128.147 60.1129 128.208 60.0664L128.492 59.7034L128.504 59.6798C128.516 59.624 128.537 59.5706 128.567 59.522L128.581 59.5042V59.4825C128.595 59.303 128.666 59.2853 128.69 59.2695L128.727 59.2557L128.737 59.2182C128.744 59.1729 128.761 59.1297 128.787 59.0916C128.812 59.0535 128.846 59.0213 128.885 58.9973L128.909 58.9835L129.047 58.5889C129.094 58.53 129.13 58.4632 129.153 58.3917C129.17 58.3332 129.207 58.2828 129.258 58.2497C129.323 58.2167 129.375 58.1624 129.406 58.0958C129.44 57.9612 129.464 57.824 129.477 57.6855C129.577 57.6401 129.674 57.4883 129.806 57.1667L130.003 56.6696C130.02 56.5587 130.058 56.4521 130.116 56.356C130.167 56.2855 130.211 56.2102 130.248 56.1311L130.317 55.9812C130.417 55.8698 130.485 55.7335 130.514 55.5867C130.528 55.4953 130.566 55.4094 130.625 55.3382C130.706 55.2436 130.746 55.121 130.737 54.9969L130.723 54.9377C130.836 54.9377 130.877 54.7799 130.907 54.6182C130.923 54.4858 130.968 54.3586 131.039 54.2454C131.093 54.1747 131.134 54.0953 131.161 54.0106V54.0008V53.9889C131.143 53.7325 131.187 53.628 131.232 53.6161L131.272 53.6063L131.286 53.5688C131.307 53.4503 131.311 53.3295 131.299 53.2098L131.323 53.1901C131.394 53.1901 131.439 53.1506 131.52 52.5983L131.548 52.5273C131.627 52.4345 131.669 52.3158 131.666 52.1939C131.657 52.0704 131.623 51.95 131.567 51.8398C131.51 51.7297 131.432 51.6321 131.337 51.5528C131.25 51.4675 131.146 51.4015 131.032 51.359C130.917 51.3165 130.796 51.2985 130.674 51.3063C130.583 51.3105 130.493 51.3312 130.41 51.3674L130.356 51.3871C130.292 51.4147 130.231 51.4505 130.175 51.4937L130.082 51.5726C130.005 51.6287 129.944 51.7041 129.904 51.7913C129.865 51.8786 129.85 51.9745 129.859 52.0696L129.788 52.0973L129.763 52.115C129.69 52.186 129.609 52.247 129.52 52.2965L129.5 52.3064L129.489 52.3261C129.388 52.4773 129.321 52.6481 129.291 52.8271L129.141 52.981L129.13 53.0007C129.096 53.0843 129.035 53.154 128.956 53.1979L128.932 53.2118V53.2374C128.896 53.3303 128.856 53.4211 128.81 53.5096L128.757 53.6378L128.54 53.9574L128.53 53.9791C128.484 54.1507 128.449 54.2671 128.425 54.3282L128.41 54.3657L128.435 54.3894H128.378V54.5669C128.353 54.6203 128.332 54.6757 128.317 54.7326L128.165 54.7622L128.147 54.7918C128.073 54.9196 128.017 55.057 127.979 55.2001C127.858 55.3289 127.766 55.4832 127.711 55.6518C127.623 55.7163 127.554 55.8045 127.514 55.9063L127.362 56.3323L127.082 56.9458V56.9754C127.106 57.0504 127.121 57.0977 127.123 57.1115C127.124 57.1147 127.124 57.1181 127.123 57.1214L127.029 57.149L127.015 57.1825C126.966 57.3028 126.926 57.3956 126.899 57.4587C126.871 57.5218 126.835 57.5987 126.792 57.6835C126.761 57.7387 126.735 57.7968 126.715 57.8571L126.478 58.6639L126.344 59.2715C126.318 59.4113 126.266 59.5451 126.19 59.666C126.111 59.7931 126.076 59.9428 126.09 60.092C126.103 60.1499 126.123 60.2062 126.149 60.2597C126.149 60.2893 126.125 60.3406 126.1 60.4353L126.042 60.7371C126.008 60.8355 125.984 60.9374 125.971 61.0408C125.98 61.1387 126.004 61.2346 126.042 61.3249C126.036 61.3951 126.036 61.4657 126.042 61.5359V61.6267L126.125 61.7352H126.098H126.05L126.025 61.8535L126.039 62.039V62.1672V62.2658C126.047 62.392 126.095 62.5123 126.177 62.609C126.238 62.682 126.263 62.7136 126.273 62.7293C126.302 62.9684 126.403 63.1931 126.561 63.3744C126.758 63.6071 126.897 63.7137 127.025 63.7038C127.091 63.6682 127.166 63.6519 127.242 63.6568C127.317 63.6617 127.389 63.6875 127.451 63.7314C127.498 63.733 127.544 63.7451 127.585 63.7669L127.632 63.7965L127.674 63.761C127.71 63.7383 127.752 63.7266 127.794 63.7275C127.894 63.711 127.987 63.6634 128.058 63.5914C128.102 63.5993 128.146 63.6026 128.191 63.6012C128.221 63.5962 128.251 63.5851 128.277 63.5685C128.304 63.5519 128.327 63.5302 128.344 63.5046C128.365 63.476 128.395 63.4557 128.429 63.4474C128.468 63.4445 128.506 63.4311 128.538 63.4085C128.57 63.3859 128.595 63.355 128.611 63.3191C128.611 63.2935 128.648 63.256 128.737 63.2107C128.824 63.1711 128.896 63.1065 128.946 63.0252C128.965 62.9864 128.996 62.9547 129.035 62.9345C129.109 62.8942 129.167 62.8284 129.197 62.7491L129.372 62.7609V62.7274L129.386 62.6919C129.433 62.5431 129.515 62.4078 129.625 62.2974C129.74 62.1935 129.818 62.0551 129.848 61.9028L129.901 61.8614L130.072 61.8022L130.082 61.7667C130.11 61.6707 130.166 61.585 130.242 61.5202C130.303 61.4693 130.356 61.4086 130.398 61.3407L130.477 61.4472H130.449L130.402 61.457L130.376 61.5734L130.39 61.7588V61.889V61.9857C130.398 62.1119 130.447 62.2322 130.528 62.3289C130.589 62.4019 130.615 62.4354 130.625 62.4492C130.654 62.6888 130.754 62.914 130.913 63.0962C131.11 63.329 131.244 63.4375 131.376 63.4237C131.435 63.4144 131.493 63.3986 131.548 63.3763C131.628 63.4145 131.714 63.4398 131.802 63.4513C131.849 63.4529 131.895 63.465 131.936 63.4868L131.984 63.5164L132.025 63.4809C132.061 63.4582 132.103 63.4465 132.146 63.4474C132.246 63.4317 132.339 63.3839 132.41 63.3112C132.454 63.3187 132.498 63.3227 132.542 63.3231C132.573 63.3181 132.603 63.3068 132.629 63.2898C132.656 63.2728 132.678 63.2506 132.696 63.2245C132.717 63.1966 132.747 63.1765 132.781 63.1673C132.817 63.1604 132.851 63.1435 132.878 63.1183C132.905 63.0932 132.925 63.061 132.935 63.0252C132.944 62.9996 132.972 62.9621 133.061 62.9167C133.148 62.8777 133.221 62.813 133.27 62.7313C133.289 62.6929 133.32 62.6617 133.359 62.6426C133.432 62.6012 133.489 62.5357 133.52 62.4571L133.696 62.467V62.4315L133.712 62.396C133.758 62.2477 133.84 62.1125 133.948 62.0015C134.067 61.8964 134.146 61.7535 134.171 61.5971L134.225 61.5557L134.396 61.4985L134.408 61.461C134.435 61.3648 134.49 61.2789 134.566 61.2144C134.651 61.1499 134.719 61.0652 134.763 60.9678C134.77 60.9458 134.781 60.9254 134.797 60.908C134.812 60.8907 134.831 60.8768 134.852 60.8673C134.98 60.8298 134.982 60.6424 134.972 60.4826C134.966 60.409 134.982 60.3352 135.02 60.2715C135.065 60.209 135.09 60.1338 135.091 60.0565L135.012 59.7784V59.5082C135.011 59.482 135.005 59.4562 134.993 59.4329C134.981 59.4096 134.964 59.3894 134.943 59.374C134.898 59.3465 134.845 59.3347 134.793 59.3405C134.757 59.3405 134.726 59.3661 134.668 59.4293C134.634 59.4655 134.596 59.4973 134.554 59.5239C134.518 59.549 134.488 59.5831 134.469 59.6228C134.45 59.6626 134.441 59.7067 134.444 59.7508C134.432 59.8332 134.395 59.9098 134.337 59.9697H134.317C134.223 59.9697 134.094 60.0565 133.872 60.5911C133.817 60.6156 133.76 60.6328 133.702 60.6424H133.674L133.657 60.666C133.608 60.7468 133.57 60.8337 133.544 60.9245C133.528 60.9785 133.503 61.0293 133.469 61.0744L133.331 61.0842L133.309 61.1118C133.292 61.1378 133.27 61.1605 133.244 61.1789L133.209 61.2026V61.246C133.219 61.3236 133.215 61.4026 133.197 61.4787C133.197 61.4965 133.183 61.5162 133.171 61.5182H133.083C133.035 61.5182 132.992 61.5537 132.939 61.6227C132.914 61.6551 132.88 61.6797 132.842 61.6938C132.805 61.7089 132.771 61.7316 132.743 61.7605C132.715 61.7894 132.694 61.8237 132.68 61.8614V61.8772V62.0232C132.68 62.0843 132.68 62.104 132.68 62.106C132.651 62.1055 132.622 62.1001 132.595 62.0902V62.0784L132.56 62.0547H132.508L132.161 62.2895C132.051 62.3802 132.004 62.4177 131.984 62.4315L131.787 62.4098C131.706 62.4098 131.656 62.2776 131.631 62.1593L131.572 61.9167V61.6957C131.559 61.6212 131.532 61.55 131.491 61.4866C131.537 61.2808 131.568 61.0718 131.583 60.8613L131.534 60.6246C131.569 60.5526 131.597 60.4773 131.617 60.3998C131.746 60.4606 131.887 60.4922 132.029 60.4925C132.07 60.4921 132.111 60.4828 132.148 60.4655C132.185 60.4481 132.218 60.423 132.245 60.3918C132.272 60.3606 132.291 60.324 132.303 60.2846C132.314 60.2451 132.317 60.2037 132.311 60.163C132.316 60.0861 132.337 60.011 132.373 59.9429C132.409 59.8748 132.459 59.8153 132.52 59.7685L132.804 59.4056L132.816 59.3819C132.829 59.3263 132.85 59.273 132.879 59.2241L132.893 59.2064V59.1768C132.909 58.9992 132.978 58.9795 133.002 58.9657L133.039 58.9519V58.9124C133.047 58.8674 133.064 58.8244 133.09 58.7864C133.115 58.7484 133.148 58.716 133.187 58.6915L133.211 58.6777L133.349 58.2931C133.396 58.234 133.432 58.1673 133.455 58.0958C133.472 58.0379 133.509 57.9881 133.56 57.9558C133.625 57.9216 133.677 57.8668 133.708 57.7999C133.743 57.6654 133.767 57.5282 133.779 57.3896C133.879 57.3462 133.976 57.1924 134.108 56.8728L134.305 56.3738C134.322 56.2629 134.36 56.1564 134.418 56.0601C134.469 55.9897 134.514 55.9144 134.55 55.8353L134.619 55.6873C134.72 55.5727 134.788 55.433 134.816 55.2829C134.83 55.191 134.868 55.1044 134.927 55.0324C135.008 54.938 135.048 54.8153 135.039 54.6912L135.025 54.634C135.138 54.6241 135.181 54.4663 135.209 54.3124C135.226 54.1803 135.271 54.0532 135.341 53.9396C135.395 53.8684 135.436 53.7892 135.465 53.7049V53.6832C135.448 53.4268 135.491 53.3242 135.536 53.3124H135.576L135.59 53.2749C135.611 53.1564 135.615 53.0356 135.603 52.9159L135.627 52.8942C135.698 52.8942 135.743 52.8567 135.824 52.3024L135.852 52.2314C135.931 52.1374 135.973 52.0186 135.972 51.8961C135.968 51.7722 135.939 51.6504 135.886 51.538C135.834 51.4255 135.76 51.3246 135.669 51.2412ZM133.753 55.855L133.739 55.8846C133.677 55.9612 133.634 56.0509 133.611 56.1469H133.589C133.516 56.1607 133.459 56.2475 133.38 56.4665C133.198 56.5683 133.063 56.7386 133.006 56.9399L132.95 57.1076C132.741 57.3778 132.725 57.4449 132.729 57.4883C132.738 57.5411 132.738 57.5951 132.729 57.648C132.72 57.6777 132.714 57.708 132.71 57.7388C132.654 57.7388 132.574 57.7763 132.398 58.007C132.301 58.1221 132.23 58.2566 132.189 58.4016L132.035 58.514C132.046 58.4745 132.055 58.4311 132.065 58.3838C132.113 58.1506 132.188 57.9236 132.288 57.7072C132.372 57.5468 132.438 57.3774 132.485 57.2022C132.494 57.1368 132.516 57.0738 132.55 57.0168C132.569 56.9948 132.584 56.9692 132.594 56.9414C132.603 56.9137 132.607 56.8843 132.605 56.8551L132.57 56.7347C132.57 56.7249 132.57 56.6973 132.623 56.6539L132.749 56.6657L132.773 56.644C132.804 56.6144 132.85 56.5533 132.897 56.3264C132.914 56.2153 132.951 56.1082 133.008 56.0108C133.053 55.9462 133.087 55.875 133.11 55.7998C133.121 55.7606 133.139 55.7238 133.163 55.6913C133.185 55.6689 133.202 55.6423 133.213 55.6131C133.224 55.5839 133.228 55.5527 133.227 55.5216C133.223 55.4926 133.217 55.4641 133.207 55.4368H133.276L133.376 55.281C133.408 55.2415 133.556 54.9831 133.82 54.5058C133.867 54.3583 133.947 54.2234 134.053 54.1112C134.141 54.0433 134.203 53.9472 134.229 53.839L134.27 53.7424C134.38 53.6333 134.45 53.49 134.467 53.336C134.479 53.2236 134.556 53.1388 134.7 53.0993L134.743 53.0855V53.0382C134.748 52.9325 134.775 52.8291 134.822 52.7344C134.864 52.7137 134.904 52.6886 134.941 52.6594C134.949 52.6945 134.955 52.7301 134.958 52.766L134.909 53.1092C134.92 53.1778 134.905 53.2481 134.868 53.3064C134.821 53.3562 134.793 53.4201 134.787 53.4879L134.678 53.839C134.522 54.1901 134.434 54.4012 134.406 54.4979V54.5886C134.397 54.6287 134.393 54.6698 134.394 54.7109L134.266 54.7385V54.7918C134.261 54.8652 134.231 54.9348 134.181 54.989C134.11 55.0517 134.057 55.132 134.027 55.2218C133.992 55.3136 133.945 55.3999 133.885 55.4782C133.765 55.6419 133.761 55.6656 133.763 55.6972L133.753 55.855ZM128.23 57.0385C128.23 57.0188 128.246 56.9892 128.281 56.9557L128.408 56.9675L128.431 56.9458C128.465 56.9162 128.506 56.8551 128.555 56.6282C128.573 56.5172 128.611 56.4103 128.666 56.3126C128.711 56.2487 128.745 56.1782 128.769 56.1035C128.779 56.0641 128.797 56.0271 128.822 55.995C128.844 55.9723 128.86 55.9453 128.871 55.9158C128.882 55.8863 128.887 55.8548 128.885 55.8234C128.882 55.7951 128.875 55.7672 128.865 55.7406H128.934L129.035 55.5847C129.047 55.569 129.08 55.5275 129.479 54.8095C129.525 54.6619 129.605 54.5269 129.711 54.415C129.8 54.3476 129.861 54.2512 129.885 54.1428L129.928 54.0442C130.039 53.9357 130.109 53.7921 130.126 53.6378C130.137 53.5274 130.214 53.4504 130.358 53.4031L130.402 53.3873V53.3419C130.406 53.2355 130.433 53.1312 130.481 53.0362C130.523 53.0153 130.562 52.9902 130.599 52.9612C130.607 52.997 130.613 53.0332 130.617 53.0697L130.567 53.413C130.579 53.4816 130.564 53.5519 130.526 53.6102C130.48 53.6609 130.451 53.7253 130.445 53.7937L130.337 54.1448C130.234 54.3594 130.144 54.5794 130.064 54.8036V54.8943C130.054 54.9342 130.05 54.9755 130.053 55.0166L129.924 55.0443V55.0975C129.919 55.171 129.889 55.2405 129.84 55.2948C129.769 55.3567 129.716 55.4364 129.686 55.5256C129.65 55.6176 129.602 55.7045 129.544 55.784C129.429 55.9398 129.419 55.9674 129.421 56.0029V56.139L129.408 56.1686C129.346 56.2453 129.302 56.335 129.279 56.431H129.258C129.185 56.4428 129.128 56.5316 129.049 56.7486C128.958 56.7992 128.878 56.8673 128.814 56.9489C128.75 57.0304 128.702 57.1239 128.674 57.2239L128.619 57.3916C128.413 57.6895 128.413 57.7546 128.413 57.796C128.419 57.8501 128.416 57.9047 128.404 57.9577C128.394 57.9866 128.388 58.0163 128.384 58.0465C128.329 58.0465 128.248 58.0859 128.072 58.3148C127.975 58.4298 127.904 58.5644 127.863 58.7093L127.709 58.8237C127.72 58.7816 127.73 58.7382 127.739 58.6935C127.787 58.46 127.861 58.233 127.962 58.0169C128.045 57.856 128.111 57.6867 128.159 57.5119C128.166 57.4465 128.187 57.3834 128.22 57.3265C128.24 57.3049 128.256 57.2793 128.265 57.2515C128.275 57.2237 128.279 57.1942 128.277 57.1648L128.23 57.0385ZM132.804 54.0205C132.816 54.0205 132.814 54.0304 132.822 54.0363C132.818 54.0472 132.812 54.0577 132.806 54.0678H132.795L132.804 54.0205ZM128.484 54.3243C128.496 54.3243 128.484 54.3341 128.502 54.3401C128.52 54.346 128.49 54.3618 128.486 54.3716H128.475L128.484 54.3243Z" fill="white"/>
<path d="M20.9705 38.7669C17.8084 38.7671 14.6982 37.9625 11.9329 36.4288C9.16759 34.8951 6.83813 32.6828 5.16391 30.0003C3.48969 27.3177 2.52579 24.2532 2.363 21.0952C2.2002 17.9373 2.84386 14.7899 4.23336 11.9494C5.62286 9.10885 7.71247 6.66875 10.3054 4.85884C12.8984 3.04893 15.9093 1.92878 19.0547 1.60386C22.2001 1.27894 25.3765 1.75995 28.2847 3.00159C31.1928 4.24324 33.7371 6.20465 35.6779 8.70113C33.752 5.8015 31.0833 3.47169 27.9503 1.95469C24.8173 0.437689 21.3346 -0.210946 17.8655 0.0764294C14.3965 0.363805 11.068 1.57667 8.22731 3.58853C5.38661 5.60039 3.13771 8.33755 1.71515 11.5146C0.292587 14.6916 -0.251535 18.1921 0.139529 21.651C0.530593 25.11 1.84252 28.4006 3.93849 31.1799C6.03446 33.9591 8.8377 36.1251 12.0559 37.4519C15.274 38.7788 18.7893 39.2179 22.2349 38.7235C21.8168 38.7511 21.3946 38.7669 20.9705 38.7669Z" fill="#FFCE1B"/>
<path d="M17.3585 33.7309C17.3585 33.6756 17.3585 33.6243 17.3585 33.5711C17.33 33.3848 17.33 33.1952 17.3585 33.0089C17.5964 31.4514 18.0326 29.9307 18.6565 28.4838C18.7902 28.0966 18.9627 27.7239 19.1713 27.3713C19.9899 25.815 20.8578 24.2823 21.781 22.7891C21.9901 22.4518 22.4911 22.1973 22.9054 22.0987C25.592 21.4142 28.3141 20.8678 30.9751 20.1005C32.8313 19.5659 34.4369 18.4988 35.9519 17.256C38.1217 15.4807 38.1513 24.8386 38.1513 24.8386C38.1513 24.8386 39.1277 21.0493 38.8555 18.0668C38.6385 15.6839 38.3544 14.3189 38.0664 13.4372C37.7567 12.4509 37.5062 11.2003 36.5318 9.82542C36.6403 10.2199 36.7547 10.5809 36.8415 10.9498C37.4096 13.3622 36.6304 15.0922 34.4527 16.254C33.3362 16.8714 32.9417 16.7294 32.3362 15.5636C29.8941 10.7959 26.5112 6.89617 21.7554 4.32001C19.191 2.93922 16.4709 2.17978 13.5219 2.85243C13.6642 2.90851 13.8169 2.9334 13.9697 2.92541C15.9069 2.82825 17.8293 3.30885 19.4928 4.3062C24.2605 7.04214 27.3298 11.2102 29.2964 16.2461C29.6022 17.0351 29.1702 17.7512 28.3457 17.7886C26.5605 17.8735 24.7674 17.9366 22.9843 17.8754C22.4931 17.8597 21.9191 17.4671 21.5522 17.0864C20.0708 15.536 18.7255 13.8494 17.1968 12.3523C15.386 10.5592 13.3523 9.04429 10.8491 8.33417C7.94547 7.51161 5.04384 8.95355 4.19958 11.6382C4.4935 11.3246 4.75979 11.0149 5.05567 10.7348C6.88818 8.99695 8.98698 8.84111 11.0523 10.2831C11.8413 10.8334 11.9517 11.3699 11.4468 12.1747C11.1371 12.6639 10.8096 13.1413 10.5256 13.6423C7.74624 18.554 6.2471 23.7576 7.10122 29.4563C7.38549 31.4771 8.24794 33.3725 9.58467 34.9144C9.56505 34.7801 9.53269 34.648 9.48801 34.5199C8.24727 32.496 7.83106 30.2651 7.97901 27.9434C8.29659 22.9745 10.208 18.623 13.3049 14.7726C14.0111 13.8988 14.7587 13.9224 15.3643 14.8791C16.3052 16.3645 17.2106 17.8754 18.0509 19.416C18.2481 19.7612 18.2186 20.3194 18.0943 20.7179C17.6998 21.9764 17.1711 23.1915 16.7825 24.45C15.8101 27.6061 15.1098 30.7898 15.6917 34.1155C16.2736 37.4412 18.9583 39.1593 22.0315 38.678C21.6192 38.5873 21.2149 38.5182 20.8243 38.4058C18.4671 37.7312 17.3309 36.1926 17.3585 33.7309Z" fill="#FFCE1B"/>
</g>
<defs>
<clipPath id="clip0_491_347">
<rect width="136" height="74.1465" fill="white"/>
</clipPath>
</defs>
</svg>
