<svg width="72" height="71" viewBox="0 0 72 71" fill="none" xmlns="http://www.w3.org/2000/svg">
<path d="M44.7238 83.189C37.9747 83.1895 31.3364 81.4717 25.4342 78.1971C19.5321 74.9226 14.5602 70.1992 10.9868 64.4718C7.41335 58.7443 5.35605 52.2013 5.00858 45.4588C4.66111 38.7164 6.03491 31.9964 9.00061 25.9318C11.9663 19.8671 16.4263 14.6573 21.9606 10.793C27.4949 6.92874 33.9214 4.53713 40.6348 3.8434C47.3482 3.14967 54.1277 4.17667 60.3348 6.82766C66.5419 9.47866 71.9724 13.6664 76.1148 18.9966C72.0041 12.8057 66.3083 7.83137 59.6212 4.59246C52.9342 1.35356 45.501 -0.0313267 38.0967 0.58224C30.6924 1.19581 23.5882 3.78535 17.5252 8.08081C11.4621 12.3763 6.66211 18.2203 3.62584 25.0035C0.589574 31.7866 -0.571781 39.2605 0.262892 46.6455C1.09757 54.0306 3.89769 61.0564 8.37125 66.9902C12.8448 72.9241 18.828 77.5486 25.6967 80.3815C32.5655 83.2144 40.0682 84.152 47.4226 83.0964C46.53 83.1553 45.629 83.189 44.7238 83.189Z" fill="#FFCE18"/>
<path d="M37.0156 72.438C37.0156 72.3201 37.0156 72.2106 37.0156 72.0969C36.9547 71.6991 36.9547 71.2944 37.0156 70.8966C37.5234 67.5712 38.4544 64.3244 39.7859 61.2353C40.0714 60.4086 40.4395 59.6128 40.8848 58.86C42.632 55.5371 44.4845 52.2647 46.4548 49.0766C46.9011 48.3564 47.9705 47.8131 48.8546 47.6025C54.5888 46.1411 60.3988 44.9745 66.0784 43.3362C70.0401 42.1949 73.4672 39.9164 76.7006 37.2632C81.3318 33.4728 81.3949 53.4524 81.3949 53.4524C81.3949 53.4524 83.4789 45.362 82.8979 38.9941C82.4348 33.9066 81.8286 30.9922 81.2139 29.1096C80.5529 27.0038 80.0182 24.3337 77.9384 21.3982C78.1699 22.2406 78.4141 23.0113 78.5994 23.7988C79.8119 28.9496 78.1489 32.6431 73.5009 35.1237C71.1179 36.4419 70.2759 36.1387 68.9834 33.6496C63.7712 23.4703 56.5508 15.1441 46.4001 9.64381C40.9269 6.69572 35.1211 5.07428 28.8269 6.51041C29.1306 6.63015 29.4565 6.68329 29.7826 6.66624C33.9173 6.4588 38.0204 7.48491 41.571 9.61433C51.747 15.4557 58.298 24.3548 62.4955 35.1068C63.1481 36.7915 62.2261 38.3203 60.4662 38.4003C56.656 38.5814 52.829 38.7161 49.023 38.5856C47.9747 38.5519 46.7495 37.7138 45.9664 36.901C42.8046 33.5907 39.9333 29.9898 36.6704 26.7932C32.8055 22.9649 28.4648 19.7305 23.1221 18.2143C16.9248 16.4581 10.7316 19.5367 8.92969 25.2687C9.557 24.599 10.1254 23.9378 10.7569 23.3398C14.6681 19.6294 19.1477 19.2967 23.5558 22.3753C25.2398 23.5503 25.4756 24.6959 24.3978 26.4142C23.7368 27.4587 23.0379 28.4779 22.4317 29.5476C16.4995 40.0344 13.2998 51.1444 15.1228 63.3116C15.7296 67.626 17.5703 71.673 20.4234 74.965C20.3815 74.6783 20.3125 74.3962 20.2171 74.1227C17.5689 69.8016 16.6806 65.0383 16.9963 60.0813C17.6742 49.4724 21.7538 40.1818 28.3638 31.9608C29.871 30.0951 31.4667 30.1456 32.7592 32.1882C34.7674 35.3595 36.6999 38.5856 38.4934 41.8748C38.9144 42.6118 38.8513 43.8037 38.586 44.6544C37.744 47.3414 36.6157 49.9357 35.7863 52.6227C33.7107 59.3612 32.2161 66.1586 33.4581 73.2593C34.7001 80.36 40.4301 84.0282 46.9895 83.0006C46.1096 82.8069 45.2465 82.6595 44.4129 82.4194C39.3818 80.979 36.9567 77.694 37.0156 72.438Z" fill="#FFCE18"/>
</svg>
